STARTFONT 2.1
COMMENT
COMMENT Converted from OpenType font "TimesNewRomanPS-BoldMT.otf" by "otf2bdf 3.0".
COMMENT
FONT -FreeType-Times New Roman-Bold-R-Normal--28-200-100-100-P-140-ISO10646-1
SIZE 20 100 100
FONTBOUNDINGBOX 46 38 -15 -9
STARTPROPERTIES 19
FOUNDRY "FreeType"
FAMILY_NAME "Times New Roman"
WEIGHT_NAME "Bold"
SLANT "R"
SETWIDTH_NAME "Normal"
ADD_STYLE_NAME ""
PIXEL_SIZE 28
POINT_SIZE 200
RESOLUTION_X 100
RESOLUTION_Y 100
SPACING "P"
AVERAGE_WIDTH 140
CHARSET_REGISTRY "ISO10646"
CHARSET_ENCODING "1"
FONT_ASCENT 24
FONT_DESCENT 6
COPYRIGHT "© 2006 The Monotype Corporation. All Rights Reserved."
_OTF_FONTFILE "TimesNewRomanPS-BoldMT.otf"
_OTF_PSNAME "TimesNewRomanPS-BoldMT"
ENDPROPERTIES
CHARS 1425
STARTCHAR 0020
ENCODING 32
SWIDTH 252 0
DWIDTH 7 0
BBX 0 0 0 0
BITMAP
ENDCHAR
STARTCHAR 0021
ENCODING 33
SWIDTH 324 0
DWIDTH 9 0
BBX 5 19 2 0
BITMAP
30
78
F8
F8
78
70
70
70
30
20
20
20
20
00
00
70
78
F8
70
ENDCHAR
STARTCHAR 0022
ENCODING 34
SWIDTH 540 0
DWIDTH 15 0
BBX 11 9 2 10
BITMAP
60C0
71E0
F1E0
71E0
71C0
70C0
60C0
20C0
2080
ENDCHAR
STARTCHAR 0023
ENCODING 35
SWIDTH 504 0
DWIDTH 14 0
BBX 12 19 1 0
BITMAP
0C30
0C20
0860
1860
1860
1860
FFF0
FFF0
30C0
30C0
30C0
3080
FFF0
FFF0
6180
6180
6100
4300
C300
ENDCHAR
STARTCHAR 0024
ENCODING 36
SWIDTH 504 0
DWIDTH 14 0
BBX 12 21 1 -2
BITMAP
0600
1FC0
76E0
6620
E620
F620
FE00
7E00
7F00
3F80
0FE0
07E0
07F0
06F0
8670
8670
C660
E6E0
7F80
0600
0600
ENDCHAR
STARTCHAR 0025
ENCODING 37
SWIDTH 1008 0
DWIDTH 28 0
BBX 24 20 2 -1
BITMAP
1C0060
770040
6700C0
E38180
E38100
E38300
E38600
E38400
770C00
3E1800
00107C
0030CE
0061CE
0041CF
00C1CF
0181CF
0101CF
0301CE
0600EC
040038
ENDCHAR
STARTCHAR 0026
ENCODING 38
SWIDTH 828 0
DWIDTH 23 0
BBX 21 19 1 0
BITMAP
007000
01BC00
031E00
070E00
070C00
078C00
079800
07E000
03C1F0
0FE0E0
39F0C0
71F080
70F980
F07D00
F87E00
F83F08
FC1FD0
7FFFF0
3FC3E0
ENDCHAR
STARTCHAR 0027
ENCODING 39
SWIDTH 288 0
DWIDTH 8 0
BBX 4 9 2 10
BITMAP
60
F0
F0
F0
E0
60
60
60
40
ENDCHAR
STARTCHAR 0028
ENCODING 40
SWIDTH 324 0
DWIDTH 9 0
BBX 8 24 1 -6
BITMAP
01
06
0C
18
38
30
70
70
70
F0
F0
F0
F0
F0
F0
F0
70
70
70
38
18
1C
0C
02
ENDCHAR
STARTCHAR 0029
ENCODING 41
SWIDTH 324 0
DWIDTH 9 0
BBX 8 25 0 -6
BITMAP
80
60
30
18
1C
0C
0E
0E
0F
0F
0F
0F
0F
0F
0F
0F
0F
0E
0E
0C
1C
18
30
60
80
ENDCHAR
STARTCHAR 002A
ENCODING 42
SWIDTH 504 0
DWIDTH 14 0
BBX 10 11 2 8
BITMAP
0C00
0C00
0C00
CCC0
E9C0
FFC0
0C00
1200
7380
7380
2100
ENDCHAR
STARTCHAR 002B
ENCODING 43
SWIDTH 576 0
DWIDTH 16 0
BBX 14 15 1 2
BITMAP
0300
0300
0300
0300
0300
0300
0300
FFFC
FFFC
0300
0300
0300
0300
0300
0300
ENDCHAR
STARTCHAR 002C
ENCODING 44
SWIDTH 252 0
DWIDTH 7 0
BBX 5 9 1 -5
BITMAP
70
F8
F8
F8
18
18
10
20
C0
ENDCHAR
STARTCHAR 002D
ENCODING 45
SWIDTH 324 0
DWIDTH 9 0
BBX 8 3 1 5
BITMAP
FF
FF
FF
ENDCHAR
STARTCHAR 002E
ENCODING 46
SWIDTH 252 0
DWIDTH 7 0
BBX 5 4 1 0
BITMAP
70
F8
F8
70
ENDCHAR
STARTCHAR 002F
ENCODING 47
SWIDTH 288 0
DWIDTH 8 0
BBX 8 19 0 0
BITMAP
03
02
06
06
04
0C
0C
0C
18
18
18
10
30
30
20
60
60
40
C0
ENDCHAR
STARTCHAR 0030
ENCODING 48
SWIDTH 504 0
DWIDTH 14 0
BBX 12 19 1 0
BITMAP
0F00
1980
31C0
70E0
70E0
70E0
F0F0
F0F0
F0F0
F0F0
F0F0
F0F0
F0F0
F0F0
70E0
70E0
70C0
39C0
1F80
ENDCHAR
STARTCHAR 0031
ENCODING 49
SWIDTH 504 0
DWIDTH 14 0
BBX 10 19 2 0
BITMAP
0200
0E00
3E00
FE00
1E00
1E00
1E00
1E00
1E00
1E00
1E00
1E00
1E00
1E00
1E00
1E00
1E00
1E00
FFC0
ENDCHAR
STARTCHAR 0032
ENCODING 50
SWIDTH 504 0
DWIDTH 14 0
BBX 11 19 1 0
BITMAP
0E00
3F80
7FC0
6FC0
83E0
81E0
01C0
01C0
01C0
0380
0300
0600
0600
0C00
1820
3FE0
3FE0
7FE0
FFE0
ENDCHAR
STARTCHAR 0033
ENCODING 51
SWIDTH 504 0
DWIDTH 14 0
BBX 12 19 0 0
BITMAP
0780
1FC0
1FE0
21E0
41E0
00E0
00E0
0180
03C0
0FE0
03F0
01F0
00F0
0070
0070
0070
7060
F8C0
7F80
ENDCHAR
STARTCHAR 0034
ENCODING 52
SWIDTH 504 0
DWIDTH 14 0
BBX 12 19 1 0
BITMAP
00C0
01C0
01C0
03C0
07C0
07C0
0BC0
13C0
33C0
23C0
43C0
83C0
FFF0
FFF0
FFF0
03C0
03C0
03C0
03C0
ENDCHAR
STARTCHAR 0035
ENCODING 53
SWIDTH 504 0
DWIDTH 14 0
BBX 12 18 1 0
BITMAP
1FF0
1FE0
3FE0
2000
6000
7C00
7F80
FFC0
FFE0
07E0
01F0
00F0
0070
0070
0060
F060
F8C0
7F00
ENDCHAR
STARTCHAR 0036
ENCODING 54
SWIDTH 504 0
DWIDTH 14 0
BBX 12 19 1 0
BITMAP
0030
0380
0700
0E00
1C00
3800
7800
7B00
7FC0
F1E0
F0F0
F0F0
F0F0
F0F0
F0F0
78F0
78E0
38C0
1F80
ENDCHAR
STARTCHAR 0037
ENCODING 55
SWIDTH 504 0
DWIDTH 14 0
BBX 12 18 1 0
BITMAP
7FF0
7FF0
7FE0
E060
80E0
00C0
00C0
00C0
0180
0180
0180
0300
0300
0300
0600
0600
0600
0C00
ENDCHAR
STARTCHAR 0038
ENCODING 56
SWIDTH 504 0
DWIDTH 14 0
BBX 12 19 1 0
BITMAP
0700
39C0
70E0
70F0
F0F0
F8E0
7CE0
7EC0
3F80
1FC0
1FE0
33E0
71F0
F0F0
E0F0
E0F0
F0E0
70E0
3F80
ENDCHAR
STARTCHAR 0039
ENCODING 57
SWIDTH 504 0
DWIDTH 14 0
BBX 12 19 1 0
BITMAP
0E00
3B80
71C0
71E0
F1E0
F0F0
F0F0
F0F0
F0F0
F0F0
78F0
3FE0
01E0
01C0
03C0
0380
0700
0E00
F000
ENDCHAR
STARTCHAR 003A
ENCODING 58
SWIDTH 324 0
DWIDTH 9 0
BBX 5 13 2 0
BITMAP
70
78
F8
70
00
00
00
00
00
70
F8
F8
70
ENDCHAR
STARTCHAR 003B
ENCODING 59
SWIDTH 324 0
DWIDTH 9 0
BBX 5 18 2 -5
BITMAP
70
F8
F8
70
00
00
00
00
00
70
F8
F8
78
08
18
10
20
40
ENDCHAR
STARTCHAR 003C
ENCODING 60
SWIDTH 576 0
DWIDTH 16 0
BBX 14 12 1 4
BITMAP
001C
0078
03E0
0F80
3C00
F000
F000
3E00
0780
01F0
007C
000C
ENDCHAR
STARTCHAR 003D
ENCODING 61
SWIDTH 576 0
DWIDTH 16 0
BBX 14 6 1 6
BITMAP
FFFC
FFFC
0000
0000
FFFC
FFFC
ENDCHAR
STARTCHAR 003E
ENCODING 62
SWIDTH 576 0
DWIDTH 16 0
BBX 14 12 1 4
BITMAP
E000
F800
1F00
07C0
00F0
003C
007C
01F0
0780
3E00
F000
C000
ENDCHAR
STARTCHAR 003F
ENCODING 63
SWIDTH 504 0
DWIDTH 14 0
BBX 10 19 2 0
BITMAP
1E00
6780
C3C0
E3C0
E3C0
E3C0
03C0
0380
0700
0600
0800
0800
0800
0000
0000
1C00
3E00
3E00
1C00
ENDCHAR
STARTCHAR 0040
ENCODING 64
SWIDTH 936 0
DWIDTH 26 0
BBX 24 25 1 -6
BITMAP
001F00
01C0E0
030010
0C0008
180004
100004
301DC2
6035C2
6063C2
40E382
C1C382
C1C782
C3C702
C38704
C38F04
C39F08
43EE10
43EF21
6187C2
200002
100004
180008
040010
0300E0
00FF00
ENDCHAR
STARTCHAR 0041
ENCODING 65
SWIDTH 720 0
DWIDTH 20 0
BBX 20 18 0 1
BITMAP
006000
006000
007000
00F000
00F800
01F800
017800
027C00
023C00
063E00
041E00
0C1F00
0FFF00
080F80
100F80
1007C0
3007C0
FC1FF0
ENDCHAR
STARTCHAR 0042
ENCODING 66
SWIDTH 684 0
DWIDTH 19 0
BBX 17 18 1 0
BITMAP
FFFC00
3C3E00
3C1E00
3C1F00
3C1F00
3C1E00
3C3E00
3C7800
3FF000
3C3E00
3C1F00
3C0F00
3C0F80
3C0F80
3C0F00
3C1F00
3E3E00
FFF800
ENDCHAR
STARTCHAR 0043
ENCODING 67
SWIDTH 720 0
DWIDTH 20 0
BBX 18 19 1 0
BITMAP
00F840
07CFC0
0F03C0
1E00C0
3C00C0
7C0040
780040
F80000
F80000
F80000
F80000
F80000
F80000
780000
7C0000
3C0080
1E0080
0F0300
07FC00
ENDCHAR
STARTCHAR 0044
ENCODING 68
SWIDTH 720 0
DWIDTH 20 0
BBX 19 18 0 0
BITMAP
7FFC00
1E1F00
1E0F80
1E0780
1E07C0
1E03C0
1E03E0
1E03E0
1E03E0
1E03E0
1E03E0
1E03E0
1E03C0
1E07C0
1E0780
1E0F00
1F1E00
FFF800
ENDCHAR
STARTCHAR 0045
ENCODING 69
SWIDTH 684 0
DWIDTH 19 0
BBX 16 18 1 0
BITMAP
FFFE
3E06
3E02
3E02
3E22
3E20
3E20
3E60
3FE0
3EE0
3E20
3E20
3E20
3E01
3E01
3E03
3E0F
FFFF
ENDCHAR
STARTCHAR 0046
ENCODING 70
SWIDTH 612 0
DWIDTH 17 0
BBX 15 18 1 0
BITMAP
FFFE
3E06
3E02
3E02
3E10
3E10
3E10
3E30
3FF0
3E70
3E30
3E10
3E10
3E10
3E00
3E00
3E00
FF80
ENDCHAR
STARTCHAR 0047
ENCODING 71
SWIDTH 792 0
DWIDTH 22 0
BBX 20 19 1 0
BITMAP
00F800
078FC0
0E01C0
1E00C0
3C0040
7C0040
780000
F80000
F80000
F80000
F80000
F81FF0
F803C0
7803C0
7C03C0
3C03C0
1E03C0
0F03C0
03FF00
ENDCHAR
STARTCHAR 0048
ENCODING 72
SWIDTH 792 0
DWIDTH 22 0
BBX 20 18 1 0
BITMAP
FF9FF0
3E07C0
3E07C0
3E07C0
3E07C0
3E07C0
3E07C0
3E07C0
3FFFC0
3E07C0
3E07C0
3E07C0
3E07C0
3E07C0
3E07C0
3E07C0
3E07C0
FFBFF0
ENDCHAR
STARTCHAR 0049
ENCODING 73
SWIDTH 396 0
DWIDTH 11 0
BBX 9 18 1 0
BITMAP
FF80
3E00
3E00
3E00
3E00
3E00
3E00
3E00
3E00
3E00
3E00
3E00
3E00
3E00
3E00
3E00
3E00
FF80
ENDCHAR
STARTCHAR 004A
ENCODING 74
SWIDTH 504 0
DWIDTH 14 0
BBX 13 18 0 0
BITMAP
0FF8
01E0
01E0
01E0
01E0
01E0
01E0
01E0
01E0
01E0
01E0
01E0
21E0
71E0
F1E0
F1E0
63C0
3F80
ENDCHAR
STARTCHAR 004B
ENCODING 75
SWIDTH 792 0
DWIDTH 22 0
BBX 21 18 1 0
BITMAP
FF07E0
3E0180
3E0300
3E0600
3E0800
3E3000
3E6000
3EE000
3FF000
3FF800
3EFC00
3E7C00
3E3E00
3E1F00
3E1F80
3E0FC0
3E07E0
FF9FF8
ENDCHAR
STARTCHAR 004C
ENCODING 76
SWIDTH 684 0
DWIDTH 19 0
BBX 16 18 1 0
BITMAP
7F80
3E00
3E00
3E00
3E00
3E00
3E00
3E00
3E00
3E00
3E00
3E00
3E01
3E01
3E01
3E03
3E07
FFFF
ENDCHAR
STARTCHAR 004D
ENCODING 77
SWIDTH 936 0
DWIDTH 26 0
BBX 25 18 1 0
BITMAP
FE007F00
3F00FC00
2F00BC00
2F80BC00
2F813C00
27C13C00
27C23C00
23C23C00
23E23C00
21E43C00
21F43C00
21F83C00
20F83C00
20F83C00
20703C00
20703C00
20203C00
FC21FF80
ENDCHAR
STARTCHAR 004E
ENCODING 78
SWIDTH 720 0
DWIDTH 20 0
BBX 19 18 0 0
BITMAP
7F03E0
1F0080
1F8080
1FC080
17E080
13F080
11F080
10F880
10FC80
107E80
103F80
101F80
100F80
100780
100780
100380
100180
FE0080
ENDCHAR
STARTCHAR 004F
ENCODING 79
SWIDTH 792 0
DWIDTH 22 0
BBX 20 19 1 0
BITMAP
00F000
071E00
1E0700
3C0380
3C03C0
7803E0
7801E0
F801E0
F801F0
F801F0
F801F0
F801E0
F801E0
7803E0
7C03C0
3C03C0
1C0780
0E0F00
07FC00
ENDCHAR
STARTCHAR 0050
ENCODING 80
SWIDTH 612 0
DWIDTH 17 0
BBX 15 18 1 0
BITMAP
FFF8
3E3C
3E3E
3E1E
3E1E
3E1E
3E3E
3E3C
3EF8
3F80
3E00
3E00
3E00
3E00
3E00
3E00
3E00
FF80
ENDCHAR
STARTCHAR 0051
ENCODING 81
SWIDTH 792 0
DWIDTH 22 0
BBX 20 24 1 -5
BITMAP
01F800
071E00
1E0700
3C0380
3C03C0
7803E0
7801E0
F801E0
F801F0
F801F0
F801F0
F801F0
F801E0
7803E0
7C03C0
3C03C0
1C0780
0E0700
07FC00
00F000
00F800
007C00
003F00
000FE0
ENDCHAR
STARTCHAR 0052
ENCODING 82
SWIDTH 720 0
DWIDTH 20 0
BBX 19 18 1 0
BITMAP
7FFC00
3C1E00
3C0F00
3C0F00
3C0F00
3C0F00
3C0F00
3C1E00
3CFC00
3FF800
3CF800
3C7C00
3C3E00
3C3E00
3C1F00
3C0F80
3E0FC0
FF87E0
ENDCHAR
STARTCHAR 0053
ENCODING 83
SWIDTH 540 0
DWIDTH 15 0
BBX 13 19 1 0
BITMAP
0F00
38F0
7030
6030
7010
F010
7C00
7F00
7FC0
3FE0
0FF0
03F8
81F8
8078
C038
C038
E038
F070
DFE0
ENDCHAR
STARTCHAR 0054
ENCODING 84
SWIDTH 684 0
DWIDTH 19 0
BBX 17 18 1 0
BITMAP
FFFF80
C3C380
83C180
83C080
83C080
03C000
03C000
03C000
03C000
03C000
03C000
03C000
03C000
03C000
03C000
03C000
03E000
1FF800
ENDCHAR
STARTCHAR 0055
ENCODING 85
SWIDTH 720 0
DWIDTH 20 0
BBX 18 18 1 0
BITMAP
FF87C0
3E0100
3C0100
3C0100
3C0100
3C0100
3C0100
3C0100
3C0100
3C0100
3C0100
3C0100
3C0100
3E0100
3E0300
1E0200
1F0400
07F800
ENDCHAR
STARTCHAR 0056
ENCODING 86
SWIDTH 720 0
DWIDTH 20 0
BBX 18 18 1 0
BITMAP
FF07C0
7C0180
3C0100
3E0100
3E0200
1F0200
1F0400
0F0400
0F8800
078800
07D800
07D000
03F000
03E000
01E000
01C000
00C000
008000
ENDCHAR
STARTCHAR 0057
ENCODING 87
SWIDTH 1008 0
DWIDTH 28 0
BBX 26 18 1 0
BITMAP
FE7F83C0
7C1F0080
7C0F0180
3C0F8100
3E0F8100
1E07C200
1F0FC200
1F0BC200
0F1BE400
0F93E400
0791E800
07E1F800
07E0F800
03C0F000
03C0F000
01C07000
01806000
01802000
ENDCHAR
STARTCHAR 0058
ENCODING 88
SWIDTH 720 0
DWIDTH 20 0
BBX 20 18 0 0
BITMAP
7F87E0
1F0180
1F8300
0F8200
07C400
07E800
03F000
01F000
01F800
00F800
00FC00
017E00
023E00
061F00
0C1F80
080F80
1807C0
FE1FF0
ENDCHAR
STARTCHAR 0059
ENCODING 89
SWIDTH 720 0
DWIDTH 20 0
BBX 18 18 1 0
BITMAP
FF03C0
7C0180
3E0100
1E0200
1F0200
0F8400
0F8C00
07C800
07D000
03F000
03E000
01E000
01E000
01E000
01E000
01E000
01E000
0FFC00
ENDCHAR
STARTCHAR 005A
ENCODING 90
SWIDTH 684 0
DWIDTH 19 0
BBX 17 18 1 0
BITMAP
7FFE00
703E00
407C00
40FC00
40F800
01F000
01F000
03E000
07C000
07C000
0F8000
1F8080
1F0080
3E0080
3E0180
7C0380
F80700
FFFF00
ENDCHAR
STARTCHAR 005B
ENCODING 91
SWIDTH 324 0
DWIDTH 9 0
BBX 5 23 3 -5
BITMAP
F8
E0
E0
E0
E0
E0
E0
E0
E0
E0
E0
E0
E0
E0
E0
E0
E0
E0
E0
E0
E0
E0
F8
ENDCHAR
STARTCHAR 005C
ENCODING 92
SWIDTH 288 0
DWIDTH 8 0
BBX 8 19 0 0
BITMAP
C0
C0
40
60
60
20
30
30
10
18
18
08
0C
0C
0C
06
06
06
03
ENDCHAR
STARTCHAR 005D
ENCODING 93
SWIDTH 324 0
DWIDTH 9 0
BBX 5 23 1 -5
BITMAP
F8
38
38
38
38
38
38
38
38
38
38
38
38
38
38
38
38
38
38
38
38
38
F8
ENDCHAR
STARTCHAR 005E
ENCODING 94
SWIDTH 576 0
DWIDTH 16 0
BBX 12 10 2 9
BITMAP
0600
0600
0F00
0F80
1980
19C0
30C0
6060
6060
C030
ENDCHAR
STARTCHAR 005F
ENCODING 95
SWIDTH 504 0
DWIDTH 14 0
BBX 14 2 0 -6
BITMAP
FFFC
FFFC
ENDCHAR
STARTCHAR 0060
ENCODING 96
SWIDTH 324 0
DWIDTH 9 0
BBX 5 5 1 14
BITMAP
F0
70
30
18
08
ENDCHAR
STARTCHAR 0061
ENCODING 97
SWIDTH 504 0
DWIDTH 14 0
BBX 12 13 1 0
BITMAP
1F80
33C0
71E0
71E0
71E0
03E0
0DE0
39E0
71E0
F1E0
F3E0
FDF0
79E0
ENDCHAR
STARTCHAR 0062
ENCODING 98
SWIDTH 540 0
DWIDTH 15 0
BBX 13 18 1 0
BITMAP
F800
7800
7800
7800
7800
7BC0
7FF0
7870
7878
7878
7878
7878
7878
7878
7878
7870
7860
6FC0
ENDCHAR
STARTCHAR 0063
ENCODING 99
SWIDTH 432 0
DWIDTH 12 0
BBX 10 13 1 0
BITMAP
0F80
33C0
71C0
71C0
F0C0
F000
F000
F000
F000
F800
7C40
3FC0
1F80
ENDCHAR
STARTCHAR 0064
ENCODING 100
SWIDTH 540 0
DWIDTH 15 0
BBX 13 18 1 0
BITMAP
01F0
00F0
00F0
00F0
00F0
1EF0
39F0
78F0
70F0
F0F0
F0F0
F0F0
F0F0
F0F0
F0F0
78F0
79F8
3EF8
ENDCHAR
STARTCHAR 0065
ENCODING 101
SWIDTH 432 0
DWIDTH 12 0
BBX 11 13 1 0
BITMAP
0F00
3180
71C0
71C0
F1E0
FFE0
F000
F000
F000
F820
7840
7F80
3F00
ENDCHAR
STARTCHAR 0066
ENCODING 102
SWIDTH 324 0
DWIDTH 9 0
BBX 10 19 1 0
BITMAP
0780
1DC0
39C0
3880
3800
3800
FE00
FE00
3800
3800
3800
3800
3800
3800
3800
3800
3C00
3C00
FE00
ENDCHAR
STARTCHAR 0067
ENCODING 103
SWIDTH 504 0
DWIDTH 14 0
BBX 12 19 1 -6
BITMAP
1FF0
71F0
71C0
F0E0
F0E0
F0E0
71E0
71C0
1F80
2000
6000
7000
7FE0
7FF0
3FF0
E030
C030
E060
3F80
ENDCHAR
STARTCHAR 0068
ENCODING 104
SWIDTH 540 0
DWIDTH 15 0
BBX 14 18 1 0
BITMAP
F800
7800
7800
7800
7800
79E0
7BF0
7CF0
78F0
78F0
78F0
78F0
78F0
78F0
78F0
78F0
78F0
FDFC
ENDCHAR
STARTCHAR 0069
ENCODING 105
SWIDTH 288 0
DWIDTH 8 0
BBX 6 19 1 0
BITMAP
30
78
78
78
00
00
F8
78
78
78
78
78
78
78
78
78
78
78
FC
ENDCHAR
STARTCHAR 006A
ENCODING 106
SWIDTH 324 0
DWIDTH 9 0
BBX 8 25 -1 -6
BITMAP
06
0F
0F
0E
00
00
3F
0F
0F
0F
0F
0F
0F
0F
0F
0F
0F
0F
0F
0F
0F
4F
EE
EE
7C
ENDCHAR
STARTCHAR 006B
ENCODING 107
SWIDTH 540 0
DWIDTH 15 0
BBX 15 18 1 0
BITMAP
F800
7800
7800
7800
7800
78FC
7870
7860
78C0
7980
7B80
7FC0
7FC0
79E0
79F0
78F0
7878
FCFE
ENDCHAR
STARTCHAR 006C
ENCODING 108
SWIDTH 288 0
DWIDTH 8 0
BBX 6 18 1 0
BITMAP
F8
78
78
78
78
78
78
78
78
78
78
78
78
78
78
78
78
FC
ENDCHAR
STARTCHAR 006D
ENCODING 109
SWIDTH 828 0
DWIDTH 23 0
BBX 21 13 1 0
BITMAP
F9E3E0
7BF7F0
7C78F0
7878F0
7878F0
7878F0
7878F0
7878F0
7878F0
7878F0
7878F0
7878F0
FFFDF8
ENDCHAR
STARTCHAR 006E
ENCODING 110
SWIDTH 540 0
DWIDTH 15 0
BBX 14 13 1 0
BITMAP
F9E0
7BF0
7CF0
78F0
78F0
78F0
78F0
78F0
78F0
78F0
78F0
78F0
FDFC
ENDCHAR
STARTCHAR 006F
ENCODING 111
SWIDTH 504 0
DWIDTH 14 0
BBX 12 13 1 0
BITMAP
1F00
39C0
70E0
70E0
F0F0
F0F0
F0F0
F0F0
F0F0
70E0
70E0
39C0
1F80
ENDCHAR
STARTCHAR 0070
ENCODING 112
SWIDTH 540 0
DWIDTH 15 0
BBX 13 19 1 -6
BITMAP
FBC0
7FF0
7870
7878
7878
7878
7878
7878
7878
7878
7870
7CF0
7BE0
7800
7800
7800
7800
7800
FE00
ENDCHAR
STARTCHAR 0071
ENCODING 113
SWIDTH 540 0
DWIDTH 15 0
BBX 14 19 1 -6
BITMAP
0F90
38F0
38F0
70F0
70F0
F0F0
F0F0
F0F0
F0F0
F0F0
78F0
79F0
3FF0
00F0
00F0
00F0
00F0
00F0
01FC
ENDCHAR
STARTCHAR 0072
ENCODING 114
SWIDTH 432 0
DWIDTH 12 0
BBX 11 13 1 0
BITMAP
F8E0
7BE0
7BE0
7C40
7C00
7800
7800
7800
7800
7800
7800
7800
FE00
ENDCHAR
STARTCHAR 0073
ENCODING 115
SWIDTH 396 0
DWIDTH 11 0
BBX 9 13 1 0
BITMAP
3D00
6300
E100
F100
F800
7E00
7F00
3F00
0F80
8780
C380
C300
FE00
ENDCHAR
STARTCHAR 0074
ENCODING 116
SWIDTH 324 0
DWIDTH 9 0
BBX 8 17 1 0
BITMAP
08
18
18
38
FF
FF
78
78
78
78
78
78
78
78
79
7E
3E
ENDCHAR
STARTCHAR 0075
ENCODING 117
SWIDTH 540 0
DWIDTH 15 0
BBX 14 13 1 0
BITMAP
F9F0
78F0
78F0
78F0
78F0
78F0
78F0
78F0
78F0
78F0
78F0
3FF0
3EFC
ENDCHAR
STARTCHAR 0076
ENCODING 118
SWIDTH 504 0
DWIDTH 14 0
BBX 14 13 0 0
BITMAP
FE7C
7C10
3C10
3C20
1E20
1E20
0F40
0F40
0780
0780
0780
0300
0300
ENDCHAR
STARTCHAR 0077
ENCODING 119
SWIDTH 720 0
DWIDTH 20 0
BBX 20 13 0 0
BITMAP
FEFCF0
7C7860
3C7840
3C7C40
1E7C80
1E5C80
1E9E80
0F9F00
0F0F00
0F0F00
070E00
060600
020600
ENDCHAR
STARTCHAR 0078
ENCODING 120
SWIDTH 504 0
DWIDTH 14 0
BBX 12 13 1 0
BITMAP
FFF0
7CC0
3C80
3C80
1F00
1F00
0F00
0F80
0F80
13C0
13C0
23E0
F7F0
ENDCHAR
STARTCHAR 0079
ENCODING 121
SWIDTH 504 0
DWIDTH 14 0
BBX 14 19 0 -6
BITMAP
FE7C
7C10
3C10
3C10
1E20
1E20
0F40
0F40
07C0
0780
0780
0300
0300
0100
0200
7200
7400
7400
3800
ENDCHAR
STARTCHAR 007A
ENCODING 122
SWIDTH 432 0
DWIDTH 12 0
BBX 12 13 0 0
BITMAP
7FF0
61E0
43E0
43C0
07C0
0780
0F00
1F00
1E00
3E10
3C10
7860
FFE0
ENDCHAR
STARTCHAR 007B
ENCODING 123
SWIDTH 396 0
DWIDTH 11 0
BBX 8 25 2 -6
BITMAP
03
0C
18
38
38
38
3C
1C
1C
18
18
30
C0
30
18
1C
1C
1C
3C
38
38
38
18
0C
03
ENDCHAR
STARTCHAR 007C
ENCODING 124
SWIDTH 216 0
DWIDTH 6 0
BBX 2 25 2 -6
BITMAP
C0
C0
C0
C0
C0
C0
C0
C0
C0
C0
C0
C0
C0
C0
C0
C0
C0
C0
C0
C0
C0
C0
C0
C0
C0
ENDCHAR
STARTCHAR 007D
ENCODING 125
SWIDTH 396 0
DWIDTH 11 0
BBX 8 25 1 -6
BITMAP
E0
30
18
1C
1C
1C
3C
38
38
18
18
0C
03
0C
18
18
38
38
3C
1C
1C
1C
18
30
C0
ENDCHAR
STARTCHAR 007E
ENCODING 126
SWIDTH 504 0
DWIDTH 14 0
BBX 15 5 0 5
BITMAP
1802
7F02
4FC6
81FC
8038
ENDCHAR
STARTCHAR 00A0
ENCODING 160
SWIDTH 252 0
DWIDTH 7 0
BBX 0 0 0 0
BITMAP
ENDCHAR
STARTCHAR 00A1
ENCODING 161
SWIDTH 324 0
DWIDTH 9 0
BBX 5 19 2 -6
BITMAP
70
F8
F8
70
00
00
20
20
20
20
30
70
70
70
78
78
F8
F8
70
ENDCHAR
STARTCHAR 00A2
ENCODING 162
SWIDTH 504 0
DWIDTH 14 0
BBX 10 23 2 -5
BITMAP
0080
0080
0080
0100
0100
1F00
3380
73C0
E7C0
E580
E400
F800
F800
F800
F800
7840
7F80
3F00
2000
4000
4000
8000
8000
ENDCHAR
STARTCHAR 00A3
ENCODING 163
SWIDTH 504 0
DWIDTH 14 0
BBX 13 19 0 0
BITMAP
03C0
06E0
0C70
1E70
1E70
1E00
1E00
1E00
7FC0
7FC0
0E00
0E00
0E00
0E00
0600
7E18
4FF8
CFF8
79F0
ENDCHAR
STARTCHAR 00A4
ENCODING 164
SWIDTH 504 0
DWIDTH 14 0
BBX 14 13 0 3
BITMAP
4008
EFDC
7FF8
3070
6030
6018
6018
6018
6018
3030
3870
7FF8
4798
ENDCHAR
STARTCHAR 00A5
ENCODING 165
SWIDTH 504 0
DWIDTH 14 0
BBX 14 18 0 0
BITMAP
FC38
7C10
3C10
3C10
1E20
1E20
1E20
0F40
0F40
0FC0
FFFC
0780
0780
FFFC
0780
0780
0780
3FF0
ENDCHAR
STARTCHAR 00A6
ENCODING 166
SWIDTH 216 0
DWIDTH 6 0
BBX 2 25 2 -6
BITMAP
C0
C0
C0
C0
C0
C0
C0
C0
C0
C0
00
00
00
00
00
C0
C0
C0
C0
C0
C0
C0
C0
C0
C0
ENDCHAR
STARTCHAR 00A7
ENCODING 167
SWIDTH 504 0
DWIDTH 14 0
BBX 12 25 1 -6
BITMAP
0F00
39C0
30C0
70E0
70C0
7800
3C00
1F00
1F80
27C0
63E0
E0E0
E070
F070
7860
7E60
3FC0
0F80
07C0
01E0
30E0
70E0
70C0
30C0
1F00
ENDCHAR
STARTCHAR 00A8
ENCODING 168
SWIDTH 324 0
DWIDTH 9 0
BBX 9 3 0 16
BITMAP
F380
F780
6300
ENDCHAR
STARTCHAR 00A9
ENCODING 169
SWIDTH 756 0
DWIDTH 21 0
BBX 19 19 1 0
BITMAP
01F000
07BC00
180300
300180
61F480
470C40
C60460
8E0460
8E0020
8E0020
8E0020
8E0020
8E0060
470440
4398C0
206080
300100
0C0600
07FC00
ENDCHAR
STARTCHAR 00AA
ENCODING 170
SWIDTH 288 0
DWIDTH 8 0
BBX 7 8 1 11
BITMAP
38
CC
CC
1C
6C
CC
CC
FE
ENDCHAR
STARTCHAR 00AB
ENCODING 171
SWIDTH 504 0
DWIDTH 14 0
BBX 12 13 1 0
BITMAP
0410
0C30
1860
3860
70C0
71C0
E380
F3C0
71C0
38E0
1860
0C30
0410
ENDCHAR
STARTCHAR 00AC
ENCODING 172
SWIDTH 576 0
DWIDTH 16 0
BBX 14 6 1 6
BITMAP
FFFC
FC04
0004
0004
0004
0004
ENDCHAR
STARTCHAR 00AD
ENCODING 173
SWIDTH 324 0
DWIDTH 9 0
BBX 8 3 1 5
BITMAP
FF
FF
FF
ENDCHAR
STARTCHAR 00AE
ENCODING 174
SWIDTH 756 0
DWIDTH 21 0
BBX 19 19 1 0
BITMAP
01F000
07BC00
180300
300180
6FF080
471840
C71C60
871C60
871C20
877820
87F020
877020
873860
471C40
479CC0
200080
300100
0C0600
07FC00
ENDCHAR
STARTCHAR 00AF
ENCODING 175
SWIDTH 504 0
DWIDTH 14 0
BBX 14 2 0 20
BITMAP
FFFC
FFFC
ENDCHAR
STARTCHAR 00B0
ENCODING 176
SWIDTH 396 0
DWIDTH 11 0
BBX 9 10 1 9
BITMAP
1C00
7F00
E380
C180
C180
C180
C180
6300
7F00
0800
ENDCHAR
STARTCHAR 00B1
ENCODING 177
SWIDTH 540 0
DWIDTH 15 0
BBX 15 15 0 2
BITMAP
0180
0180
0180
0180
0180
0180
0180
FFFE
FFFE
0180
0180
0180
0180
FFFE
FFFE
ENDCHAR
STARTCHAR 00B2
ENCODING 178
SWIDTH 288 0
DWIDTH 8 0
BBX 7 10 1 9
BITMAP
30
FC
9C
1C
1C
18
30
62
7C
FC
ENDCHAR
STARTCHAR 00B3
ENCODING 179
SWIDTH 288 0
DWIDTH 8 0
BBX 8 10 0 9
BITMAP
1C
7E
0E
0E
0C
1E
07
06
C6
FC
ENDCHAR
STARTCHAR 00B4
ENCODING 180
SWIDTH 324 0
DWIDTH 9 0
BBX 5 5 3 14
BITMAP
78
70
60
C0
80
ENDCHAR
STARTCHAR 00B5
ENCODING 181
SWIDTH 576 0
DWIDTH 16 0
BBX 15 19 1 -6
BITMAP
78F0
78F0
78F0
78F0
78F0
78F0
78F0
78F0
78F0
78F2
78F4
7FFC
7E78
4000
6000
E000
E000
E000
E000
ENDCHAR
STARTCHAR 00B6
ENCODING 182
SWIDTH 540 0
DWIDTH 15 0
BBX 15 24 0 -6
BITMAP
1FFE
3F98
7F98
FF90
FF90
FF90
FF90
FF90
7F90
7F90
3F90
0F90
0190
0190
0190
0190
0190
0190
0190
0190
0190
0190
0190
0190
ENDCHAR
STARTCHAR 00B7
ENCODING 183
SWIDTH 252 0
DWIDTH 7 0
BBX 5 4 1 7
BITMAP
70
F8
F8
70
ENDCHAR
STARTCHAR 00B8
ENCODING 184
SWIDTH 324 0
DWIDTH 9 0
BBX 5 5 2 -5
BITMAP
20
70
38
30
F0
ENDCHAR
STARTCHAR 00B9
ENCODING 185
SWIDTH 288 0
DWIDTH 8 0
BBX 5 10 1 9
BITMAP
18
78
B8
38
38
38
38
38
38
78
ENDCHAR
STARTCHAR 00BA
ENCODING 186
SWIDTH 324 0
DWIDTH 9 0
BBX 7 8 1 11
BITMAP
38
66
C6
C6
C6
C6
C6
7C
ENDCHAR
STARTCHAR 00BB
ENCODING 187
SWIDTH 504 0
DWIDTH 14 0
BBX 12 13 1 0
BITMAP
8200
C300
4180
6180
30C0
38E0
1C70
38F0
38E0
71C0
6180
C300
8200
ENDCHAR
STARTCHAR 00BC
ENCODING 188
SWIDTH 756 0
DWIDTH 21 0
BBX 19 20 1 -1
BITMAP
180180
780300
B80300
380600
380C00
380C00
381800
381000
383000
786000
0040C0
00C0C0
0181C0
0102C0
0304C0
0608C0
040FE0
0C0FE0
1800C0
1000C0
ENDCHAR
STARTCHAR 00BD
ENCODING 189
SWIDTH 756 0
DWIDTH 21 0
BBX 19 20 1 -1
BITMAP
180180
780300
B80600
380600
380C00
381800
381800
383000
386000
786000
00C7C0
0187C0
0188E0
0300C0
0600C0
060180
0C0300
180220
1807E0
300FE0
ENDCHAR
STARTCHAR 00BE
ENCODING 190
SWIDTH 756 0
DWIDTH 21 0
BBX 20 20 0 -1
BITMAP
1C00C0
7E0180
0E0180
0E0300
0C0600
1E0600
060C00
060800
C61800
FC3000
002060
006060
00C0E0
008160
018260
030460
0207F0
0607F0
0C0060
080060
ENDCHAR
STARTCHAR 00BF
ENCODING 191
SWIDTH 504 0
DWIDTH 14 0
BBX 10 19 2 -6
BITMAP
0E00
1F00
1F00
0E00
0000
0000
0400
0400
0400
0800
3800
7000
F000
F1C0
F1C0
F1C0
F1C0
7980
3F00
ENDCHAR
STARTCHAR 00C0
ENCODING 192
SWIDTH 720 0
DWIDTH 20 0
BBX 20 25 0 0
BITMAP
03C000
01C000
00E000
006000
002000
000000
000000
006000
006000
007000
00F000
00F800
01F800
017800
027C00
023C00
063E00
041E00
0C1F00
0FFF00
080F80
100F80
1007C0
3007C0
FC1FF0
ENDCHAR
STARTCHAR 00C1
ENCODING 193
SWIDTH 720 0
DWIDTH 20 0
BBX 20 25 0 0
BITMAP
003C00
003800
007000
006000
004000
000000
000000
006000
006000
007000
00F000
00F800
01F800
017800
027C00
023C00
063E00
041E00
0C1F00
0FFF00
080F80
100F80
1007C0
3007C0
FC1FF0
ENDCHAR
STARTCHAR 00C2
ENCODING 194
SWIDTH 720 0
DWIDTH 20 0
BBX 20 25 0 0
BITMAP
00F000
00F000
01F800
019800
030C00
000400
000000
006000
006000
007000
00F000
00F800
01F800
017800
027C00
023C00
063E00
041E00
0C1F00
0FFF00
080F80
100F80
1007C0
3007C0
FC1FF0
ENDCHAR
STARTCHAR 00C3
ENCODING 195
SWIDTH 720 0
DWIDTH 20 0
BBX 20 24 0 0
BITMAP
01C000
03FC00
03FC00
023800
000000
000000
006000
006000
007000
00F000
00F800
01F800
017800
027C00
023C00
063E00
041E00
0C1F00
0FFF00
080F80
100F80
1007C0
3007C0
FC1FF0
ENDCHAR
STARTCHAR 00C4
ENCODING 196
SWIDTH 720 0
DWIDTH 20 0
BBX 20 24 0 0
BITMAP
010C00
039C00
039C00
010800
000000
000000
006000
006000
007000
00F000
00F800
01F800
017800
027C00
023C00
063E00
041E00
0C1F00
0FFF00
080F80
100F80
1007C0
3007C0
FC1FF0
ENDCHAR
STARTCHAR 00C5
ENCODING 197
SWIDTH 720 0
DWIDTH 20 0
BBX 20 23 0 0
BITMAP
00F000
008800
010800
008800
00F000
006000
006000
007000
00F000
00F800
01F800
017800
027C00
023C00
063E00
041E00
0C1F00
0FFF00
080F80
100F80
1007C0
3007C0
FC1FF0
ENDCHAR
STARTCHAR 00C6
ENCODING 198
SWIDTH 1008 0
DWIDTH 28 0
BBX 26 18 0 0
BITMAP
007FFF80
00178180
00378080
00278080
00478480
00478400
00878C00
01878C00
0107FC00
03FF9C00
06078C00
04078400
08078400
08078040
10078040
300780C0
3007C1C0
FC3FFFC0
ENDCHAR
STARTCHAR 00C7
ENCODING 199
SWIDTH 720 0
DWIDTH 20 0
BBX 18 24 1 -5
BITMAP
00F840
07CFC0
0F03C0
1E00C0
3C00C0
7C0040
780040
F80000
F80000
F80000
F80000
F80000
F80000
780000
7C0000
3C0080
1E0080
0F0300
07FC00
004000
006000
007000
007000
00E000
ENDCHAR
STARTCHAR 00C8
ENCODING 200
SWIDTH 684 0
DWIDTH 19 0
BBX 16 25 1 0
BITMAP
0F00
0780
0380
0180
00C0
0000
0000
FFFE
3E06
3E02
3E02
3E22
3E20
3E20
3E60
3FE0
3EE0
3E20
3E20
3E20
3E01
3E01
3E03
3E0F
FFFF
ENDCHAR
STARTCHAR 00C9
ENCODING 201
SWIDTH 684 0
DWIDTH 19 0
BBX 16 25 1 0
BITMAP
00F0
00E0
00C0
0180
0100
0000
0000
FFFE
3E06
3E02
3E02
3E22
3E20
3E20
3E60
3FE0
3EE0
3E20
3E20
3E20
3E01
3E01
3E03
3E0F
FFFF
ENDCHAR
STARTCHAR 00CA
ENCODING 202
SWIDTH 684 0
DWIDTH 19 0
BBX 16 25 1 0
BITMAP
01C0
03C0
03E0
0670
0C30
0008
0000
FFFE
3E06
3E02
3E02
3E22
3E20
3E20
3E60
3FE0
3EE0
3E20
3E20
3E20
3E01
3E01
3E03
3E0F
FFFF
ENDCHAR
STARTCHAR 00CB
ENCODING 203
SWIDTH 684 0
DWIDTH 19 0
BBX 16 24 1 0
BITMAP
0630
0F78
0E78
0630
0000
0000
FFFE
3E06
3E02
3E02
3E22
3E20
3E20
3E60
3FE0
3EE0
3E20
3E20
3E20
3E01
3E01
3E03
3E0F
FFFF
ENDCHAR
STARTCHAR 00CC
ENCODING 204
SWIDTH 396 0
DWIDTH 11 0
BBX 9 25 1 0
BITMAP
F000
7800
3800
1800
0C00
0000
0000
FF80
3E00
3E00
3E00
3E00
3E00
3E00
3E00
3E00
3E00
3E00
3E00
3E00
3E00
3E00
3E00
3E00
FF80
ENDCHAR
STARTCHAR 00CD
ENCODING 205
SWIDTH 396 0
DWIDTH 11 0
BBX 9 25 1 0
BITMAP
0F00
0E00
0C00
1800
1000
0000
0000
FF80
3E00
3E00
3E00
3E00
3E00
3E00
3E00
3E00
3E00
3E00
3E00
3E00
3E00
3E00
3E00
3E00
FF80
ENDCHAR
STARTCHAR 00CE
ENCODING 206
SWIDTH 396 0
DWIDTH 11 0
BBX 9 25 1 0
BITMAP
1C00
3E00
3E00
6700
C300
0080
0000
FF80
3E00
3E00
3E00
3E00
3E00
3E00
3E00
3E00
3E00
3E00
3E00
3E00
3E00
3E00
3E00
3E00
FF80
ENDCHAR
STARTCHAR 00CF
ENCODING 207
SWIDTH 396 0
DWIDTH 11 0
BBX 9 24 1 0
BITMAP
6300
F780
F780
6300
0000
0000
FF80
3E00
3E00
3E00
3E00
3E00
3E00
3E00
3E00
3E00
3E00
3E00
3E00
3E00
3E00
3E00
3E00
FF80
ENDCHAR
STARTCHAR 00D0
ENCODING 208
SWIDTH 720 0
DWIDTH 20 0
BBX 19 18 0 0
BITMAP
7FFC00
1E1F00
1E0F80
1E07C0
1E07C0
1E03E0
1E03E0
1E03E0
FFF3E0
1F03E0
1F03E0
1F03E0
1F03C0
1F03C0
1F0780
1F0F00
1F1E00
FFF800
ENDCHAR
STARTCHAR 00D1
ENCODING 209
SWIDTH 720 0
DWIDTH 20 0
BBX 19 24 0 0
BITMAP
01C000
03FC00
03FC00
003800
000000
000000
7F03E0
1F0080
1F8080
1FC080
17E080
13F080
11F080
10F880
10FC80
107E80
103F80
101F80
100F80
100780
100780
100380
100180
FE0080
ENDCHAR
STARTCHAR 00D2
ENCODING 210
SWIDTH 792 0
DWIDTH 22 0
BBX 20 25 1 0
BITMAP
03C000
01C000
00E000
006000
002000
000000
00F000
071E00
1E0700
3C0380
3C03C0
7803E0
7801E0
F801E0
F801F0
F801F0
F801F0
F801E0
F801E0
7803E0
7C03C0
3C03C0
1C0780
0E0F00
07FC00
ENDCHAR
STARTCHAR 00D3
ENCODING 211
SWIDTH 792 0
DWIDTH 22 0
BBX 20 25 1 0
BITMAP
003C00
007800
007000
006000
00C000
000000
00F000
071E00
1E0700
3C0380
3C03C0
7803E0
7801E0
F801E0
F801F0
F801F0
F801F0
F801E0
F801E0
7803E0
7C03C0
3C03C0
1C0780
0E0F00
07FC00
ENDCHAR
STARTCHAR 00D4
ENCODING 212
SWIDTH 792 0
DWIDTH 22 0
BBX 20 25 1 0
BITMAP
00F000
00F000
01F800
019800
030C00
000400
00F000
071E00
1E0700
3C0380
3C03C0
7803E0
7801E0
F801E0
F801F0
F801F0
F801F0
F801E0
F801E0
7803E0
7C03C0
3C03C0
1C0780
0E0F00
07FC00
ENDCHAR
STARTCHAR 00D5
ENCODING 213
SWIDTH 792 0
DWIDTH 22 0
BBX 20 24 1 0
BITMAP
01C400
03FC00
03FC00
047800
000000
00F000
071E00
1E0700
3C0380
3C03C0
7803E0
7801E0
F801E0
F801F0
F801F0
F801F0
F801E0
F801E0
7803E0
7C03C0
3C03C0
1C0780
0E0F00
07FC00
ENDCHAR
STARTCHAR 00D6
ENCODING 214
SWIDTH 792 0
DWIDTH 22 0
BBX 20 24 1 0
BITMAP
031800
039C00
039C00
031800
000000
00F000
071E00
1E0700
3C0380
3C03C0
7803E0
7801E0
F801E0
F801F0
F801F0
F801F0
F801E0
F801E0
7803E0
7C03C0
3C03C0
1C0780
0E0F00
07FC00
ENDCHAR
STARTCHAR 00D7
ENCODING 215
SWIDTH 576 0
DWIDTH 16 0
BBX 12 12 2 3
BITMAP
4020
E070
70E0
39C0
1F80
0F00
0F00
1F80
39C0
70E0
E070
4020
ENDCHAR
STARTCHAR 00D8
ENCODING 216
SWIDTH 792 0
DWIDTH 22 0
BBX 20 20 1 -1
BITMAP
01F060
079E40
1E0780
3C0780
3C03C0
7807E0
780FE0
F819E0
F831F0
F821F0
F841F0
F881E0
F901E0
7A03E0
7E03C0
3C03C0
1E0780
1E0F00
27FC00
400000
ENDCHAR
STARTCHAR 00D9
ENCODING 217
SWIDTH 720 0
DWIDTH 20 0
BBX 18 25 1 0
BITMAP
078000
03C000
01C000
00C000
006000
000000
000000
FF87C0
3E0100
3C0100
3C0100
3C0100
3C0100
3C0100
3C0100
3C0100
3C0100
3C0100
3C0100
3C0100
3E0100
3E0300
1E0200
1F0400
07F800
ENDCHAR
STARTCHAR 00DA
ENCODING 218
SWIDTH 720 0
DWIDTH 20 0
BBX 18 25 1 0
BITMAP
007800
00F000
00E000
00C000
018000
000000
000000
FF87C0
3E0100
3C0100
3C0100
3C0100
3C0100
3C0100
3C0100
3C0100
3C0100
3C0100
3C0100
3C0100
3E0100
3E0300
1E0200
1F0400
07F800
ENDCHAR
STARTCHAR 00DB
ENCODING 219
SWIDTH 720 0
DWIDTH 20 0
BBX 18 25 1 0
BITMAP
00E000
01F000
01F000
03B800
020800
000400
000000
FF87C0
3E0100
3C0100
3C0100
3C0100
3C0100
3C0100
3C0100
3C0100
3C0100
3C0100
3C0100
3C0100
3E0100
3E0300
1E0200
1F0400
07F800
ENDCHAR
STARTCHAR 00DC
ENCODING 220
SWIDTH 720 0
DWIDTH 20 0
BBX 18 24 1 0
BITMAP
021800
073800
073800
021000
000000
000000
FF87C0
3E0100
3C0100
3C0100
3C0100
3C0100
3C0100
3C0100
3C0100
3C0100
3C0100
3C0100
3C0100
3E0100
3E0300
1E0200
1F0400
07F800
ENDCHAR
STARTCHAR 00DD
ENCODING 221
SWIDTH 720 0
DWIDTH 20 0
BBX 18 25 1 0
BITMAP
003C00
007800
007000
006000
00C000
000000
000000
FF03C0
7C0180
3E0100
1E0200
1F0200
0F8400
0F8C00
07C800
07D000
03F000
03E000
01E000
01E000
01E000
01E000
01E000
01E000
0FFC00
ENDCHAR
STARTCHAR 00DE
ENCODING 222
SWIDTH 612 0
DWIDTH 17 0
BBX 15 18 1 0
BITMAP
7F00
3C00
3C00
3C00
3FF0
3C7C
3C3E
3C3E
3C3E
3C3E
3C3E
3C3C
3CF8
3FE0
3C00
3C00
3C00
FF80
ENDCHAR
STARTCHAR 00DF
ENCODING 223
SWIDTH 540 0
DWIDTH 15 0
BBX 13 19 1 0
BITMAP
0780
1CE0
38F0
78F0
78F0
78F0
78F0
79C0
78E0
7870
7878
7878
7878
7878
7878
7878
7BB0
7BB0
F9E0
ENDCHAR
STARTCHAR 00E0
ENCODING 224
SWIDTH 504 0
DWIDTH 14 0
BBX 12 19 1 0
BITMAP
3C00
1C00
0E00
0600
0200
0000
1F80
33C0
71E0
71E0
71E0
03E0
0DE0
39E0
71E0
F1E0
F3E0
FDF0
79E0
ENDCHAR
STARTCHAR 00E1
ENCODING 225
SWIDTH 504 0
DWIDTH 14 0
BBX 12 19 1 0
BITMAP
03C0
0780
0700
0600
0C00
0000
1F80
33C0
71E0
71E0
71E0
03E0
0DE0
39E0
71E0
F1E0
F3E0
FDF0
79E0
ENDCHAR
STARTCHAR 00E2
ENCODING 226
SWIDTH 504 0
DWIDTH 14 0
BBX 12 19 1 0
BITMAP
0F00
1F80
1980
30C0
2040
0000
1F80
33C0
71E0
71E0
71E0
03E0
0DE0
39E0
71E0
F1E0
F3E0
FDF0
79E0
ENDCHAR
STARTCHAR 00E3
ENCODING 227
SWIDTH 504 0
DWIDTH 14 0
BBX 12 19 1 0
BITMAP
0800
3F40
3FC0
2780
0000
0000
1F80
33C0
71E0
71E0
71E0
03E0
0DE0
39E0
71E0
F1E0
F3E0
FDF0
79E0
ENDCHAR
STARTCHAR 00E4
ENCODING 228
SWIDTH 504 0
DWIDTH 14 0
BBX 12 19 1 0
BITMAP
1080
39C0
39C0
39C0
0000
0000
1F80
33C0
71E0
71E0
71E0
03E0
0DE0
39E0
71E0
F1E0
F3E0
FDF0
79E0
ENDCHAR
STARTCHAR 00E5
ENCODING 229
SWIDTH 504 0
DWIDTH 14 0
BBX 12 19 1 0
BITMAP
0F00
1180
1080
1980
0F00
0000
1F80
33C0
71E0
71E0
71E0
03E0
0DE0
39E0
71E0
F1E0
F3E0
FDF0
79E0
ENDCHAR
STARTCHAR 00E6
ENCODING 230
SWIDTH 720 0
DWIDTH 20 0
BBX 18 13 1 0
BITMAP
1F9F00
31F380
71E1C0
71E1C0
71E1C0
03FFC0
0DE000
19E000
71E000
70F000
F0F840
FF7F80
7C3F00
ENDCHAR
STARTCHAR 00E7
ENCODING 231
SWIDTH 432 0
DWIDTH 12 0
BBX 10 18 1 -5
BITMAP
0F80
33C0
71C0
71C0
F0C0
F000
F000
F000
F000
F800
7C40
3FC0
1F80
0400
0E00
0600
0600
1E00
ENDCHAR
STARTCHAR 00E8
ENCODING 232
SWIDTH 432 0
DWIDTH 12 0
BBX 11 19 1 0
BITMAP
3C00
1C00
0E00
0600
0200
0000
0F00
3180
71C0
71C0
F1E0
FFE0
F000
F000
F000
F820
7840
7F80
3F00
ENDCHAR
STARTCHAR 00E9
ENCODING 233
SWIDTH 432 0
DWIDTH 12 0
BBX 11 19 1 0
BITMAP
0780
0700
0E00
0C00
0800
0000
0F00
3180
71C0
71C0
F1E0
FFE0
F000
F000
F000
F820
7840
7F80
3F00
ENDCHAR
STARTCHAR 00EA
ENCODING 234
SWIDTH 432 0
DWIDTH 12 0
BBX 11 19 1 0
BITMAP
1E00
1F00
3B00
2180
4080
0000
0F00
3180
71C0
71C0
F1E0
FFE0
F000
F000
F000
F820
7840
7F80
3F00
ENDCHAR
STARTCHAR 00EB
ENCODING 235
SWIDTH 432 0
DWIDTH 12 0
BBX 11 19 1 0
BITMAP
0080
7BC0
7BC0
3180
0000
0000
0F00
3180
71C0
71C0
F1E0
FFE0
F000
F000
F000
F820
7840
7F80
3F00
ENDCHAR
STARTCHAR 00EC
ENCODING 236
SWIDTH 288 0
DWIDTH 8 0
BBX 7 19 0 0
BITMAP
F0
70
38
18
08
00
7C
3C
3C
3C
3C
3C
3C
3C
3C
3C
3C
3C
7E
ENDCHAR
STARTCHAR 00ED
ENCODING 237
SWIDTH 288 0
DWIDTH 8 0
BBX 7 19 1 0
BITMAP
1E
3C
38
30
60
00
F8
78
78
78
78
78
78
78
78
78
78
78
FC
ENDCHAR
STARTCHAR 00EE
ENCODING 238
SWIDTH 288 0
DWIDTH 8 0
BBX 8 19 0 0
BITMAP
3C
7C
6E
C3
81
00
7C
3C
3C
3C
3C
3C
3C
3C
3C
3C
3C
3C
7E
ENDCHAR
STARTCHAR 00EF
ENCODING 239
SWIDTH 288 0
DWIDTH 8 0
BBX 8 19 0 0
BITMAP
42
E7
E7
E7
00
00
7C
3C
3C
3C
3C
3C
3C
3C
3C
3C
3C
3C
7E
ENDCHAR
STARTCHAR 00F0
ENCODING 240
SWIDTH 504 0
DWIDTH 14 0
BBX 12 19 1 0
BITMAP
2000
1980
0E00
0F00
3380
01C0
0DC0
3BE0
70E0
70F0
F0F0
F0F0
F0F0
F0F0
F0F0
F0E0
70E0
31C0
1F80
ENDCHAR
STARTCHAR 00F1
ENCODING 241
SWIDTH 540 0
DWIDTH 15 0
BBX 14 19 1 0
BITMAP
0420
1F20
1FE0
23C0
0000
0000
F9E0
7BF0
7CF0
78F0
78F0
78F0
78F0
78F0
78F0
78F0
78F0
78F0
FDFC
ENDCHAR
STARTCHAR 00F2
ENCODING 242
SWIDTH 504 0
DWIDTH 14 0
BBX 12 19 1 0
BITMAP
3C00
1C00
0E00
0600
0200
0000
1F00
39C0
70E0
70E0
F0F0
F0F0
F0F0
F0F0
F0F0
70E0
70E0
39C0
1F80
ENDCHAR
STARTCHAR 00F3
ENCODING 243
SWIDTH 504 0
DWIDTH 14 0
BBX 12 19 1 0
BITMAP
03C0
0780
0700
0600
0C00
0000
1F00
39C0
70E0
70E0
F0F0
F0F0
F0F0
F0F0
F0F0
70E0
70E0
39C0
1F80
ENDCHAR
STARTCHAR 00F4
ENCODING 244
SWIDTH 504 0
DWIDTH 14 0
BBX 12 19 1 0
BITMAP
0F00
1F00
1980
30C0
2040
0000
1F00
39C0
70E0
70E0
F0F0
F0F0
F0F0
F0F0
F0F0
70E0
70E0
39C0
1F80
ENDCHAR
STARTCHAR 00F5
ENCODING 245
SWIDTH 504 0
DWIDTH 14 0
BBX 12 19 1 0
BITMAP
0800
3F40
3FC0
2780
0000
0000
1F00
39C0
70E0
70E0
F0F0
F0F0
F0F0
F0F0
F0F0
70E0
70E0
39C0
1F80
ENDCHAR
STARTCHAR 00F6
ENCODING 246
SWIDTH 504 0
DWIDTH 14 0
BBX 12 19 1 0
BITMAP
1080
39C0
39C0
39C0
0000
0000
1F00
39C0
70E0
70E0
F0F0
F0F0
F0F0
F0F0
F0F0
70E0
70E0
39C0
1F80
ENDCHAR
STARTCHAR 00F7
ENCODING 247
SWIDTH 540 0
DWIDTH 15 0
BBX 15 12 0 3
BITMAP
0180
0380
0100
0000
0000
FFFE
FFFE
0000
0000
0380
0380
0100
ENDCHAR
STARTCHAR 00F8
ENCODING 248
SWIDTH 504 0
DWIDTH 14 0
BBX 12 13 1 0
BITMAP
0F90
39E0
70E0
70E0
F1F0
F2F0
F6F0
F4F0
F8F0
70F0
70E0
78C0
9F80
ENDCHAR
STARTCHAR 00F9
ENCODING 249
SWIDTH 540 0
DWIDTH 15 0
BBX 14 19 1 0
BITMAP
1E00
0E00
0600
0300
0100
0000
F9F0
78F0
78F0
78F0
78F0
78F0
78F0
78F0
78F0
78F0
78F0
3FF0
3EFC
ENDCHAR
STARTCHAR 00FA
ENCODING 250
SWIDTH 540 0
DWIDTH 15 0
BBX 14 19 1 0
BITMAP
01C0
0380
0300
0200
0400
0000
F9F0
78F0
78F0
78F0
78F0
78F0
78F0
78F0
78F0
78F0
78F0
3FF0
3EFC
ENDCHAR
STARTCHAR 00FB
ENCODING 251
SWIDTH 540 0
DWIDTH 15 0
BBX 14 19 1 0
BITMAP
0780
0F80
0DC0
18C0
3020
0000
F9F0
78F0
78F0
78F0
78F0
78F0
78F0
78F0
78F0
78F0
78F0
3FF0
3EFC
ENDCHAR
STARTCHAR 00FC
ENCODING 252
SWIDTH 540 0
DWIDTH 15 0
BBX 14 19 1 0
BITMAP
0840
1CE0
3DE0
18E0
0000
0000
F9F0
78F0
78F0
78F0
78F0
78F0
78F0
78F0
78F0
78F0
78F0
3FF0
3EFC
ENDCHAR
STARTCHAR 00FD
ENCODING 253
SWIDTH 504 0
DWIDTH 14 0
BBX 14 25 0 -6
BITMAP
00E0
01C0
0180
0180
0300
0000
FE7C
7C10
3C10
3C10
1E20
1E20
0F40
0F40
07C0
0780
0780
0300
0300
0100
0200
7200
7400
7400
3800
ENDCHAR
STARTCHAR 00FE
ENCODING 254
SWIDTH 540 0
DWIDTH 15 0
BBX 13 25 1 -6
BITMAP
F800
7800
7800
7800
7800
7800
7BC0
7FF0
7870
7878
7878
7878
7878
7878
7878
7878
7870
7CF0
7BE0
7800
7800
7800
7800
7800
FE00
ENDCHAR
STARTCHAR 00FF
ENCODING 255
SWIDTH 504 0
DWIDTH 14 0
BBX 14 25 0 -6
BITMAP
0800
1CF0
1EF0
1C60
0000
0000
FE7C
7C10
3C10
3C10
1E20
1E20
0F40
0F40
07C0
0780
0780
0300
0300
0100
0200
7200
7400
7400
3800
ENDCHAR
STARTCHAR 0100
ENCODING 256
SWIDTH 720 0
DWIDTH 20 0
BBX 20 23 0 0
BITMAP
03FC00
03FC00
03FC00
000000
000000
006000
006000
007000
00F000
00F800
01F800
017800
027C00
023C00
063E00
041E00
0C1F00
0FFF00
080F80
100F80
1007C0
3007C0
FC1FF0
ENDCHAR
STARTCHAR 0101
ENCODING 257
SWIDTH 504 0
DWIDTH 14 0
BBX 12 17 1 0
BITMAP
7FC0
7FC0
0000
0000
1F80
33C0
71E0
71E0
71E0
03E0
0DE0
39E0
71E0
F1E0
F3E0
FDF0
79E0
ENDCHAR
STARTCHAR 0102
ENCODING 258
SWIDTH 720 0
DWIDTH 20 0
BBX 20 24 0 0
BITMAP
020400
03FC00
01F800
00F000
000000
000000
006000
006000
007000
00F000
00F800
01F800
017800
027C00
023C00
063E00
041E00
0C1F00
0FFF00
080F80
100F80
1007C0
3007C0
FC1FF0
ENDCHAR
STARTCHAR 0103
ENCODING 259
SWIDTH 504 0
DWIDTH 14 0
BBX 12 19 1 0
BITMAP
2040
30C0
1FC0
1F80
0000
0000
1F80
33C0
71E0
71E0
71E0
03E0
0DE0
39E0
71E0
F1E0
F3E0
FDF0
79E0
ENDCHAR
STARTCHAR 0104
ENCODING 260
SWIDTH 720 0
DWIDTH 20 0
BBX 20 24 0 -5
BITMAP
006000
006000
007000
00F000
00F800
01F800
017800
027C00
023C00
063E00
041E00
0C1F00
0FFF00
080F80
100F80
1007C0
3007C0
FC1FF0
000300
000600
000600
000700
000780
0003E0
ENDCHAR
STARTCHAR 0105
ENCODING 261
SWIDTH 504 0
DWIDTH 14 0
BBX 13 19 1 -6
BITMAP
1F80
33C0
71E0
71E0
71E0
03E0
0DE0
39E0
71E0
F1E0
F3E0
FDF0
79E0
0080
0180
0380
0380
01E0
00F8
ENDCHAR
STARTCHAR 0106
ENCODING 262
SWIDTH 720 0
DWIDTH 20 0
BBX 18 25 1 0
BITMAP
003C00
003800
007000
006000
004000
000000
00F840
07CFC0
0F03C0
1E00C0
3C00C0
7C0040
780040
F80000
F80000
F80000
F80000
F80000
F80000
780000
7C0000
3C0080
1E0080
0F0300
07FC00
ENDCHAR
STARTCHAR 0107
ENCODING 263
SWIDTH 432 0
DWIDTH 12 0
BBX 10 19 1 0
BITMAP
0380
0700
0600
0400
0C00
0000
0F80
33C0
71C0
71C0
F0C0
F000
F000
F000
F000
F800
7C40
3FC0
1F80
ENDCHAR
STARTCHAR 0108
ENCODING 264
SWIDTH 720 0
DWIDTH 20 0
BBX 18 25 1 0
BITMAP
00F000
01F000
01B800
031800
060400
000000
00F840
07CFC0
0F03C0
1E00C0
3C00C0
7C0040
780040
F80000
F80000
F80000
F80000
F80000
F80000
780000
7C0000
3C0080
1E0080
0F0300
07FC00
ENDCHAR
STARTCHAR 0109
ENCODING 265
SWIDTH 432 0
DWIDTH 12 0
BBX 10 19 1 0
BITMAP
1E00
1F00
3B00
3180
40C0
0000
0F80
33C0
71C0
71C0
F0C0
F000
F000
F000
F000
F800
7C40
3FC0
1F80
ENDCHAR
STARTCHAR 010A
ENCODING 266
SWIDTH 720 0
DWIDTH 20 0
BBX 18 24 1 0
BITMAP
00E000
00F000
00E000
006000
000000
00F840
07CFC0
0F03C0
1E00C0
3C00C0
7C0040
780040
F80000
F80000
F80000
F80000
F80000
F80000
780000
7C0000
3C0080
1E0080
0F0300
07FC00
ENDCHAR
STARTCHAR 010B
ENCODING 267
SWIDTH 432 0
DWIDTH 12 0
BBX 10 19 1 0
BITMAP
0400
0E00
0F00
0E00
0000
0000
0F80
33C0
71C0
71C0
F0C0
F000
F000
F000
F000
F800
7C40
3FC0
1F80
ENDCHAR
STARTCHAR 010C
ENCODING 268
SWIDTH 720 0
DWIDTH 20 0
BBX 18 25 1 0
BITMAP
020400
030C00
019800
01F800
00F000
000000
00F840
07CFC0
0F03C0
1E00C0
3C00C0
7C0040
780040
F80000
F80000
F80000
F80000
F80000
F80000
780000
7C0000
3C0080
1E0080
0F0300
07FC00
ENDCHAR
STARTCHAR 010D
ENCODING 269
SWIDTH 432 0
DWIDTH 12 0
BBX 10 19 1 0
BITMAP
30C0
1980
1F80
0F00
0F00
0000
0F80
33C0
71C0
71C0
F0C0
F000
F000
F000
F000
F800
7C40
3FC0
1F80
ENDCHAR
STARTCHAR 010E
ENCODING 270
SWIDTH 720 0
DWIDTH 20 0
BBX 19 25 0 0
BITMAP
060400
031800
03B800
01F000
01F000
000000
000000
7FFC00
1E1F00
1E0F80
1E0780
1E07C0
1E03C0
1E03E0
1E03E0
1E03E0
1E03E0
1E03E0
1E03E0
1E03C0
1E07C0
1E0780
1E0F00
1F1E00
FFF800
ENDCHAR
STARTCHAR 010F
ENCODING 271
SWIDTH 720 0
DWIDTH 20 0
BBX 19 19 1 0
BITMAP
0001C0
01F3E0
00F3E0
0073E0
007060
007060
1E7040
39F080
78F100
707000
F07000
F07000
F07000
F07000
F07000
F07000
78F000
797800
3E7800
ENDCHAR
STARTCHAR 0110
ENCODING 272
SWIDTH 720 0
DWIDTH 20 0
BBX 19 18 0 0
BITMAP
7FFC00
1E1F00
1E0F80
1E07C0
1E07C0
1E03E0
1E03E0
1E03E0
FFF3E0
1F03E0
1F03E0
1F03E0
1F03C0
1F03C0
1F0780
1F0F00
1F1E00
FFF800
ENDCHAR
STARTCHAR 0111
ENCODING 273
SWIDTH 540 0
DWIDTH 15 0
BBX 14 18 1 0
BITMAP
01F0
00F0
0FFC
00F0
00F0
1EF0
39F0
78F0
70F0
F0F0
F0F0
F0F0
F0F0
F0F0
F0F0
78F0
79F8
3EF8
ENDCHAR
STARTCHAR 0112
ENCODING 274
SWIDTH 684 0
DWIDTH 19 0
BBX 16 23 1 0
BITMAP
0FF8
0FF8
0FF8
0000
0000
FFFE
3E06
3E02
3E02
3E22
3E20
3E20
3E60
3FE0
3EE0
3E20
3E20
3E20
3E01
3E01
3E03
3E0F
FFFF
ENDCHAR
STARTCHAR 0113
ENCODING 275
SWIDTH 432 0
DWIDTH 12 0
BBX 11 17 1 0
BITMAP
7FC0
7FC0
0000
0000
0F00
3180
71C0
71C0
F1E0
FFE0
F000
F000
F000
F820
7840
7F80
3F00
ENDCHAR
STARTCHAR 0114
ENCODING 276
SWIDTH 684 0
DWIDTH 19 0
BBX 16 25 1 0
BITMAP
0810
0C10
07F0
07E0
01C0
0000
0000
FFFE
3E06
3E02
3E02
3E22
3E20
3E20
3E60
3FE0
3EE0
3E20
3E20
3E20
3E01
3E01
3E03
3E0F
FFFF
ENDCHAR
STARTCHAR 0115
ENCODING 277
SWIDTH 432 0
DWIDTH 12 0
BBX 11 19 1 0
BITMAP
4080
6180
3F80
1F00
0000
0000
0F00
3180
71C0
71C0
F1E0
FFE0
F000
F000
F000
F820
7840
7F80
3F00
ENDCHAR
STARTCHAR 0116
ENCODING 278
SWIDTH 684 0
DWIDTH 19 0
BBX 16 24 1 0
BITMAP
01C0
03C0
03C0
0180
0000
0000
FFFE
3E06
3E02
3E02
3E22
3E20
3E20
3E60
3FE0
3EE0
3E20
3E20
3E20
3E01
3E01
3E03
3E0F
FFFF
ENDCHAR
STARTCHAR 0117
ENCODING 279
SWIDTH 432 0
DWIDTH 12 0
BBX 11 19 1 0
BITMAP
0400
0E00
1E00
0E00
0000
0000
0F00
3180
71C0
71C0
F1E0
FFE0
F000
F000
F000
F820
7840
7F80
3F00
ENDCHAR
STARTCHAR 0118
ENCODING 280
SWIDTH 684 0
DWIDTH 19 0
BBX 16 24 1 -6
BITMAP
FFFE
3E06
3E02
3E02
3E22
3E20
3E20
3E60
3FE0
3EE0
3E20
3E20
3E20
3E01
3E01
3E03
3E0F
FFFF
0010
0030
0070
0070
003C
001F
ENDCHAR
STARTCHAR 0119
ENCODING 281
SWIDTH 432 0
DWIDTH 12 0
BBX 11 19 1 -6
BITMAP
0F00
3180
71C0
71C0
F1E0
FFE0
F000
F000
F000
F820
7840
7F80
3F00
0C00
1800
1800
1C00
1E00
0F80
ENDCHAR
STARTCHAR 011A
ENCODING 282
SWIDTH 684 0
DWIDTH 19 0
BBX 16 25 1 0
BITMAP
0810
0C30
0660
07C0
03C0
0000
0000
FFFE
3E06
3E02
3E02
3E22
3E20
3E20
3E60
3FE0
3EE0
3E20
3E20
3E20
3E01
3E01
3E03
3E0F
FFFF
ENDCHAR
STARTCHAR 011B
ENCODING 283
SWIDTH 432 0
DWIDTH 12 0
BBX 11 19 1 0
BITMAP
20C0
3980
1F00
1F00
0E00
0000
0F00
3180
71C0
71C0
F1E0
FFE0
F000
F000
F000
F820
7840
7F80
3F00
ENDCHAR
STARTCHAR 011C
ENCODING 284
SWIDTH 792 0
DWIDTH 22 0
BBX 20 25 1 0
BITMAP
007000
00F800
01D800
018C00
030400
000000
00F800
078FC0
0E01C0
1E00C0
3C0040
7C0040
780000
F80000
F80000
F80000
F80000
F81FF0
F803C0
7803C0
7C03C0
3C03C0
1E03C0
0F03C0
03FF00
ENDCHAR
STARTCHAR 011D
ENCODING 285
SWIDTH 504 0
DWIDTH 14 0
BBX 12 25 1 -6
BITMAP
0F00
1F80
1980
30C0
2040
0000
1FF0
71F0
71C0
F0E0
F0E0
F0E0
71E0
71C0
1F80
2000
6000
7000
7FE0
7FF0
3FF0
E030
C030
E060
3F80
ENDCHAR
STARTCHAR 011E
ENCODING 286
SWIDTH 792 0
DWIDTH 22 0
BBX 20 24 1 0
BITMAP
030400
01FC00
01F800
00F000
000000
00F800
078FC0
0E01C0
1E00C0
3C0040
7C0040
780000
F80000
F80000
F80000
F80000
F81FF0
F803C0
7803C0
7C03C0
3C03C0
1E03C0
0F03C0
03FF00
ENDCHAR
STARTCHAR 011F
ENCODING 287
SWIDTH 504 0
DWIDTH 14 0
BBX 12 25 1 -6
BITMAP
2040
30C0
1FC0
0F80
0000
0000
1FF0
71F0
71C0
F0E0
F0E0
F0E0
71E0
71C0
1F80
2000
6000
7000
7FE0
7FF0
3FF0
E030
C030
E060
3F80
ENDCHAR
STARTCHAR 0120
ENCODING 288
SWIDTH 792 0
DWIDTH 22 0
BBX 20 24 1 0
BITMAP
00E000
00F000
00F000
006000
000000
00F800
078FC0
0E01C0
1E00C0
3C0040
7C0040
780000
F80000
F80000
F80000
F80000
F81FF0
F803C0
7803C0
7C03C0
3C03C0
1E03C0
0F03C0
03FF00
ENDCHAR
STARTCHAR 0121
ENCODING 289
SWIDTH 504 0
DWIDTH 14 0
BBX 12 24 1 -5
BITMAP
0F00
0F00
0F00
0000
0000
1FF0
71F0
71C0
F0E0
F0E0
F0E0
71E0
71C0
1F80
2000
6000
7000
7FE0
7FF0
3FF0
E030
C030
E060
3F80
ENDCHAR
STARTCHAR 0122
ENCODING 290
SWIDTH 792 0
DWIDTH 22 0
BBX 20 24 1 -5
BITMAP
00F800
078FC0
0E01C0
1E00C0
3C0040
7C0040
780000
F80000
F80000
F80000
F80000
F81FF0
F807C0
7803C0
7C03C0
3C03C0
1E03C0
0F03C0
03FF00
004000
007000
007000
003000
00E000
ENDCHAR
STARTCHAR 0123
ENCODING 291
SWIDTH 504 0
DWIDTH 14 0
BBX 12 26 1 -6
BITMAP
0200
0400
0800
0E00
0F00
0400
0000
1FF0
71F0
71C0
F1E0
F0E0
F0E0
F1E0
71C0
1F80
2000
6000
7000
7FE0
7FF0
3FF0
E030
C030
E060
3F80
ENDCHAR
STARTCHAR 0124
ENCODING 292
SWIDTH 792 0
DWIDTH 22 0
BBX 20 25 1 0
BITMAP
00F000
01F000
01B800
030800
020400
000000
000000
FF9FF0
3E07C0
3E07C0
3E07C0
3E07C0
3E07C0
3E07C0
3E07C0
3FFFC0
3E07C0
3E07C0
3E07C0
3E07C0
3E07C0
3E07C0
3E07C0
3E07C0
FFBFF0
ENDCHAR
STARTCHAR 0125
ENCODING 293
SWIDTH 540 0
DWIDTH 15 0
BBX 14 25 1 0
BITMAP
0780
0F80
0DC0
18C0
1020
0000
0000
F800
7800
7800
7800
7800
79E0
7BF0
7CF0
78F0
78F0
78F0
78F0
78F0
78F0
78F0
78F0
78F0
FDFC
ENDCHAR
STARTCHAR 0126
ENCODING 294
SWIDTH 792 0
DWIDTH 22 0
BBX 20 18 1 0
BITMAP
FF9FF0
3E07C0
FFFFF0
3E07C0
3E07C0
3E07C0
3E07C0
3E07C0
3FFFC0
3E07C0
3E07C0
3E07C0
3E07C0
3E07C0
3E07C0
3E07C0
3E07C0
FFBFF0
ENDCHAR
STARTCHAR 0127
ENCODING 295
SWIDTH 540 0
DWIDTH 15 0
BBX 14 18 1 0
BITMAP
F800
7800
FF80
7800
7800
79E0
7BF0
7CF0
78F0
78F0
78F0
78F0
78F0
78F0
78F0
78F0
78F0
FDFC
ENDCHAR
STARTCHAR 0128
ENCODING 296
SWIDTH 396 0
DWIDTH 11 0
BBX 9 24 1 0
BITMAP
3880
7F80
FF00
8600
0000
0000
FF80
3E00
3E00
3E00
3E00
3E00
3E00
3E00
3E00
3E00
3E00
3E00
3E00
3E00
3E00
3E00
3E00
FF80
ENDCHAR
STARTCHAR 0129
ENCODING 297
SWIDTH 288 0
DWIDTH 8 0
BBX 9 19 -1 0
BITMAP
1080
7E80
7F80
8F00
0000
0000
3E00
1E00
1E00
1E00
1E00
1E00
1E00
1E00
1E00
1E00
1E00
1E00
3F00
ENDCHAR
STARTCHAR 012A
ENCODING 298
SWIDTH 396 0
DWIDTH 11 0
BBX 9 23 1 0
BITMAP
FF80
FF80
FF80
0000
0000
FF80
3E00
3E00
3E00
3E00
3E00
3E00
3E00
3E00
3E00
3E00
3E00
3E00
3E00
3E00
3E00
3E00
FF80
ENDCHAR
STARTCHAR 012B
ENCODING 299
SWIDTH 288 0
DWIDTH 8 0
BBX 9 17 -1 0
BITMAP
FF80
FF80
0000
0000
3E00
1E00
1E00
1E00
1E00
1E00
1E00
1E00
1E00
1E00
1E00
1E00
3F00
ENDCHAR
STARTCHAR 012C
ENCODING 300
SWIDTH 396 0
DWIDTH 11 0
BBX 9 25 1 0
BITMAP
8000
C100
7F00
3E00
1C00
0000
0000
FF80
3E00
3E00
3E00
3E00
3E00
3E00
3E00
3E00
3E00
3E00
3E00
3E00
3E00
3E00
3E00
3E00
FF80
ENDCHAR
STARTCHAR 012D
ENCODING 301
SWIDTH 288 0
DWIDTH 8 0
BBX 8 19 0 0
BITMAP
81
C3
FE
7C
00
00
7C
3C
3C
3C
3C
3C
3C
3C
3C
3C
3C
3C
7E
ENDCHAR
STARTCHAR 012E
ENCODING 302
SWIDTH 396 0
DWIDTH 11 0
BBX 9 24 1 -6
BITMAP
FF80
3E00
3E00
3E00
3E00
3E00
3E00
3E00
3E00
3E00
3E00
3E00
3E00
3E00
3E00
3E00
3E00
FF80
1000
3000
3000
3800
3C00
1F00
ENDCHAR
STARTCHAR 012F
ENCODING 303
SWIDTH 288 0
DWIDTH 8 0
BBX 6 25 1 -6
BITMAP
30
78
78
78
00
00
F8
78
78
78
78
78
78
78
78
78
78
78
FC
60
C0
E0
E0
F0
7C
ENDCHAR
STARTCHAR 0130
ENCODING 304
SWIDTH 396 0
DWIDTH 11 0
BBX 9 24 1 0
BITMAP
1800
3C00
3C00
1C00
0000
0000
FF80
3E00
3E00
3E00
3E00
3E00
3E00
3E00
3E00
3E00
3E00
3E00
3E00
3E00
3E00
3E00
3E00
FF80
ENDCHAR
STARTCHAR 0131
ENCODING 305
SWIDTH 288 0
DWIDTH 8 0
BBX 6 13 1 0
BITMAP
F8
78
78
78
78
78
78
78
78
78
78
78
FC
ENDCHAR
STARTCHAR 0132
ENCODING 306
SWIDTH 828 0
DWIDTH 23 0
BBX 21 18 1 0
BITMAP
FF8FF8
3E01E0
3E01E0
3E01E0
3E01E0
3E01E0
3E01E0
3E01E0
3E01E0
3E01E0
3E01E0
3E01E0
3E21E0
3E71E0
3EF1E0
3EF1E0
3E63C0
FFBF80
ENDCHAR
STARTCHAR 0133
ENCODING 307
SWIDTH 540 0
DWIDTH 15 0
BBX 12 25 1 -6
BITMAP
3060
78F0
78F0
7870
0000
0000
F9F0
78F0
78F0
78F0
78F0
78F0
78F0
78F0
78F0
78F0
78F0
78F0
FCF0
00F0
00F0
0670
0670
0660
03C0
ENDCHAR
STARTCHAR 0134
ENCODING 308
SWIDTH 504 0
DWIDTH 14 0
BBX 13 25 0 0
BITMAP
01E0
03E0
0370
0618
0408
0000
0000
0FF8
01E0
01E0
01E0
01E0
01E0
01E0
01E0
01E0
01E0
01E0
01E0
21E0
71E0
F1E0
F1E0
63C0
3F80
ENDCHAR
STARTCHAR 0135
ENCODING 309
SWIDTH 324 0
DWIDTH 9 0
BBX 10 25 -1 -6
BITMAP
0F00
1F00
1B80
3180
6040
0000
3F00
0F00
0F00
0F00
0F00
0F00
0F00
0F00
0F00
0F00
0F00
0F00
0F00
0F00
0F00
4F00
EE00
EE00
7C00
ENDCHAR
STARTCHAR 0136
ENCODING 310
SWIDTH 792 0
DWIDTH 22 0
BBX 21 23 1 -5
BITMAP
FF07E0
3E0180
3E0300
3E0600
3E0800
3E3000
3E6000
3EE000
3FF000
3FF800
3EFC00
3E7C00
3E3E00
3E1F00
3E1F80
3E0FC0
3E07E0
FF9FF8
000000
00E000
007000
007000
00E000
ENDCHAR
STARTCHAR 0137
ENCODING 311
SWIDTH 540 0
DWIDTH 15 0
BBX 15 23 1 -5
BITMAP
F800
7800
7800
7800
7800
78FC
7870
7860
78C0
7980
7B80
7FC0
7FC0
79E0
79F0
78F0
7878
FCFE
0000
0700
0380
0380
0F00
ENDCHAR
STARTCHAR 0138
ENCODING 312
SWIDTH 540 0
DWIDTH 15 0
BBX 15 13 1 0
BITMAP
FEFC
7870
7860
78C0
7980
7B80
7FC0
7FC0
79E0
78F0
78F8
7878
FEFE
ENDCHAR
STARTCHAR 0139
ENCODING 313
SWIDTH 684 0
DWIDTH 19 0
BBX 16 25 1 0
BITMAP
0780
0700
0600
0C00
0800
0000
0000
7F80
3E00
3E00
3E00
3E00
3E00
3E00
3E00
3E00
3E00
3E00
3E00
3E01
3E01
3E01
3E03
3E07
FFFF
ENDCHAR
STARTCHAR 013A
ENCODING 314
SWIDTH 288 0
DWIDTH 8 0
BBX 7 25 1 0
BITMAP
1E
3C
38
30
60
00
00
F8
78
78
78
78
78
78
78
78
78
78
78
78
78
78
78
78
FC
ENDCHAR
STARTCHAR 013B
ENCODING 315
SWIDTH 684 0
DWIDTH 19 0
BBX 16 23 1 -5
BITMAP
7F80
3E00
3E00
3E00
3E00
3E00
3E00
3E00
3E00
3E00
3E00
3E00
3E01
3E01
3E01
3E03
3E07
FFFF
0000
01C0
00C0
00C0
0380
ENDCHAR
STARTCHAR 013C
ENCODING 316
SWIDTH 288 0
DWIDTH 8 0
BBX 6 23 1 -5
BITMAP
F8
78
78
78
78
78
78
78
78
78
78
78
78
78
78
78
78
FC
00
70
38
38
70
ENDCHAR
STARTCHAR 013D
ENCODING 317
SWIDTH 684 0
DWIDTH 19 0
BBX 16 19 1 0
BITMAP
000E
7F9F
3E1F
3E1F
3E01
3E01
3E02
3E06
3E08
3E00
3E00
3E00
3E00
3E01
3E01
3E01
3E03
3E07
FFFF
ENDCHAR
STARTCHAR 013E
ENCODING 318
SWIDTH 468 0
DWIDTH 13 0
BBX 12 19 1 0
BITMAP
00C0
F9E0
7BF0
79F0
78B0
7820
7820
7840
7980
7800
7800
7800
7800
7800
7800
7800
7800
7800
FC00
ENDCHAR
STARTCHAR 013F
ENCODING 319
SWIDTH 684 0
DWIDTH 19 0
BBX 16 18 1 0
BITMAP
7F80
3E00
3E00
3E00
3E00
3E00
3E00
3E10
3E38
3E38
3E10
3E00
3E01
3E01
3E01
3E03
3E07
FFFF
ENDCHAR
STARTCHAR 0140
ENCODING 320
SWIDTH 396 0
DWIDTH 11 0
BBX 10 18 1 0
BITMAP
F800
7800
7800
7800
7800
7800
7800
79C0
79C0
79C0
7880
7800
7800
7800
7800
7800
7800
FC00
ENDCHAR
STARTCHAR 0141
ENCODING 321
SWIDTH 684 0
DWIDTH 19 0
BBX 16 18 1 0
BITMAP
FF80
3E00
3E00
3E00
3E40
3E80
3F00
3E00
3E00
3E00
7E00
FE00
BE01
3E01
3E01
3E03
3E07
FFFF
ENDCHAR
STARTCHAR 0142
ENCODING 322
SWIDTH 288 0
DWIDTH 8 0
BBX 6 18 1 0
BITMAP
F8
78
78
78
78
78
7C
78
78
78
F8
78
78
78
78
78
78
FC
ENDCHAR
STARTCHAR 0143
ENCODING 323
SWIDTH 720 0
DWIDTH 20 0
BBX 19 25 0 0
BITMAP
003C00
003800
007000
006000
004000
000000
000000
7F03E0
1F0080
1F8080
1FC080
17E080
13F080
11F080
10F880
10FC80
107E80
103F80
101F80
100F80
100780
100780
100380
100180
FE0080
ENDCHAR
STARTCHAR 0144
ENCODING 324
SWIDTH 540 0
DWIDTH 15 0
BBX 14 19 1 0
BITMAP
03C0
0380
0300
0600
0400
0000
F9E0
7BF0
7CF0
78F0
78F0
78F0
78F0
78F0
78F0
78F0
78F0
78F0
FDFC
ENDCHAR
STARTCHAR 0145
ENCODING 325
SWIDTH 720 0
DWIDTH 20 0
BBX 19 23 0 -5
BITMAP
7F03E0
1F0080
1F8080
1FC080
17E080
13F080
11F080
10F880
10FC80
107E80
103F80
101F80
100F80
100780
100780
100380
100180
FE0080
000000
00F000
007000
003000
00E000
ENDCHAR
STARTCHAR 0146
ENCODING 326
SWIDTH 540 0
DWIDTH 15 0
BBX 14 18 1 -5
BITMAP
F9E0
7BF0
7CF0
78F0
78F0
78F0
78F0
78F0
78F0
78F0
78F0
78F0
FDFC
0000
0700
0380
0380
0F00
ENDCHAR
STARTCHAR 0147
ENCODING 327
SWIDTH 720 0
DWIDTH 20 0
BBX 19 25 0 0
BITMAP
020400
030C00
01D800
00F800
00F000
000000
000000
7F03E0
1F0080
1F8080
1FC080
17E080
13F080
11F080
10F880
10FC80
107E80
103F80
101F80
100F80
100780
100780
100380
100180
FE0080
ENDCHAR
STARTCHAR 0148
ENCODING 328
SWIDTH 540 0
DWIDTH 15 0
BBX 14 19 1 0
BITMAP
1060
1CC0
0FC0
0F80
0700
0000
F9E0
7BF0
7CF0
78F0
78F0
78F0
78F0
78F0
78F0
78F0
78F0
78F0
FDFC
ENDCHAR
STARTCHAR 0149
ENCODING 329
SWIDTH 720 0
DWIDTH 20 0
BBX 20 19 2 0
BITMAP
700000
F80000
F80000
F80000
180000
180000
13E780
31EFC0
40F1C0
00E1E0
00E1E0
00E1E0
00E1E0
00E1E0
00E1E0
00E1E0
00E1E0
00F1E0
03FBF0
ENDCHAR
STARTCHAR 014A
ENCODING 330
SWIDTH 756 0
DWIDTH 21 0
BBX 19 19 1 0
BITMAP
003C00
FE7E00
3E8700
3F0380
3E03C0
3E03C0
3E03E0
3E03E0
3E03E0
3E03E0
3E03E0
3E03E0
3E03E0
3E03E0
3E03C0
3E33C0
3E7B80
3E3B00
FFBE00
ENDCHAR
STARTCHAR 014B
ENCODING 331
SWIDTH 540 0
DWIDTH 15 0
BBX 12 19 1 -6
BITMAP
F9E0
7BF0
7CF0
7870
7870
7870
7870
7870
7870
7870
7870
7870
FC70
0070
0070
0670
0670
06E0
03C0
ENDCHAR
STARTCHAR 014C
ENCODING 332
SWIDTH 792 0
DWIDTH 22 0
BBX 20 23 1 0
BITMAP
07FC00
07FC00
07FC00
000000
00F000
071E00
1E0700
3C0380
3C03C0
7803E0
7801E0
F801E0
F801F0
F801F0
F801F0
F801E0
F801E0
7803E0
7C03C0
3C03C0
1C0780
0E0F00
07FC00
ENDCHAR
STARTCHAR 014D
ENCODING 333
SWIDTH 504 0
DWIDTH 14 0
BBX 12 17 1 0
BITMAP
3FC0
3FC0
0000
0000
1F00
39C0
70E0
70E0
F0F0
F0F0
F0F0
F0F0
F0F0
70E0
70E0
39C0
1F80
ENDCHAR
STARTCHAR 014E
ENCODING 334
SWIDTH 792 0
DWIDTH 22 0
BBX 20 25 1 0
BITMAP
020400
020C00
03F800
01F800
00E000
000000
00F000
071E00
1E0700
3C0380
3C03C0
7803E0
7801E0
F801E0
F801F0
F801F0
F801F0
F801E0
F801E0
7803E0
7C03C0
3C03C0
1C0780
0E0F00
07FC00
ENDCHAR
STARTCHAR 014F
ENCODING 335
SWIDTH 504 0
DWIDTH 14 0
BBX 12 19 1 0
BITMAP
2040
30C0
1F80
1F80
0000
0000
1F00
39C0
70E0
70E0
F0F0
F0F0
F0F0
F0F0
F0F0
70E0
70E0
39C0
1F80
ENDCHAR
STARTCHAR 0150
ENCODING 336
SWIDTH 792 0
DWIDTH 22 0
BBX 20 25 1 0
BITMAP
00E600
00CE00
00CC00
018800
011800
000000
00F000
071E00
1E0700
3C0380
3C03C0
7803E0
7801E0
F801E0
F801F0
F801F0
F801F0
F801E0
F801E0
7803E0
7C03C0
3C03C0
1C0780
0E0F00
07FC00
ENDCHAR
STARTCHAR 0151
ENCODING 337
SWIDTH 504 0
DWIDTH 14 0
BBX 12 19 1 0
BITMAP
0E60
0CC0
08C0
1880
1100
0000
1F00
39C0
70E0
70E0
F0F0
F0F0
F0F0
F0F0
F0F0
70E0
70E0
39C0
1F80
ENDCHAR
STARTCHAR 0152
ENCODING 338
SWIDTH 1008 0
DWIDTH 28 0
BBX 25 19 1 0
BITMAP
00F00000
07FFFF00
1E0F0300
3C0F0100
3C0F0100
780F1100
780F1000
F80F1000
F80F1000
F80FF000
F80F3000
F80F1000
F80F1000
780F1000
780F0080
3C0F0080
1C0F0180
0E1F8380
07FFFF80
ENDCHAR
STARTCHAR 0153
ENCODING 339
SWIDTH 720 0
DWIDTH 20 0
BBX 18 13 1 0
BITMAP
0F1F00
39F380
70F1C0
70F1C0
F0F1C0
F0FFC0
F0F000
F0F000
F0F000
F0F000
70F840
39FF80
1F9F00
ENDCHAR
STARTCHAR 0154
ENCODING 340
SWIDTH 720 0
DWIDTH 20 0
BBX 19 25 1 0
BITMAP
007800
007000
00E000
00C000
008000
000000
000000
7FFC00
3C1E00
3C0F00
3C0F00
3C0F00
3C0F00
3C0F00
3C1E00
3CFC00
3FF800
3CF800
3C7C00
3C3E00
3C3E00
3C1F00
3C0F80
3E0FC0
FF87E0
ENDCHAR
STARTCHAR 0155
ENCODING 341
SWIDTH 432 0
DWIDTH 12 0
BBX 11 19 1 0
BITMAP
0780
0700
0E00
0C00
0800
0000
F8E0
7BE0
7BE0
7C40
7C00
7800
7800
7800
7800
7800
7800
7800
FE00
ENDCHAR
STARTCHAR 0156
ENCODING 342
SWIDTH 720 0
DWIDTH 20 0
BBX 19 23 1 -5
BITMAP
7FFC00
3C1E00
3C0F00
3C0F00
3C0F00
3C0F00
3C0F00
3C1E00
3CFC00
3FF800
3CF800
3C7C00
3C3E00
3C3E00
3C1F00
3C0F80
3E0FC0
FF87E0
000000
00E000
006000
006000
01C000
ENDCHAR
STARTCHAR 0157
ENCODING 343
SWIDTH 432 0
DWIDTH 12 0
BBX 11 18 1 -5
BITMAP
F8E0
7BE0
7BE0
7C40
7C00
7800
7800
7800
7800
7800
7800
7800
FE00
0000
0E00
0600
0600
1C00
ENDCHAR
STARTCHAR 0158
ENCODING 344
SWIDTH 720 0
DWIDTH 20 0
BBX 19 25 1 0
BITMAP
040800
061800
033000
03F000
01E000
000000
000000
7FFC00
3C1E00
3C0F00
3C0F00
3C0F00
3C0F00
3C0F00
3C1E00
3CFC00
3FF800
3CF800
3C7C00
3C3E00
3C3E00
3C1F00
3C0F80
3E0FC0
FF87E0
ENDCHAR
STARTCHAR 0159
ENCODING 345
SWIDTH 432 0
DWIDTH 12 0
BBX 11 19 1 0
BITMAP
2080
3180
1F00
1F00
0E00
0000
F8E0
7BE0
7BE0
7C40
7C00
7800
7800
7800
7800
7800
7800
7800
FE00
ENDCHAR
STARTCHAR 015A
ENCODING 346
SWIDTH 540 0
DWIDTH 15 0
BBX 13 25 1 0
BITMAP
03C0
03C0
0380
0700
0600
0000
0F00
38F0
7030
6030
7010
F010
7C00
7F00
7FC0
3FE0
0FF0
03F8
81F8
8078
C038
C038
E038
F070
DFE0
ENDCHAR
STARTCHAR 015B
ENCODING 347
SWIDTH 396 0
DWIDTH 11 0
BBX 9 19 1 0
BITMAP
0F00
0E00
1C00
1800
1000
0000
3D00
6300
E100
F100
F800
7E00
7F00
3F00
0F80
8780
C380
C300
FE00
ENDCHAR
STARTCHAR 015C
ENCODING 348
SWIDTH 540 0
DWIDTH 15 0
BBX 13 25 1 0
BITMAP
0780
0F80
0DC0
18C0
1020
0000
0F00
38F0
7030
6030
7010
F010
7C00
7F00
7FC0
3FE0
0FF0
03F8
81F8
8078
C038
C038
E038
F070
DFE0
ENDCHAR
STARTCHAR 015D
ENCODING 349
SWIDTH 396 0
DWIDTH 11 0
BBX 9 19 1 0
BITMAP
3C00
3E00
7700
6300
8180
0000
3D00
6300
E100
F100
F800
7E00
7F00
3F00
0F80
8780
C380
C300
FE00
ENDCHAR
STARTCHAR 015E
ENCODING 350
SWIDTH 540 0
DWIDTH 15 0
BBX 13 24 1 -5
BITMAP
0F00
38F0
7030
6030
7010
F010
7C00
7F00
7FC0
3FE0
0FF0
03F8
81F8
8078
C038
C038
E038
F070
DFE0
0200
0300
0380
0380
0700
ENDCHAR
STARTCHAR 015F
ENCODING 351
SWIDTH 396 0
DWIDTH 11 0
BBX 9 18 1 -5
BITMAP
3D00
6300
E100
F100
F800
7E00
7F00
3F00
0F80
8780
C380
C300
FE00
0800
1C00
0C00
0C00
3800
ENDCHAR
STARTCHAR 0160
ENCODING 352
SWIDTH 540 0
DWIDTH 15 0
BBX 13 25 1 0
BITMAP
3020
18C0
1DC0
0F80
0780
0000
0F00
38F0
7030
6030
7010
F010
7C00
7F00
7FC0
3FE0
0FF0
03F8
81F8
8078
C038
C038
E038
F070
DFE0
ENDCHAR
STARTCHAR 0161
ENCODING 353
SWIDTH 396 0
DWIDTH 11 0
BBX 9 19 1 0
BITMAP
C100
6700
7E00
3C00
3C00
0000
3D00
6300
E100
F100
F800
7E00
7F00
3F00
0F80
8780
C380
C300
FE00
ENDCHAR
STARTCHAR 0162
ENCODING 354
SWIDTH 684 0
DWIDTH 19 0
BBX 17 25 1 -7
BITMAP
FFFF80
C3C380
83C180
83C080
83C080
03C000
03C000
03C000
03C000
03C000
03C000
03C000
03C000
03C000
03C000
03C000
03E000
1FF800
000000
018000
03C000
01C000
004000
008000
010000
ENDCHAR
STARTCHAR 0163
ENCODING 355
SWIDTH 324 0
DWIDTH 9 0
BBX 8 24 1 -7
BITMAP
08
18
18
38
FF
FF
78
78
78
78
78
78
78
78
79
7E
3E
00
18
3C
3C
04
08
30
ENDCHAR
STARTCHAR 0164
ENCODING 356
SWIDTH 684 0
DWIDTH 19 0
BBX 17 25 1 0
BITMAP
081800
043000
076000
03E000
03C000
000000
000000
FFFF80
C3C380
83C180
83C080
83C080
03C000
03C000
03C000
03C000
03C000
03C000
03C000
03C000
03C000
03C000
03C000
03E000
1FF800
ENDCHAR
STARTCHAR 0165
ENCODING 357
SWIDTH 504 0
DWIDTH 14 0
BBX 13 19 1 0
BITMAP
0070
00F8
08F8
18F8
1818
3818
FF10
FF30
7840
7800
7800
7800
7800
7800
7800
7800
7900
7E00
3E00
ENDCHAR
STARTCHAR 0166
ENCODING 358
SWIDTH 684 0
DWIDTH 19 0
BBX 17 18 1 0
BITMAP
FFFF80
C3C180
83C180
83C080
83C080
03C000
03C000
03C000
3FFE00
03C000
03C000
03C000
03C000
03C000
03C000
03C000
03E000
1FF800
ENDCHAR
STARTCHAR 0167
ENCODING 359
SWIDTH 324 0
DWIDTH 9 0
BBX 8 17 1 0
BITMAP
08
18
18
38
FF
FF
78
78
78
FF
78
78
78
78
79
7E
3E
ENDCHAR
STARTCHAR 0168
ENCODING 360
SWIDTH 720 0
DWIDTH 20 0
BBX 18 24 1 0
BITMAP
03C400
07FC00
07F800
047000
000000
000000
FF87C0
3E0100
3C0100
3C0100
3C0100
3C0100
3C0100
3C0100
3C0100
3C0100
3C0100
3C0100
3C0100
3E0100
3E0300
1E0200
1F0400
07F800
ENDCHAR
STARTCHAR 0169
ENCODING 361
SWIDTH 540 0
DWIDTH 15 0
BBX 14 19 1 0
BITMAP
0420
1F20
1FE0
23C0
0000
0000
F9F0
78F0
78F0
78F0
78F0
78F0
78F0
78F0
78F0
78F0
78F0
3FF0
3EFC
ENDCHAR
STARTCHAR 016A
ENCODING 362
SWIDTH 720 0
DWIDTH 20 0
BBX 18 23 1 0
BITMAP
0FF800
0FF800
0FF800
000000
000000
FF87C0
3E0100
3C0100
3C0100
3C0100
3C0100
3C0100
3C0100
3C0100
3C0100
3C0100
3C0100
3C0100
3E0100
3E0300
1E0200
1F0400
07F800
ENDCHAR
STARTCHAR 016B
ENCODING 363
SWIDTH 540 0
DWIDTH 15 0
BBX 14 17 1 0
BITMAP
3FE0
3FE0
0000
0000
F9F0
78F0
78F0
78F0
78F0
78F0
78F0
78F0
78F0
78F0
78F0
3FF0
3EFC
ENDCHAR
STARTCHAR 016C
ENCODING 364
SWIDTH 720 0
DWIDTH 20 0
BBX 18 25 1 0
BITMAP
040800
060800
07F800
03F000
00C000
000000
000000
FF87C0
3E0100
3C0100
3C0100
3C0100
3C0100
3C0100
3C0100
3C0100
3C0100
3C0100
3C0100
3C0100
3E0100
3E0300
1E0200
1F0400
07F800
ENDCHAR
STARTCHAR 016D
ENCODING 365
SWIDTH 540 0
DWIDTH 15 0
BBX 14 19 1 0
BITMAP
1020
1860
1FC0
0F80
0000
0000
F9F0
78F0
78F0
78F0
78F0
78F0
78F0
78F0
78F0
78F0
78F0
3FF0
3EFC
ENDCHAR
STARTCHAR 016E
ENCODING 366
SWIDTH 720 0
DWIDTH 20 0
BBX 18 25 1 0
BITMAP
01E000
011000
011000
011000
01E000
000000
000000
FF87C0
3E0100
3C0100
3C0100
3C0100
3C0100
3C0100
3C0100
3C0100
3C0100
3C0100
3C0100
3C0100
3E0100
3E0300
1E0200
1F0400
07F800
ENDCHAR
STARTCHAR 016F
ENCODING 367
SWIDTH 540 0
DWIDTH 15 0
BBX 14 19 1 0
BITMAP
0780
0880
08C0
0880
0780
0000
F9F0
78F0
78F0
78F0
78F0
78F0
78F0
78F0
78F0
78F0
78F0
3FF0
3EFC
ENDCHAR
STARTCHAR 0170
ENCODING 368
SWIDTH 720 0
DWIDTH 20 0
BBX 18 25 1 0
BITMAP
01CC00
019C00
019800
031000
023000
000000
000000
FF87C0
3E0100
3C0100
3C0100
3C0100
3C0100
3C0100
3C0100
3C0100
3C0100
3C0100
3C0100
3C0100
3E0100
3E0300
1E0200
1F0400
07F800
ENDCHAR
STARTCHAR 0171
ENCODING 369
SWIDTH 540 0
DWIDTH 15 0
BBX 14 19 1 0
BITMAP
0770
0660
0C60
0CC0
0880
0000
F9F0
78F0
78F0
78F0
78F0
78F0
78F0
78F0
78F0
78F0
78F0
3FF0
3EFC
ENDCHAR
STARTCHAR 0172
ENCODING 370
SWIDTH 720 0
DWIDTH 20 0
BBX 18 24 1 -6
BITMAP
FF87C0
3E0100
3E0100
3E0100
3E0100
3E0100
3E0100
3E0100
3E0100
3E0100
3E0100
3E0100
3E0100
3E0100
3E0300
1E0200
1F0400
07F800
004000
00C000
00C000
00E000
00F000
007C00
ENDCHAR
STARTCHAR 0173
ENCODING 371
SWIDTH 540 0
DWIDTH 15 0
BBX 14 19 1 -6
BITMAP
F9F0
78F0
78F0
78F0
78F0
78F0
78F0
78F0
78F0
78F0
78F0
3FF0
3EFC
00C0
00C0
01C0
01C0
00E0
0078
ENDCHAR
STARTCHAR 0174
ENCODING 372
SWIDTH 1008 0
DWIDTH 28 0
BBX 26 25 1 0
BITMAP
001E0000
003E0000
00370000
00618000
00408000
00000000
00000000
FE7F83C0
7C1F0080
7C0F0180
3C0F8100
3E0F8100
1E07C200
1F0FC200
1F0BC200
0F1BE400
0F93E400
0791E800
07E1F800
07E0F800
03C0F000
03C0F000
01C07000
01806000
01802000
ENDCHAR
STARTCHAR 0175
ENCODING 373
SWIDTH 720 0
DWIDTH 20 0
BBX 20 19 0 0
BITMAP
00F000
01F800
01D800
030C00
020400
000000
FEFCF0
7C7860
3C7840
3C7C40
1E7C80
1E5C80
1E9E80
0F9F00
0F0F00
0F0F00
070E00
060600
020600
ENDCHAR
STARTCHAR 0176
ENCODING 374
SWIDTH 720 0
DWIDTH 20 0
BBX 18 25 1 0
BITMAP
00F000
01F000
03B800
031800
060C00
000000
000000
FF03C0
7C0180
3E0100
1E0200
1F0200
0F8400
0F8C00
07C800
07D000
03F000
03E000
01E000
01E000
01E000
01E000
01E000
01E000
0FFC00
ENDCHAR
STARTCHAR 0177
ENCODING 375
SWIDTH 504 0
DWIDTH 14 0
BBX 14 25 0 -6
BITMAP
0780
0FC0
0CC0
1860
1020
0000
FE7C
7C10
3C10
3C10
1E20
1E20
0F40
0F40
07C0
0780
0780
0300
0300
0100
0200
7200
7400
7400
3800
ENDCHAR
STARTCHAR 0178
ENCODING 376
SWIDTH 720 0
DWIDTH 20 0
BBX 18 24 1 0
BITMAP
031800
07BC00
07BC00
031800
000000
000000
FF03C0
7C0180
3E0100
1E0200
1F0200
0F8400
0F8C00
07C800
07D000
03F000
03E000
01E000
01E000
01E000
01E000
01E000
01E000
0FFC00
ENDCHAR
STARTCHAR 0179
ENCODING 377
SWIDTH 684 0
DWIDTH 19 0
BBX 17 25 1 0
BITMAP
007800
00F000
00E000
00C000
018000
000000
000000
7FFE00
703E00
407C00
40FC00
40F800
01F000
01F000
03E000
07C000
07C000
0F8000
1F8080
1F0080
3E0080
3E0180
7C0380
F80700
FFFF00
ENDCHAR
STARTCHAR 017A
ENCODING 378
SWIDTH 432 0
DWIDTH 12 0
BBX 12 19 0 0
BITMAP
03C0
0380
0300
0600
0400
0000
7FF0
61E0
43E0
43C0
07C0
0780
0F00
1F00
1E00
3E10
3C10
7860
FFE0
ENDCHAR
STARTCHAR 017B
ENCODING 379
SWIDTH 684 0
DWIDTH 19 0
BBX 17 24 1 0
BITMAP
00C000
01C000
01E000
01C000
000000
000000
7FFE00
703E00
407C00
40FC00
40F800
01F000
01F000
03E000
07C000
07C000
0F8000
1F8080
1F0080
3E0080
3E0180
7C0380
F80700
FFFF00
ENDCHAR
STARTCHAR 017C
ENCODING 380
SWIDTH 432 0
DWIDTH 12 0
BBX 12 18 0 1
BITMAP
0780
0780
0700
0000
0000
7FF0
61E0
43E0
43C0
07C0
0780
0F00
1F00
1E00
3E10
3C10
7860
FFE0
ENDCHAR
STARTCHAR 017D
ENCODING 381
SWIDTH 684 0
DWIDTH 19 0
BBX 17 25 1 0
BITMAP
081800
043000
076000
03E000
03C000
000000
000000
7FFE00
703E00
407C00
40FC00
40F800
01F000
01F000
03E000
07C000
07C000
0F8000
1F8080
1F0080
3E0080
3E0180
7C0380
F80700
FFFF00
ENDCHAR
STARTCHAR 017E
ENCODING 382
SWIDTH 432 0
DWIDTH 12 0
BBX 12 19 0 0
BITMAP
1060
1CC0
0F80
0F80
0700
0000
7FF0
61E0
43E0
43C0
07C0
0780
0F00
1F00
1E00
3E10
3C10
7860
FFE0
ENDCHAR
STARTCHAR 017F
ENCODING 383
SWIDTH 288 0
DWIDTH 8 0
BBX 11 19 0 0
BITMAP
0780
1DC0
1DE0
3C80
3C00
3C00
3C00
3C00
3C00
3C00
3C00
3C00
3C00
3C00
3C00
3C00
3C00
3C00
FF00
ENDCHAR
STARTCHAR 018F
ENCODING 399
SWIDTH 756 0
DWIDTH 21 0
BBX 19 19 1 0
BITMAP
21F000
3E3C00
381F00
300F00
200780
2007C0
0007C0
0003C0
0003E0
FFFFE0
F803E0
F803C0
F803C0
7807C0
7807C0
780780
3C0F00
1E0E00
07F800
ENDCHAR
STARTCHAR 0192
ENCODING 402
SWIDTH 504 0
DWIDTH 14 0
BBX 14 25 0 -6
BITMAP
0038
004C
00DC
00C0
01C0
01C0
03C0
0FF0
03C0
0380
0780
0780
0780
0780
0700
0F00
0F00
0F00
0F00
0E00
0E00
0E00
CC00
E800
7000
ENDCHAR
STARTCHAR 01A0
ENCODING 416
SWIDTH 792 0
DWIDTH 22 0
BBX 21 20 1 0
BITMAP
000038
00F038
071E18
1E07F0
3C0380
3C03C0
7803E0
7803E0
F801E0
F801F0
F801F0
F801F0
F801E0
F801E0
7803E0
7C03C0
3C03C0
1C0780
0E0F00
07FC00
ENDCHAR
STARTCHAR 01A1
ENCODING 417
SWIDTH 540 0
DWIDTH 15 0
BBX 15 14 1 0
BITMAP
000E
1F8E
39CE
70EC
70F0
F0F0
F0F0
F0F0
F0F0
F0F0
F0E0
70E0
39C0
1F80
ENDCHAR
STARTCHAR 01AF
ENCODING 431
SWIDTH 792 0
DWIDTH 22 0
BBX 22 22 1 0
BITMAP
00001C
00001C
00000C
000018
FF87E0
3E0100
3C0100
3C0100
3C0100
3C0100
3C0100
3C0100
3C0100
3C0100
3C0100
3C0100
3C0100
3E0100
3E0300
1E0200
1F0400
07F800
ENDCHAR
STARTCHAR 01B0
ENCODING 432
SWIDTH 612 0
DWIDTH 17 0
BBX 16 13 1 0
BITMAP
F9F7
78F7
78F3
78F2
78FC
78F0
78F0
78F0
78F0
78F0
78F0
3FF0
3EFC
ENDCHAR
STARTCHAR 01CD
ENCODING 461
SWIDTH 720 0
DWIDTH 20 0
BBX 20 25 0 0
BITMAP
020400
018C00
01D800
00F800
00F000
000000
000000
006000
006000
007000
00F000
00F800
01F800
017800
027C00
023C00
063E00
041E00
0C1F00
0FFF00
080F80
100F80
1007C0
3007C0
FC1FF0
ENDCHAR
STARTCHAR 01CE
ENCODING 462
SWIDTH 504 0
DWIDTH 14 0
BBX 12 19 1 0
BITMAP
30C0
1980
1F80
0F00
0F00
0000
1F80
33C0
71E0
71E0
71E0
03E0
0DE0
39E0
71E0
F1E0
F3E0
FDF0
79E0
ENDCHAR
STARTCHAR 01CF
ENCODING 463
SWIDTH 396 0
DWIDTH 11 0
BBX 9 25 1 0
BITMAP
C180
6300
7600
3E00
3C00
0000
0000
FF80
3E00
3E00
3E00
3E00
3E00
3E00
3E00
3E00
3E00
3E00
3E00
3E00
3E00
3E00
3E00
3E00
FF80
ENDCHAR
STARTCHAR 01D0
ENCODING 464
SWIDTH 288 0
DWIDTH 8 0
BBX 8 19 0 0
BITMAP
C3
66
7E
3C
3C
00
7C
3C
3C
3C
3C
3C
3C
3C
3C
3C
3C
3C
7E
ENDCHAR
STARTCHAR 01D1
ENCODING 465
SWIDTH 792 0
DWIDTH 22 0
BBX 20 25 1 0
BITMAP
020400
031800
01B800
01F000
00F000
000000
00F000
071E00
1E0700
3C0380
3C03C0
7803E0
7801E0
F801E0
F801F0
F801F0
F801F0
F801E0
F801E0
7803E0
7C03C0
3C03C0
1C0780
0E0F00
07FC00
ENDCHAR
STARTCHAR 01D2
ENCODING 466
SWIDTH 504 0
DWIDTH 14 0
BBX 12 19 1 0
BITMAP
30C0
1980
1F80
0F00
0F00
0000
1F00
39C0
70E0
70E0
F0F0
F0F0
F0F0
F0F0
F0F0
70E0
70E0
39C0
1F80
ENDCHAR
STARTCHAR 01D3
ENCODING 467
SWIDTH 720 0
DWIDTH 20 0
BBX 18 25 1 0
BITMAP
060C00
031800
03B000
01F000
01E000
000000
000000
FF87C0
3E0100
3C0100
3C0100
3C0100
3C0100
3C0100
3C0100
3C0100
3C0100
3C0100
3C0100
3C0100
3E0100
3E0300
1E0200
1F0400
07F800
ENDCHAR
STARTCHAR 01D4
ENCODING 468
SWIDTH 540 0
DWIDTH 15 0
BBX 14 19 1 0
BITMAP
1060
18C0
0F80
0F80
0700
0000
F9F0
78F0
78F0
78F0
78F0
78F0
78F0
78F0
78F0
78F0
78F0
3FF0
3EFC
ENDCHAR
STARTCHAR 01D5
ENCODING 469
SWIDTH 720 0
DWIDTH 20 0
BBX 18 25 1 0
BITMAP
03F000
03F000
000000
033000
033000
000000
000000
FF87C0
3E0100
3C0100
3C0100
3C0100
3C0100
3C0100
3C0100
3C0100
3C0100
3C0100
3C0100
3C0100
3E0100
3E0300
1E0200
1F0400
07F800
ENDCHAR
STARTCHAR 01D6
ENCODING 470
SWIDTH 540 0
DWIDTH 15 0
BBX 14 21 1 0
BITMAP
3FE0
3FE0
0000
1840
3CE0
3DE0
18C0
0000
F9F0
78F0
78F0
78F0
78F0
78F0
78F0
78F0
78F0
78F0
78F0
3FF0
3EFC
ENDCHAR
STARTCHAR 01D7
ENCODING 471
SWIDTH 720 0
DWIDTH 20 0
BBX 18 25 1 0
BITMAP
006000
00C000
008000
033000
033000
000000
000000
FF87C0
3E0100
3C0100
3C0100
3C0100
3C0100
3C0100
3C0100
3C0100
3C0100
3C0100
3C0100
3C0100
3E0100
3E0300
1E0200
1F0400
07F800
ENDCHAR
STARTCHAR 01D8
ENCODING 472
SWIDTH 540 0
DWIDTH 15 0
BBX 14 23 1 0
BITMAP
01E0
03C0
0380
0300
0600
1840
3CE0
3DE0
18C0
0000
F9F0
78F0
78F0
78F0
78F0
78F0
78F0
78F0
78F0
78F0
78F0
3FF0
3EFC
ENDCHAR
STARTCHAR 01D9
ENCODING 473
SWIDTH 720 0
DWIDTH 20 0
BBX 18 25 1 0
BITMAP
021000
01E000
00C000
033000
033000
000000
000000
FF87C0
3E0100
3C0100
3C0100
3C0100
3C0100
3C0100
3C0100
3C0100
3C0100
3C0100
3C0100
3C0100
3E0100
3E0300
1E0200
1F0400
07F800
ENDCHAR
STARTCHAR 01DA
ENCODING 474
SWIDTH 540 0
DWIDTH 15 0
BBX 14 24 1 0
BITMAP
3020
1840
1DC0
0F80
0780
0700
1840
3CE0
3DE0
18C0
0000
F9F0
78F0
78F0
78F0
78F0
78F0
78F0
78F0
78F0
78F0
78F0
3FF0
3EFC
ENDCHAR
STARTCHAR 01DB
ENCODING 475
SWIDTH 720 0
DWIDTH 20 0
BBX 18 25 1 0
BITMAP
018000
00C000
004000
033000
033000
000000
000000
FF87C0
3E0100
3C0100
3C0100
3C0100
3C0100
3C0100
3C0100
3C0100
3C0100
3C0100
3C0100
3C0100
3E0100
3E0300
1E0200
1F0400
07F800
ENDCHAR
STARTCHAR 01DC
ENCODING 476
SWIDTH 540 0
DWIDTH 15 0
BBX 14 23 1 0
BITMAP
1E00
0E00
0600
0300
0100
1840
3CE0
3DE0
18C0
0000
F9F0
78F0
78F0
78F0
78F0
78F0
78F0
78F0
78F0
78F0
78F0
3FF0
3EFC
ENDCHAR
STARTCHAR 01FA
ENCODING 506
SWIDTH 720 0
DWIDTH 20 0
BBX 20 29 0 0
BITMAP
003C00
003800
007000
006000
004000
000000
00F000
008800
010800
008800
00F000
006000
006000
007000
00F000
00F800
01F800
017800
027C00
023C00
063E00
041E00
0C1F00
0FFF00
080F80
100F80
1007C0
3007C0
FC1FF0
ENDCHAR
STARTCHAR 01FB
ENCODING 507
SWIDTH 504 0
DWIDTH 14 0
BBX 12 25 1 0
BITMAP
03C0
0780
0700
0600
0C00
0000
0F00
1180
1080
1980
0F00
0000
1F80
33C0
71E0
71E0
71E0
03E0
0DE0
39E0
71E0
F1E0
F3E0
FDF0
79E0
ENDCHAR
STARTCHAR 01FC
ENCODING 508
SWIDTH 1008 0
DWIDTH 28 0
BBX 26 25 0 0
BITMAP
0001E000
0003C000
00038000
00030000
00060000
00000000
00000000
007FFF80
00178180
00378080
00278080
00478480
00478400
00878C00
01878C00
0107FC00
03FF9C00
06078C00
04078400
08078400
08078040
10078040
300780C0
3007C1C0
FC3FFFC0
ENDCHAR
STARTCHAR 01FD
ENCODING 509
SWIDTH 720 0
DWIDTH 20 0
BBX 18 19 1 0
BITMAP
007800
007000
00E000
00C000
008000
000000
1F9F00
31F380
71E1C0
71E1C0
71E1C0
03FFC0
0DE000
19E000
71E000
70F000
F0F840
FF7F80
7C3F00
ENDCHAR
STARTCHAR 01FE
ENCODING 510
SWIDTH 792 0
DWIDTH 22 0
BBX 20 26 1 -1
BITMAP
003C00
007800
007000
006000
00C000
000000
01F060
079E40
1E0780
3C0780
3C03C0
7807E0
780FE0
F819E0
F831F0
F821F0
F841F0
F881E0
F901E0
7A03E0
7E03C0
3C03C0
1E0780
1E0F00
27FC00
400000
ENDCHAR
STARTCHAR 01FF
ENCODING 511
SWIDTH 504 0
DWIDTH 14 0
BBX 12 19 1 0
BITMAP
03C0
0780
0700
0600
0C00
0000
0F90
39E0
70E0
70E0
F1F0
F2F0
F6F0
F4F0
F8F0
70F0
70E0
78C0
9F80
ENDCHAR
STARTCHAR 0218
ENCODING 536
SWIDTH 540 0
DWIDTH 15 0
BBX 13 26 1 -7
BITMAP
0F00
38F0
7030
6030
7010
F010
7C00
7F00
7FC0
3FE0
0FF0
03F8
81F8
8078
C038
C038
E038
F070
DFE0
0000
0200
0700
0700
0100
0300
0400
ENDCHAR
STARTCHAR 0219
ENCODING 537
SWIDTH 396 0
DWIDTH 11 0
BBX 9 20 1 -7
BITMAP
3D00
6300
E100
F100
F800
7E00
7F00
3F00
0F80
8780
C380
C300
FE00
0000
1800
3C00
1C00
0400
0800
1000
ENDCHAR
STARTCHAR 021A
ENCODING 538
SWIDTH 684 0
DWIDTH 19 0
BBX 17 25 1 -7
BITMAP
FFFF80
C3C380
83C180
83C080
83C080
03C000
03C000
03C000
03C000
03C000
03C000
03C000
03C000
03C000
03C000
03C000
03E000
1FF800
000000
018000
01C000
01C000
004000
008000
010000
ENDCHAR
STARTCHAR 021B
ENCODING 539
SWIDTH 324 0
DWIDTH 9 0
BBX 8 24 1 -7
BITMAP
08
18
18
38
FF
FF
78
78
78
78
78
78
78
78
79
7E
3E
00
18
3C
1C
04
08
30
ENDCHAR
STARTCHAR 0259
ENCODING 601
SWIDTH 432 0
DWIDTH 12 0
BBX 10 13 1 0
BITMAP
1E00
7F80
4780
83C0
03C0
03C0
01C0
FFC0
E1C0
E1C0
E180
7380
3F00
ENDCHAR
STARTCHAR 02C6
ENCODING 710
SWIDTH 324 0
DWIDTH 9 0
BBX 9 5 0 14
BITMAP
1E00
3E00
3700
6300
C080
ENDCHAR
STARTCHAR 02C7
ENCODING 711
SWIDTH 324 0
DWIDTH 9 0
BBX 8 5 1 14
BITMAP
83
C6
7C
7C
38
ENDCHAR
STARTCHAR 02C9
ENCODING 713
SWIDTH 324 0
DWIDTH 9 0
BBX 9 2 0 15
BITMAP
FF80
FF80
ENDCHAR
STARTCHAR 02D8
ENCODING 728
SWIDTH 324 0
DWIDTH 9 0
BBX 8 5 1 14
BITMAP
81
C3
FE
7C
10
ENDCHAR
STARTCHAR 02D9
ENCODING 729
SWIDTH 324 0
DWIDTH 9 0
BBX 4 4 3 15
BITMAP
40
E0
F0
E0
ENDCHAR
STARTCHAR 02DA
ENCODING 730
SWIDTH 324 0
DWIDTH 9 0
BBX 5 5 2 14
BITMAP
F8
88
88
88
70
ENDCHAR
STARTCHAR 02DB
ENCODING 731
SWIDTH 324 0
DWIDTH 9 0
BBX 7 6 1 -6
BITMAP
20
60
E0
E0
78
3E
ENDCHAR
STARTCHAR 02DC
ENCODING 732
SWIDTH 324 0
DWIDTH 9 0
BBX 9 4 0 15
BITMAP
1080
7C80
7F80
8F00
ENDCHAR
STARTCHAR 02DD
ENCODING 733
SWIDTH 324 0
DWIDTH 9 0
BBX 8 5 2 14
BITMAP
77
66
C4
8C
88
ENDCHAR
STARTCHAR 0300
ENCODING 768
SWIDTH 0 0
DWIDTH 0 0
BBX 6 5 -8 20
BITMAP
F0
78
38
18
0C
ENDCHAR
STARTCHAR 0301
ENCODING 769
SWIDTH 0 0
DWIDTH 0 0
BBX 5 5 -5 20
BITMAP
78
70
E0
C0
80
ENDCHAR
STARTCHAR 0303
ENCODING 771
SWIDTH 0 0
DWIDTH 0 0
BBX 9 4 -11 20
BITMAP
3080
7F80
FF00
8E00
ENDCHAR
STARTCHAR 0309
ENCODING 777
SWIDTH 0 0
DWIDTH 0 0
BBX 7 5 -7 20
BITMAP
38
CE
0C
18
10
ENDCHAR
STARTCHAR 0323
ENCODING 803
SWIDTH 0 0
DWIDTH 0 0
BBX 5 5 -14 -6
BITMAP
20
F0
F8
F0
60
ENDCHAR
STARTCHAR 037E
ENCODING 894
SWIDTH 324 0
DWIDTH 9 0
BBX 5 18 2 -5
BITMAP
70
F8
F8
70
00
00
00
00
00
70
F8
F8
78
08
18
10
20
40
ENDCHAR
STARTCHAR 0384
ENCODING 900
SWIDTH 324 0
DWIDTH 9 0
BBX 5 5 3 14
BITMAP
78
70
60
C0
80
ENDCHAR
STARTCHAR 0385
ENCODING 901
SWIDTH 324 0
DWIDTH 9 0
BBX 13 5 -2 14
BITMAP
03C0
67B0
F778
F678
6C30
ENDCHAR
STARTCHAR 0386
ENCODING 902
SWIDTH 720 0
DWIDTH 20 0
BBX 20 19 0 0
BITMAP
0F0000
0E6000
1C6000
187000
10F000
00F800
01F800
017800
027C00
023C00
063E00
041E00
0C1F00
0FFF00
080F80
100F80
1007C0
3007C0
FC1FF0
ENDCHAR
STARTCHAR 0387
ENCODING 903
SWIDTH 324 0
DWIDTH 9 0
BBX 5 4 2 9
BITMAP
70
F8
F8
70
ENDCHAR
STARTCHAR 0388
ENCODING 904
SWIDTH 792 0
DWIDTH 22 0
BBX 23 19 -2 0
BITMAP
380000
71FFFC
60781C
40780C
807804
007844
007840
0078C0
0078C0
007FC0
0079C0
0078C0
007840
007842
007802
007806
007804
007C1C
03FFFC
ENDCHAR
STARTCHAR 0389
ENCODING 905
SWIDTH 900 0
DWIDTH 25 0
BBX 27 19 -2 0
BITMAP
38000000
71FE3FC0
60780F00
40780F00
80780F00
00780F00
00780F00
00780F00
00780F00
007FFF00
00780F00
00780F00
00780F00
00780F00
00780F00
00780F00
00780F00
00780F00
03FF7FE0
ENDCHAR
STARTCHAR 038A
ENCODING 906
SWIDTH 540 0
DWIDTH 15 0
BBX 16 19 -2 0
BITMAP
3800
71FE
6078
4078
8078
0078
0078
0078
0078
0078
0078
0078
0078
0078
0078
0078
0078
0078
03FF
ENDCHAR
STARTCHAR 038C
ENCODING 908
SWIDTH 792 0
DWIDTH 22 0
BBX 23 19 -2 0
BITMAP
3C3F00
78E3C0
73C0E0
678070
C78078
0F007C
0F007C
1F003C
1F003E
1F003E
1F003E
1F003C
1F003C
0F007C
0F8078
078078
0380F0
01C1E0
00FF80
ENDCHAR
STARTCHAR 038E
ENCODING 910
SWIDTH 864 0
DWIDTH 24 0
BBX 25 19 -2 0
BITMAP
38000000
71FE0780
60F80300
407C0200
803C0400
003E0400
001E0800
001F1800
000F9000
000FA000
0007E000
0007C000
0003C000
0003C000
0003C000
0003C000
0003C000
0003C000
001FF800
ENDCHAR
STARTCHAR 038F
ENCODING 911
SWIDTH 792 0
DWIDTH 22 0
BBX 23 19 -2 0
BITMAP
383F00
71E1E0
63C0F0
478078
8F807C
0F803C
0F003E
0F003E
0F003E
0F803C
0F803C
078078
038078
01C0E0
102102
182102
1FE1FE
1FE1FE
1FE1FE
ENDCHAR
STARTCHAR 0390
ENCODING 912
SWIDTH 324 0
DWIDTH 9 0
BBX 12 19 -2 0
BITMAP
0780
6730
E670
EC70
4820
0000
1F00
0F00
0F00
0F00
0F00
0F00
0F00
0F00
0F00
0F20
0F40
0FC0
0780
ENDCHAR
STARTCHAR 0391
ENCODING 913
SWIDTH 720 0
DWIDTH 20 0
BBX 20 18 0 1
BITMAP
006000
006000
007000
00F000
00F800
01F800
017800
027C00
023C00
063E00
041E00
0C1F00
0FFF00
080F80
100F80
1007C0
3007C0
FC1FF0
ENDCHAR
STARTCHAR 0392
ENCODING 914
SWIDTH 684 0
DWIDTH 19 0
BBX 17 18 1 0
BITMAP
FFFC00
3C3E00
3C1E00
3C1F00
3C1F00
3C1E00
3C3E00
3C7800
3FF000
3C3E00
3C1F00
3C0F00
3C0F80
3C0F80
3C0F00
3C1F00
3E3E00
FFF800
ENDCHAR
STARTCHAR 0393
ENCODING 915
SWIDTH 648 0
DWIDTH 18 0
BBX 16 18 1 0
BITMAP
FFFF
3E03
3E01
3E01
3E01
3E00
3E00
3E00
3E00
3E00
3E00
3E00
3E00
3E00
3E00
3E00
3E00
FF80
ENDCHAR
STARTCHAR 0394
ENCODING 916
SWIDTH 612 0
DWIDTH 17 0
BBX 16 19 1 0
BITMAP
0100
0100
0180
0380
03C0
07C0
07E0
0FE0
09E0
09F0
10F0
10F8
2078
2078
207C
403C
403E
801E
FFFF
ENDCHAR
STARTCHAR 0395
ENCODING 917
SWIDTH 684 0
DWIDTH 19 0
BBX 16 18 1 0
BITMAP
FFFE
3E06
3E02
3E02
3E22
3E20
3E20
3E60
3FE0
3EE0
3E20
3E20
3E20
3E01
3E01
3E03
3E0F
FFFF
ENDCHAR
STARTCHAR 0396
ENCODING 918
SWIDTH 684 0
DWIDTH 19 0
BBX 17 18 1 0
BITMAP
7FFE00
703E00
407C00
40FC00
40F800
01F000
01F000
03E000
07C000
07C000
0F8000
1F8080
1F0080
3E0080
3E0180
7C0380
F80700
FFFF00
ENDCHAR
STARTCHAR 0397
ENCODING 919
SWIDTH 792 0
DWIDTH 22 0
BBX 20 18 1 0
BITMAP
FF9FF0
3E07C0
3E07C0
3E07C0
3E07C0
3E07C0
3E07C0
3E07C0
3FFFC0
3E07C0
3E07C0
3E07C0
3E07C0
3E07C0
3E07C0
3E07C0
3E07C0
FFBFF0
ENDCHAR
STARTCHAR 0398
ENCODING 920
SWIDTH 792 0
DWIDTH 22 0
BBX 20 19 1 0
BITMAP
01F800
071E00
1E0700
3C0380
3C03C0
7803E0
7803E0
F909E0
F9F9F0
F9F9F0
F9F9F0
F9F9E0
F909E0
7803E0
7C03C0
3C03C0
1C0780
0E0F00
07FC00
ENDCHAR
STARTCHAR 0399
ENCODING 921
SWIDTH 396 0
DWIDTH 11 0
BBX 9 18 1 0
BITMAP
FF80
3E00
3E00
3E00
3E00
3E00
3E00
3E00
3E00
3E00
3E00
3E00
3E00
3E00
3E00
3E00
3E00
FF80
ENDCHAR
STARTCHAR 039A
ENCODING 922
SWIDTH 792 0
DWIDTH 22 0
BBX 21 18 1 0
BITMAP
FF07E0
3E0180
3E0300
3E0600
3E0800
3E3000
3E6000
3EE000
3FF000
3FF800
3EFC00
3E7C00
3E3E00
3E1F00
3E1F80
3E0FC0
3E07E0
FF9FF8
ENDCHAR
STARTCHAR 039B
ENCODING 923
SWIDTH 720 0
DWIDTH 20 0
BBX 20 19 0 0
BITMAP
002000
006000
006000
00F000
00F000
00F800
01F800
017C00
027C00
023C00
043E00
041E00
081F00
081F00
080F80
100F80
100780
3007C0
FC1FF0
ENDCHAR
STARTCHAR 039C
ENCODING 924
SWIDTH 936 0
DWIDTH 26 0
BBX 25 18 1 0
BITMAP
FE007F00
3F00FC00
2F00BC00
2F80BC00
2F813C00
27C13C00
27C23C00
23C23C00
23E23C00
21E43C00
21F43C00
21F83C00
20F83C00
20F83C00
20703C00
20703C00
20203C00
FC21FF80
ENDCHAR
STARTCHAR 039D
ENCODING 925
SWIDTH 720 0
DWIDTH 20 0
BBX 19 18 0 0
BITMAP
7F03E0
1F0080
1F8080
1FC080
17E080
13F080
11F080
10F880
10FC80
107E80
103F80
101F80
100F80
100780
100780
100380
100180
FE0080
ENDCHAR
STARTCHAR 039E
ENCODING 926
SWIDTH 684 0
DWIDTH 19 0
BBX 15 18 2 0
BITMAP
FFFE
FFFE
FFFE
8006
0002
2000
2010
3FF0
3FF0
3FF0
3010
2010
8002
8002
FFFE
FFFE
FFFE
FFFE
ENDCHAR
STARTCHAR 039F
ENCODING 927
SWIDTH 792 0
DWIDTH 22 0
BBX 20 19 1 0
BITMAP
00F000
071E00
1E0700
3C0380
3C03C0
7803E0
7801E0
F801E0
F801F0
F801F0
F801F0
F801E0
F801E0
7803E0
7C03C0
3C03C0
1C0780
0E0F00
07FC00
ENDCHAR
STARTCHAR 03A0
ENCODING 928
SWIDTH 792 0
DWIDTH 22 0
BBX 20 18 1 0
BITMAP
FFFFF0
3E07C0
3E0780
3E0780
3E0780
3E0780
3E0780
3E0780
3E0780
3E0780
3E0780
3E0780
3E0780
3E0780
3E0780
3E07C0
3E07C0
FFBFF0
ENDCHAR
STARTCHAR 03A1
ENCODING 929
SWIDTH 612 0
DWIDTH 17 0
BBX 15 18 1 0
BITMAP
FFF8
3E3C
3E3E
3E1E
3E1E
3E1E
3E3E
3E3C
3EF8
3F80
3E00
3E00
3E00
3E00
3E00
3E00
3E00
FF80
ENDCHAR
STARTCHAR 03A3
ENCODING 931
SWIDTH 648 0
DWIDTH 18 0
BBX 16 18 1 0
BITMAP
FFFE
7806
7C06
3E02
1F02
0F00
0F80
0780
0300
0200
0600
0C00
0801
1001
3FFF
7FFF
FFFF
FFFF
ENDCHAR
STARTCHAR 03A4
ENCODING 932
SWIDTH 684 0
DWIDTH 19 0
BBX 17 18 1 0
BITMAP
FFFF80
C3C380
83C180
83C080
83C080
03C000
03C000
03C000
03C000
03C000
03C000
03C000
03C000
03C000
03C000
03C000
03E000
1FF800
ENDCHAR
STARTCHAR 03A5
ENCODING 933
SWIDTH 720 0
DWIDTH 20 0
BBX 18 18 1 0
BITMAP
FF03C0
7C0180
3E0100
1E0200
1F0200
0F8400
0F8C00
07C800
07D000
03F000
03E000
01E000
01E000
01E000
01E000
01E000
01E000
0FFC00
ENDCHAR
STARTCHAR 03A6
ENCODING 934
SWIDTH 828 0
DWIDTH 23 0
BBX 21 18 1 0
BITMAP
03FE00
00F800
07FF00
1EFBC0
38F8E0
78F8F0
F8F8F8
F8F8F8
F0F878
F8F878
F8F8F8
78F8F0
78F8F0
3CF9E0
0FFF80
00F800
00F800
03FE00
ENDCHAR
STARTCHAR 03A7
ENCODING 935
SWIDTH 720 0
DWIDTH 20 0
BBX 20 18 0 0
BITMAP
7F87E0
1F0180
1F8300
0F8200
07C400
07E800
03F000
01F000
01F800
00F800
00FC00
017E00
023E00
061F00
0C1F80
080F80
1807C0
FE1FF0
ENDCHAR
STARTCHAR 03A8
ENCODING 936
SWIDTH 792 0
DWIDTH 22 0
BBX 20 19 1 0
BITMAP
C00030
F3FCE0
78F1E0
78F1E0
78F1E0
78F1E0
78F3E0
78F3C0
3CF3C0
1CF380
07FE00
00F000
00F000
00F000
00F000
00F000
00F000
00F000
07FE00
ENDCHAR
STARTCHAR 03A9
ENCODING 937
SWIDTH 792 0
DWIDTH 22 0
BBX 20 19 1 0
BITMAP
01F800
0F8F00
1E0780
3C03C0
7C03E0
7C01E0
7801F0
7801F0
7801F0
7C01E0
7C01E0
3C03C0
1C03C0
0E0700
810810
C10810
FF0FF0
FF0FF0
FF0FF0
ENDCHAR
STARTCHAR 03AA
ENCODING 938
SWIDTH 396 0
DWIDTH 11 0
BBX 9 24 1 0
BITMAP
6300
F780
F780
6300
0000
0000
FF80
3E00
3E00
3E00
3E00
3E00
3E00
3E00
3E00
3E00
3E00
3E00
3E00
3E00
3E00
3E00
3E00
FF80
ENDCHAR
STARTCHAR 03AB
ENCODING 939
SWIDTH 720 0
DWIDTH 20 0
BBX 18 24 1 0
BITMAP
021800
073800
073800
061800
000000
000000
FF03C0
7C0180
3E0100
1E0200
1F0200
0F8400
0F8C00
07C800
07D000
03F000
03E000
01E000
01E000
01E000
01E000
01E000
01E000
0FFC00
ENDCHAR
STARTCHAR 03AC
ENCODING 940
SWIDTH 576 0
DWIDTH 16 0
BBX 14 19 1 0
BITMAP
01C0
0380
0300
0200
0600
0000
1E78
3978
70F8
70F0
70F0
F0F0
F0F0
F0F0
F0E0
71E4
71E4
39DC
1F98
ENDCHAR
STARTCHAR 03AD
ENCODING 941
SWIDTH 432 0
DWIDTH 12 0
BBX 10 19 1 0
BITMAP
0780
0700
0E00
0C00
0800
0000
1F80
79C0
71C0
F000
7000
3800
0F00
7800
F000
F080
F0C0
F8C0
3F80
ENDCHAR
STARTCHAR 03AE
ENCODING 942
SWIDTH 576 0
DWIDTH 16 0
BBX 14 25 0 -6
BITMAP
00F0
01E0
01C0
0180
0300
0000
38F0
7DF8
9E3C
9E3C
1E3C
1E3C
1E3C
1E3C
1E3C
1E3C
1E3C
1E3C
1E3C
003C
003C
003C
003C
003C
003C
ENDCHAR
STARTCHAR 03AF
ENCODING 943
SWIDTH 324 0
DWIDTH 9 0
BBX 8 19 1 0
BITMAP
1E
1C
38
30
20
00
F8
78
78
78
78
78
78
78
78
79
7A
7E
3C
ENDCHAR
STARTCHAR 03B0
ENCODING 944
SWIDTH 504 0
DWIDTH 14 0
BBX 13 19 0 0
BITMAP
03C0
3398
7338
7638
2410
0000
38C0
7C30
9E30
9E18
1E18
1E18
1E18
1E18
1E18
1E18
1E30
0E30
07E0
ENDCHAR
STARTCHAR 03B1
ENCODING 945
SWIDTH 576 0
DWIDTH 16 0
BBX 14 13 1 0
BITMAP
1E78
3978
70F8
70F0
70F0
F0F0
F0F0
F0F0
F0E0
71E4
71E4
39DC
1F98
ENDCHAR
STARTCHAR 03B2
ENCODING 946
SWIDTH 540 0
DWIDTH 15 0
BBX 12 25 2 -6
BITMAP
1F00
71C0
F1C0
F1E0
F1E0
F1E0
F1C0
F780
F780
F1C0
F0E0
F0E0
F0F0
F0F0
F0F0
F0E0
F1E0
F1C0
FF80
F000
F000
F000
F000
E000
E000
ENDCHAR
STARTCHAR 03B3
ENCODING 947
SWIDTH 468 0
DWIDTH 13 0
BBX 13 19 0 -6
BITMAP
7078
78F0
F8F0
88E0
8CE0
04C0
05C0
0580
0780
0300
0300
0200
0600
0700
0700
0F00
0F00
0E00
0600
ENDCHAR
STARTCHAR 03B4
ENCODING 948
SWIDTH 504 0
DWIDTH 14 0
BBX 12 19 1 0
BITMAP
0F00
13C0
21E0
20C0
1000
0E00
0780
07C0
19E0
79F0
70F0
F0F0
F0F0
F0F0
F0F0
F0F0
70E0
38C0
1F80
ENDCHAR
STARTCHAR 03B5
ENCODING 949
SWIDTH 432 0
DWIDTH 12 0
BBX 10 13 1 0
BITMAP
1F80
79C0
71C0
F000
7000
3800
0F00
7800
F000
F080
F0C0
F8C0
3F80
ENDCHAR
STARTCHAR 03B6
ENCODING 950
SWIDTH 396 0
DWIDTH 11 0
BBX 10 25 1 -6
BITMAP
3080
63C0
6780
3F00
1000
2000
2000
4000
4000
8000
8000
8000
8000
8000
C000
F600
FF80
7FC0
3FC0
00C0
0040
0040
04C0
0F80
0700
ENDCHAR
STARTCHAR 03B7
ENCODING 951
SWIDTH 576 0
DWIDTH 16 0
BBX 14 19 0 -6
BITMAP
38F0
7DF8
9E3C
9E3C
1E3C
1E3C
1E3C
1E3C
1E3C
1E3C
1E3C
1E3C
1E3C
003C
003C
003C
003C
003C
003C
ENDCHAR
STARTCHAR 03B8
ENCODING 952
SWIDTH 540 0
DWIDTH 15 0
BBX 12 19 1 0
BITMAP
0700
19C0
38E0
70E0
70F0
70F0
F0F0
F0F0
F0F0
FFF0
F0F0
F0F0
F0F0
F0F0
70F0
70E0
30E0
38C0
1F80
ENDCHAR
STARTCHAR 03B9
ENCODING 953
SWIDTH 324 0
DWIDTH 9 0
BBX 8 13 1 0
BITMAP
F8
78
78
78
78
78
78
78
78
79
7A
7E
3C
ENDCHAR
STARTCHAR 03BA
ENCODING 954
SWIDTH 540 0
DWIDTH 15 0
BBX 16 13 0 0
BITMAP
FC1E
3C3E
3C6E
3CC0
3C80
3DC0
3FE0
3DE0
3CF0
3CF8
3C78
3C3C
3C3F
ENDCHAR
STARTCHAR 03BB
ENCODING 955
SWIDTH 504 0
DWIDTH 14 0
BBX 13 19 1 0
BITMAP
3000
7800
7800
8C00
8400
0400
0400
0600
0E00
0E00
1E00
1F00
3D00
3D00
7900
7888
70D8
F0F8
F070
ENDCHAR
STARTCHAR 03BC
ENCODING 956
SWIDTH 576 0
DWIDTH 16 0
BBX 14 19 1 -6
BITMAP
78F0
78F0
78F0
78F0
78F0
78F0
78F0
78F0
78F0
78F0
78F4
7FFC
7E78
6000
6000
7000
7000
F000
6000
ENDCHAR
STARTCHAR 03BD
ENCODING 957
SWIDTH 432 0
DWIDTH 12 0
BBX 12 13 0 0
BITMAP
7860
F870
7870
3C60
3C60
1E60
1E40
1F40
0F80
0F80
0700
0700
0200
ENDCHAR
STARTCHAR 03BE
ENCODING 958
SWIDTH 432 0
DWIDTH 12 0
BBX 11 25 1 -6
BITMAP
6300
4F00
7F00
1800
2000
2000
2180
3FC0
1F80
2000
4000
8000
8000
8000
C000
FF00
FFC0
7FE0
3FE0
0060
0020
0020
0360
07C0
0380
ENDCHAR
STARTCHAR 03BF
ENCODING 959
SWIDTH 504 0
DWIDTH 14 0
BBX 12 13 1 0
BITMAP
1F00
39C0
70E0
70E0
F0F0
F0F0
F0F0
F0F0
F0F0
70E0
70E0
39C0
1F80
ENDCHAR
STARTCHAR 03C0
ENCODING 960
SWIDTH 540 0
DWIDTH 15 0
BBX 15 13 0 0
BITMAP
0FFE
3FFE
7FFE
7FFE
8C60
0C60
0C60
1CE0
1CE0
38E4
78E4
78FC
7878
ENDCHAR
STARTCHAR 03C1
ENCODING 961
SWIDTH 540 0
DWIDTH 15 0
BBX 13 19 1 -6
BITMAP
0FC0
18E0
38F0
7870
7870
7878
7878
7878
7878
7870
78F0
78E0
7FC0
7800
7800
7800
7000
7000
F000
ENDCHAR
STARTCHAR 03C2
ENCODING 962
SWIDTH 432 0
DWIDTH 12 0
BBX 10 19 1 -6
BITMAP
0780
1FC0
31C0
4000
4000
8000
8000
8000
C000
FE00
FF80
7FC0
3FC0
00C0
0040
0040
04C0
0F80
0700
ENDCHAR
STARTCHAR 03C3
ENCODING 963
SWIDTH 540 0
DWIDTH 15 0
BBX 14 13 1 0
BITMAP
03FC
1FFC
7FFC
7FFC
F8C0
F0E0
F070
F070
F070
7070
70F0
38E0
1FC0
ENDCHAR
STARTCHAR 03C4
ENCODING 964
SWIDTH 468 0
DWIDTH 13 0
BBX 12 13 0 0
BITMAP
1FF0
3FF0
7FF0
FFF0
8700
0700
0700
0700
0700
0700
0740
07C0
0780
ENDCHAR
STARTCHAR 03C5
ENCODING 965
SWIDTH 504 0
DWIDTH 14 0
BBX 13 13 0 0
BITMAP
38C0
7C30
9E30
9E18
1E18
1E18
1E18
1E18
1E18
1E18
1E30
0E30
07E0
ENDCHAR
STARTCHAR 03C6
ENCODING 966
SWIDTH 612 0
DWIDTH 17 0
BBX 15 19 1 -6
BITMAP
0CF0
39B8
719C
719E
F39E
F39E
F39E
F39E
F39E
739E
739C
3BB8
1FF0
0380
0380
0380
0380
0380
0380
ENDCHAR
STARTCHAR 03C7
ENCODING 967
SWIDTH 468 0
DWIDTH 13 0
BBX 13 19 0 -6
BITMAP
3078
7870
F8F0
8CE0
85E0
05C0
07C0
0380
0780
0700
0F00
0F00
1F00
1D00
3C80
3888
78F8
7078
F070
ENDCHAR
STARTCHAR 03C8
ENCODING 968
SWIDTH 684 0
DWIDTH 19 0
BBX 19 19 0 -6
BITMAP
F0E1E0
78E3C0
38E380
3CE380
3CE380
3CE780
3CE780
3CE780
1CE780
1CE700
1EEF00
0EEE00
03F800
00E000
00E000
00E000
00E000
00E000
00E000
ENDCHAR
STARTCHAR 03C9
ENCODING 969
SWIDTH 720 0
DWIDTH 20 0
BBX 18 13 1 0
BITMAP
0E1C00
380700
78C380
70E3C0
F1E3C0
F1E3C0
F0E3C0
F0C3C0
F0C3C0
F043C0
78C380
39A780
3F1F00
ENDCHAR
STARTCHAR 03CA
ENCODING 970
SWIDTH 324 0
DWIDTH 9 0
BBX 9 19 0 0
BITMAP
4200
E700
E700
E700
0000
0000
7C00
3C00
3C00
3C00
3C00
3C00
3C00
3C00
3C00
3C80
3D00
3F00
1E00
ENDCHAR
STARTCHAR 03CB
ENCODING 971
SWIDTH 504 0
DWIDTH 14 0
BBX 13 19 0 0
BITMAP
0840
1CE0
1CE0
1CE0
0000
0000
38C0
7C30
9E30
9E18
1E18
1E18
1E18
1E18
1E18
1E18
1E30
0E30
07E0
ENDCHAR
STARTCHAR 03CC
ENCODING 972
SWIDTH 504 0
DWIDTH 14 0
BBX 12 19 1 0
BITMAP
03C0
0780
0700
0600
0C00
0000
1F00
39C0
70E0
70E0
F0F0
F0F0
F0F0
F0F0
F0F0
70E0
70E0
39C0
1F80
ENDCHAR
STARTCHAR 03CD
ENCODING 973
SWIDTH 504 0
DWIDTH 14 0
BBX 13 19 0 0
BITMAP
01E0
01C0
0380
0300
0200
0000
38C0
7C30
9E30
9E18
1E18
1E18
1E18
1E18
1E18
1E18
1E30
0E30
07E0
ENDCHAR
STARTCHAR 03CE
ENCODING 974
SWIDTH 720 0
DWIDTH 20 0
BBX 18 19 1 0
BITMAP
007800
007000
00E000
00C000
008000
000000
0E1C00
380700
78C380
70E3C0
F1E3C0
F1E3C0
F0E3C0
F0C3C0
F0C3C0
F043C0
78C380
39A780
3F1F00
ENDCHAR
STARTCHAR 0401
ENCODING 1025
SWIDTH 684 0
DWIDTH 19 0
BBX 16 24 1 0
BITMAP
0630
0E78
0E78
0630
0000
0000
FFFE
3E06
3E02
3E02
3E22
3E20
3E20
3E60
3FE0
3EE0
3E20
3E20
3E20
3E01
3E01
3E03
3E0F
FFFF
ENDCHAR
STARTCHAR 0402
ENCODING 1026
SWIDTH 792 0
DWIDTH 22 0
BBX 20 18 1 0
BITMAP
FFFE00
C78600
878200
878000
078000
078700
079FC0
07B7E0
07C1F0
0781F0
0781F0
0781F0
0781F0
0781F0
0781F0
0781E0
07C1E0
3FE780
ENDCHAR
STARTCHAR 0403
ENCODING 1027
SWIDTH 648 0
DWIDTH 18 0
BBX 16 25 1 0
BITMAP
00F0
01E0
01C0
0180
0300
0000
0000
FFFF
3E03
3E01
3E01
3E01
3E00
3E00
3E00
3E00
3E00
3E00
3E00
3E00
3E00
3E00
3E00
3E00
FF80
ENDCHAR
STARTCHAR 0404
ENCODING 1028
SWIDTH 684 0
DWIDTH 19 0
BBX 16 19 1 0
BITMAP
01F0
079F
1E03
3C01
7C01
7801
7800
F800
F800
FFF0
F800
F800
F800
7800
7C00
3C00
1E01
0F02
07FC
ENDCHAR
STARTCHAR 0405
ENCODING 1029
SWIDTH 540 0
DWIDTH 15 0
BBX 13 19 1 0
BITMAP
0F00
38F0
7030
6030
7010
F010
7C00
7F00
7FC0
3FE0
0FF0
03F8
81F8
8078
C038
C038
E038
F070
DFE0
ENDCHAR
STARTCHAR 0406
ENCODING 1030
SWIDTH 396 0
DWIDTH 11 0
BBX 9 18 1 0
BITMAP
FF80
3E00
3E00
3E00
3E00
3E00
3E00
3E00
3E00
3E00
3E00
3E00
3E00
3E00
3E00
3E00
3E00
FF80
ENDCHAR
STARTCHAR 0407
ENCODING 1031
SWIDTH 396 0
DWIDTH 11 0
BBX 9 24 1 0
BITMAP
6300
F780
F780
6300
0000
0000
FF80
3E00
3E00
3E00
3E00
3E00
3E00
3E00
3E00
3E00
3E00
3E00
3E00
3E00
3E00
3E00
3E00
FF80
ENDCHAR
STARTCHAR 0408
ENCODING 1032
SWIDTH 504 0
DWIDTH 14 0
BBX 13 18 0 0
BITMAP
0FF8
01E0
01E0
01E0
01E0
01E0
01E0
01E0
01E0
01E0
01E0
01E0
21E0
71E0
F1E0
F1E0
63C0
3F80
ENDCHAR
STARTCHAR 0409
ENCODING 1033
SWIDTH 1008 0
DWIDTH 28 0
BBX 27 18 0 0
BITMAP
07FFE000
00878000
00878000
00878000
00878000
00878000
00878000
00878000
0087FE00
00878F80
008787C0
010783E0
010783E0
010783E0
610783E0
F20787C0
F6078780
783FFF00
ENDCHAR
STARTCHAR 040A
ENCODING 1034
SWIDTH 1008 0
DWIDTH 28 0
BBX 26 18 1 0
BITMAP
FF3FC000
3E1F0000
3E0F0000
3E0F0000
3E0F0000
3E0F0000
3E0F0000
3E0F0000
3FFFFC00
3E0F1F00
3E0F0F80
3E0F07C0
3E0F07C0
3E0F07C0
3E0F07C0
3E0F0F80
3E1F0F00
FFFFFE00
ENDCHAR
STARTCHAR 040B
ENCODING 1035
SWIDTH 792 0
DWIDTH 22 0
BBX 21 18 1 0
BITMAP
FFFC00
C78C00
878400
878000
078000
078700
079FC0
07FFC0
07C3C0
0783E0
0783E0
0783E0
0783E0
0783E0
0783E0
0783E0
07C3E0
3FE7F8
ENDCHAR
STARTCHAR 040C
ENCODING 1036
SWIDTH 720 0
DWIDTH 20 0
BBX 19 25 1 0
BITMAP
007800
007000
00E000
00C000
008000
000000
000100
FF87C0
3E0DC0
3E09C0
3E1880
3E1000
3E1000
3E3000
3E2000
3FE000
3EF000
3EF800
3E7C00
3E3C00
3E3E00
3E1E00
3E1F00
3E0F80
FF8FE0
ENDCHAR
STARTCHAR 040D
ENCODING 1037
SWIDTH 792 0
DWIDTH 22 0
BBX 21 25 0 0
BITMAP
03C000
01E000
00E000
006000
003000
000000
000000
7FCFF8
1F03E0
1F03C0
1F03C0
1F07C0
1F0FC0
1F0BC0
1F13C0
1F33C0
1F23C0
1F43C0
1FC3C0
1F83C0
1F83C0
1F03C0
1F03E0
1F03E0
FFDFF8
ENDCHAR
STARTCHAR 040E
ENCODING 1038
SWIDTH 720 0
DWIDTH 20 0
BBX 19 24 1 0
BITMAP
060600
070F00
078E00
01F800
000000
000000
FF07E0
3E0080
3E0100
1F0100
0F0200
0F8200
078400
07C400
03C800
03E800
01F000
01F000
00E000
00E000
1C4000
1C4000
1C8000
1F0000
ENDCHAR
STARTCHAR 040F
ENCODING 1039
SWIDTH 792 0
DWIDTH 22 0
BBX 20 23 1 -5
BITMAP
FF9FE0
3E07C0
3E0780
3E0780
3E0780
3E0780
3E0780
3E0780
3E0780
3E0780
3E0780
3E0780
3E0780
3E0780
3E0780
3E07C0
3E07C0
FFFFF0
01F000
006000
006000
004000
004000
ENDCHAR
STARTCHAR 0410
ENCODING 1040
SWIDTH 720 0
DWIDTH 20 0
BBX 20 18 0 1
BITMAP
006000
006000
007000
00F000
00F800
01F800
017800
027C00
023C00
063E00
041E00
0C1F00
0FFF00
080F80
100F80
1007C0
3007C0
FC1FF0
ENDCHAR
STARTCHAR 0411
ENCODING 1041
SWIDTH 648 0
DWIDTH 18 0
BBX 17 18 0 0
BITMAP
7FFF00
1F0300
1F0100
1F0100
1F0000
1F0000
1F0000
1F0000
1FFC00
1F3F00
1F0F80
1F0F80
1F0F80
1F0F80
1F0F80
1F0F80
1F1F00
FFFC00
ENDCHAR
STARTCHAR 0412
ENCODING 1042
SWIDTH 684 0
DWIDTH 19 0
BBX 17 18 1 0
BITMAP
FFFC00
3C3E00
3C1E00
3C1F00
3C1F00
3C1E00
3C3E00
3C7800
3FF000
3C3E00
3C1F00
3C0F00
3C0F80
3C0F80
3C0F00
3C1F00
3E3E00
FFF800
ENDCHAR
STARTCHAR 0413
ENCODING 1043
SWIDTH 648 0
DWIDTH 18 0
BBX 16 18 1 0
BITMAP
FFFF
3E03
3E01
3E01
3E01
3E00
3E00
3E00
3E00
3E00
3E00
3E00
3E00
3E00
3E00
3E00
3E00
FF80
ENDCHAR
STARTCHAR 0414
ENCODING 1044
SWIDTH 684 0
DWIDTH 19 0
BBX 19 23 0 -5
BITMAP
0FFFC0
020F00
020F00
020F00
020F00
020F00
020F00
020F00
020F00
020F00
020F00
040F00
040F00
040F00
080F00
180F00
300F00
FFFFE0
F001E0
C000E0
C00060
800020
800020
ENDCHAR
STARTCHAR 0415
ENCODING 1045
SWIDTH 684 0
DWIDTH 19 0
BBX 16 18 1 0
BITMAP
FFFE
3E06
3E02
3E02
3E22
3E20
3E20
3E60
3FE0
3EE0
3E20
3E20
3E20
3E01
3E01
3E03
3E0F
FFFF
ENDCHAR
STARTCHAR 0416
ENCODING 1046
SWIDTH 972 0
DWIDTH 27 0
BBX 27 19 0 0
BITMAP
10000180
7C3FC7E0
760F05E0
720F09E0
630F08C0
010F0800
010F1000
018F1000
008F3000
00FFE000
01EF7800
03CF3C00
078F3C00
078F1E00
0F0F1E00
0F0F0F00
1E0F0F00
3E1F0780
FC7FC7E0
ENDCHAR
STARTCHAR 0417
ENCODING 1047
SWIDTH 540 0
DWIDTH 15 0
BBX 13 19 1 0
BITMAP
8F00
F7C0
C1E0
C1F0
81F0
81F0
01F0
01E0
03C0
1F00
07E0
01F0
01F0
00F8
00F8
00F8
01F0
C3E0
7FC0
ENDCHAR
STARTCHAR 0418
ENCODING 1048
SWIDTH 792 0
DWIDTH 22 0
BBX 21 18 0 0
BITMAP
7FCFF8
1F03E0
1F03C0
1F03C0
1F07C0
1F0FC0
1F0BC0
1F13C0
1F33C0
1F23C0
1F43C0
1FC3C0
1F83C0
1F83C0
1F03C0
1F03E0
1F03E0
FFDFF8
ENDCHAR
STARTCHAR 0419
ENCODING 1049
SWIDTH 792 0
DWIDTH 22 0
BBX 21 24 0 0
BITMAP
030300
078700
038F00
00FC00
000000
000000
7FCFF8
1F03E0
1F03C0
1F03C0
1F07C0
1F0FC0
1F0BC0
1F13C0
1F33C0
1F23C0
1F43C0
1FC3C0
1F83C0
1F83C0
1F03C0
1F03E0
1F03E0
FFDFF8
ENDCHAR
STARTCHAR 041A
ENCODING 1050
SWIDTH 720 0
DWIDTH 20 0
BBX 19 19 1 0
BITMAP
000100
FF87C0
3E0DC0
3E09C0
3E1880
3E1000
3E1000
3E3000
3E2000
3FE000
3EF000
3EF800
3E7C00
3E3C00
3E3E00
3E1E00
3E1F00
3E0F80
FF8FE0
ENDCHAR
STARTCHAR 041B
ENCODING 1051
SWIDTH 756 0
DWIDTH 21 0
BBX 20 18 0 0
BITMAP
07FFE0
0087C0
0087C0
0087C0
0087C0
0087C0
0087C0
0087C0
0087C0
0087C0
0087C0
0087C0
0107C0
0107C0
6107C0
F207C0
F607C0
781FF0
ENDCHAR
STARTCHAR 041C
ENCODING 1052
SWIDTH 936 0
DWIDTH 26 0
BBX 25 18 1 0
BITMAP
FE007F00
3F00FC00
2F00BC00
2F80BC00
2F813C00
27C13C00
27C23C00
23C23C00
23E23C00
21E43C00
21F43C00
21F83C00
20F83C00
20F83C00
20703C00
20703C00
20203C00
FC21FF80
ENDCHAR
STARTCHAR 041D
ENCODING 1053
SWIDTH 792 0
DWIDTH 22 0
BBX 20 18 1 0
BITMAP
FF9FF0
3E07C0
3E07C0
3E07C0
3E07C0
3E07C0
3E07C0
3E07C0
3FFFC0
3E07C0
3E07C0
3E07C0
3E07C0
3E07C0
3E07C0
3E07C0
3E07C0
FFBFF0
ENDCHAR
STARTCHAR 041E
ENCODING 1054
SWIDTH 792 0
DWIDTH 22 0
BBX 20 19 1 0
BITMAP
00F000
071E00
1E0700
3C0380
3C03C0
7803E0
7801E0
F801E0
F801F0
F801F0
F801F0
F801E0
F801E0
7803E0
7C03C0
3C03C0
1C0780
0E0F00
07FC00
ENDCHAR
STARTCHAR 041F
ENCODING 1055
SWIDTH 792 0
DWIDTH 22 0
BBX 20 18 1 0
BITMAP
FFFFF0
3E07C0
3E0780
3E0780
3E0780
3E0780
3E0780
3E0780
3E0780
3E0780
3E0780
3E0780
3E0780
3E0780
3E0780
3E07C0
3E07C0
FFBFF0
ENDCHAR
STARTCHAR 0420
ENCODING 1056
SWIDTH 612 0
DWIDTH 17 0
BBX 15 18 1 0
BITMAP
FFF8
3E3C
3E3E
3E1E
3E1E
3E1E
3E3E
3E3C
3EF8
3F80
3E00
3E00
3E00
3E00
3E00
3E00
3E00
FF80
ENDCHAR
STARTCHAR 0421
ENCODING 1057
SWIDTH 720 0
DWIDTH 20 0
BBX 18 19 1 0
BITMAP
00F840
07CFC0
0F03C0
1E00C0
3C00C0
7C0040
780040
F80000
F80000
F80000
F80000
F80000
F80000
780000
7C0000
3C0080
1E0080
0F0300
07FC00
ENDCHAR
STARTCHAR 0422
ENCODING 1058
SWIDTH 684 0
DWIDTH 19 0
BBX 17 18 1 0
BITMAP
FFFF80
C3C380
83C180
83C080
83C080
03C000
03C000
03C000
03C000
03C000
03C000
03C000
03C000
03C000
03C000
03C000
03E000
1FF800
ENDCHAR
STARTCHAR 0423
ENCODING 1059
SWIDTH 720 0
DWIDTH 20 0
BBX 19 18 1 0
BITMAP
FF07E0
3E0080
3E0100
1F0100
0F0200
0F8200
078400
07C400
03C800
03E800
01F000
01F000
00E000
00E000
1C4000
1C4000
1C8000
1F0000
ENDCHAR
STARTCHAR 0424
ENCODING 1060
SWIDTH 864 0
DWIDTH 24 0
BBX 22 18 1 0
BITMAP
01FE00
007800
03FF80
1E79E0
3C78F0
787878
F87878
F8787C
F8787C
F8787C
F8787C
787878
787878
3C78F0
0FFFC0
007800
007800
03FF00
ENDCHAR
STARTCHAR 0425
ENCODING 1061
SWIDTH 720 0
DWIDTH 20 0
BBX 20 18 0 0
BITMAP
7F87E0
1F0180
1F8300
0F8200
07C400
07E800
03F000
01F000
01F800
00F800
00FC00
017E00
023E00
061F00
0C1F80
080F80
1807C0
FE1FF0
ENDCHAR
STARTCHAR 0426
ENCODING 1062
SWIDTH 792 0
DWIDTH 22 0
BBX 20 23 1 -5
BITMAP
FF9FE0
3E07C0
3E0780
3E0780
3E0780
3E0780
3E0780
3E0780
3E0780
3E0780
3E0780
3E0780
3E0780
3E0780
3E0780
3E07C0
3E07C0
FFFFE0
0000F0
000070
000030
000010
000010
ENDCHAR
STARTCHAR 0427
ENCODING 1063
SWIDTH 720 0
DWIDTH 20 0
BBX 19 18 1 0
BITMAP
FF3FC0
3C0F00
3C0F00
3C0F00
3C0F00
3C0F00
3C0F00
3C0F00
3C0F00
3FFF00
1FCF00
000F00
000F00
000F00
000F00
000F00
000F00
007FE0
ENDCHAR
STARTCHAR 0428
ENCODING 1064
SWIDTH 1116 0
DWIDTH 31 0
BBX 28 18 1 0
BITMAP
7F1FCFF0
3E0F83C0
3E0F03C0
3E0F03C0
3E0F03C0
3E0F03C0
3E0F03C0
3E0F03C0
3E0F03C0
3E0F03C0
3E0F03C0
3E0F03C0
3E0F03C0
3E0F03C0
3E0F03C0
3E0F83C0
3E0F83E0
FFFFFFF0
ENDCHAR
STARTCHAR 0429
ENCODING 1065
SWIDTH 1116 0
DWIDTH 31 0
BBX 28 23 1 -5
BITMAP
7F1FCFF0
3E0F83C0
3E0F03C0
3E0F03C0
3E0F03C0
3E0F03C0
3E0F03C0
3E0F03C0
3E0F03C0
3E0F03C0
3E0F03C0
3E0F03C0
3E0F03C0
3E0F03C0
3E0F03C0
3E0F83C0
3E0F83E0
FFFFFFF0
000000F0
00000030
00000010
00000010
00000010
ENDCHAR
STARTCHAR 042A
ENCODING 1066
SWIDTH 756 0
DWIDTH 21 0
BBX 19 18 1 0
BITMAP
FFF000
C7C000
878000
878000
878000
078000
078000
078000
07FF00
078FC0
0787E0
0783E0
0783E0
0783E0
0783E0
07C3E0
07C7C0
3FFF00
ENDCHAR
STARTCHAR 042B
ENCODING 1067
SWIDTH 972 0
DWIDTH 27 0
BBX 27 18 0 0
BITMAP
7FC03FC0
1F000F00
1F000F00
1F000F00
1F000F00
1F000F00
1F000F00
1F000F00
1FFC0F00
1F3F0F00
1F0F8F00
1F0F8F00
1F0F8F00
1F0F8F00
1F0F8F00
1F0F8F00
1F1F0F00
FFFC7FE0
ENDCHAR
STARTCHAR 042C
ENCODING 1068
SWIDTH 648 0
DWIDTH 18 0
BBX 17 18 0 0
BITMAP
7FC000
1F0000
1F0000
1F0000
1F0000
1F0000
1F0000
1F0000
1FFC00
1F3F00
1F0F80
1F0F80
1F0F80
1F0F80
1F0F80
1F0F80
1F1F00
FFFC00
ENDCHAR
STARTCHAR 042D
ENCODING 1069
SWIDTH 684 0
DWIDTH 19 0
BBX 17 19 1 0
BITMAP
87C000
F8F000
E03C00
C01E00
801E00
801F00
000F00
000F80
000F80
07FF80
000F80
000F80
000F80
000F00
001F00
001E00
403C00
207800
1FF000
ENDCHAR
STARTCHAR 042E
ENCODING 1070
SWIDTH 1116 0
DWIDTH 31 0
BBX 29 19 1 0
BITMAP
00007C00
FF83C780
3E0783C0
3E0F01E0
3E1E00F0
3E1E00F0
3E3E00F8
3E3E00F8
3E3E00F8
3FFE00F8
3E3E00F8
3E3E00F8
3E3E00F8
3E3E00F8
3E1E00F0
3E1F00E0
3E0F01E0
3E0783C0
FF81FF00
ENDCHAR
STARTCHAR 042F
ENCODING 1071
SWIDTH 720 0
DWIDTH 20 0
BBX 20 18 0 0
BITMAP
07FFE0
0F0780
1F0780
1E0780
1E0780
1E0780
1E0780
0F0780
07E780
01FF80
03E780
07C780
0F8780
0F8780
1F0780
3E0780
3E0780
FC3FF0
ENDCHAR
STARTCHAR 0430
ENCODING 1072
SWIDTH 504 0
DWIDTH 14 0
BBX 12 13 1 0
BITMAP
1F80
33C0
71E0
71E0
71E0
03E0
0DE0
39E0
71E0
F1E0
F3E0
FDF0
79E0
ENDCHAR
STARTCHAR 0431
ENCODING 1073
SWIDTH 504 0
DWIDTH 14 0
BBX 12 19 1 0
BITMAP
0030
0FE0
3FC0
3F80
6000
4000
4F00
B9C0
B0E0
F0E0
F0F0
F0F0
F0F0
F0F0
F0F0
70E0
70E0
39C0
1F80
ENDCHAR
STARTCHAR 0432
ENCODING 1074
SWIDTH 540 0
DWIDTH 15 0
BBX 13 13 1 0
BITMAP
FF80
79E0
78F0
7870
78F0
79E0
7FC0
78F0
7878
7878
7878
78F0
FFE0
ENDCHAR
STARTCHAR 0433
ENCODING 1075
SWIDTH 468 0
DWIDTH 13 0
BBX 11 13 1 0
BITMAP
FFE0
7860
7820
7800
7800
7800
7800
7800
7800
7800
7800
7800
FE00
ENDCHAR
STARTCHAR 0434
ENCODING 1076
SWIDTH 504 0
DWIDTH 14 0
BBX 13 16 0 -3
BITMAP
3FF8
18F0
08F0
08F0
08F0
10F0
10F0
10F0
10F0
10F0
20F0
20F0
FFF8
C018
8008
8008
ENDCHAR
STARTCHAR 0435
ENCODING 1077
SWIDTH 432 0
DWIDTH 12 0
BBX 11 13 1 0
BITMAP
0F00
3180
71C0
71C0
F1E0
FFE0
F000
F000
F000
F820
7840
7F80
3F00
ENDCHAR
STARTCHAR 0436
ENCODING 1078
SWIDTH 720 0
DWIDTH 20 0
BBX 20 13 0 0
BITMAP
31F8E0
78F1F0
68F170
64F260
04F200
02F600
07FF00
0EF780
1EF780
1CF3C0
3CF3C0
38F1E0
F9F9F0
ENDCHAR
STARTCHAR 0437
ENCODING 1079
SWIDTH 396 0
DWIDTH 11 0
BBX 9 13 1 0
BITMAP
FE00
C700
8780
8780
0700
0E00
1E00
0780
0780
0380
0780
8780
7F00
ENDCHAR
STARTCHAR 0438
ENCODING 1080
SWIDTH 576 0
DWIDTH 16 0
BBX 14 13 1 0
BITMAP
FCFC
7878
7878
78F8
78F8
7978
7978
7A78
7C78
7C78
7878
7878
FCFC
ENDCHAR
STARTCHAR 0439
ENCODING 1081
SWIDTH 576 0
DWIDTH 16 0
BBX 14 18 1 0
BITMAP
3870
3870
1FE0
0000
0000
FCFC
7878
7878
78F8
78F8
7978
7978
7A78
7C78
7C78
7878
7878
FCFC
ENDCHAR
STARTCHAR 043A
ENCODING 1082
SWIDTH 576 0
DWIDTH 16 0
BBX 15 13 1 0
BITMAP
FC38
787C
785C
789C
7880
7900
7F80
7BC0
79E0
78F0
78F0
7878
FC7E
ENDCHAR
STARTCHAR 043B
ENCODING 1083
SWIDTH 576 0
DWIDTH 16 0
BBX 15 13 0 0
BITMAP
1FFE
0478
0478
0478
0478
0478
0478
0478
0478
6478
E478
E878
78FE
ENDCHAR
STARTCHAR 043C
ENCODING 1084
SWIDTH 684 0
DWIDTH 19 0
BBX 17 13 1 0
BITMAP
F80F80
7C1F00
7C1F00
5E2F00
5E2F00
5E4F00
4F4F00
4F4F00
478F00
478F00
430F00
430F00
F33F80
ENDCHAR
STARTCHAR 043D
ENCODING 1085
SWIDTH 576 0
DWIDTH 16 0
BBX 14 13 1 0
BITMAP
FCFC
7878
7878
7878
7878
7878
7FF8
7878
7878
7878
7878
7878
FCFC
ENDCHAR
STARTCHAR 043E
ENCODING 1086
SWIDTH 504 0
DWIDTH 14 0
BBX 12 13 1 0
BITMAP
1F00
39C0
70E0
70E0
F0F0
F0F0
F0F0
F0F0
F0F0
70E0
70E0
39C0
1F80
ENDCHAR
STARTCHAR 043F
ENCODING 1087
SWIDTH 576 0
DWIDTH 16 0
BBX 14 13 1 0
BITMAP
FFFC
7878
7878
7878
7878
7878
7878
7878
7878
7878
7878
7878
FCFC
ENDCHAR
STARTCHAR 0440
ENCODING 1088
SWIDTH 540 0
DWIDTH 15 0
BBX 13 19 1 -6
BITMAP
FBC0
7FF0
7870
7878
7878
7878
7878
7878
7878
7878
7870
7CF0
7BE0
7800
7800
7800
7800
7800
FE00
ENDCHAR
STARTCHAR 0441
ENCODING 1089
SWIDTH 432 0
DWIDTH 12 0
BBX 10 13 1 0
BITMAP
0F80
33C0
71C0
71C0
F0C0
F000
F000
F000
F000
F800
7C40
3FC0
1F80
ENDCHAR
STARTCHAR 0442
ENCODING 1090
SWIDTH 504 0
DWIDTH 14 0
BBX 12 13 1 0
BITMAP
FFF0
8F10
0F10
0F00
0F00
0F00
0F00
0F00
0F00
0F00
0F00
0F00
3F80
ENDCHAR
STARTCHAR 0443
ENCODING 1091
SWIDTH 504 0
DWIDTH 14 0
BBX 14 19 0 -6
BITMAP
FE7C
7C10
3C10
3C10
1E20
1E20
0F40
0F40
07C0
0780
0780
0300
0300
0100
0200
7200
7400
7400
3800
ENDCHAR
STARTCHAR 0444
ENCODING 1092
SWIDTH 684 0
DWIDTH 19 0
BBX 17 24 1 -6
BITMAP
03E000
01E000
01E000
01E000
01E000
1DFE00
3FFF00
79E700
71E780
F1E780
F1E780
F1E780
F1E780
F1E780
F1E780
71E700
79EF00
3DFE00
01E000
01E000
01E000
01E000
01E000
07F000
ENDCHAR
STARTCHAR 0445
ENCODING 1093
SWIDTH 504 0
DWIDTH 14 0
BBX 12 13 1 0
BITMAP
FFF0
7CC0
3C80
3C80
1F00
1F00
0F00
0F80
0F80
13C0
13C0
23E0
F7F0
ENDCHAR
STARTCHAR 0446
ENCODING 1094
SWIDTH 576 0
DWIDTH 16 0
BBX 14 16 1 -3
BITMAP
FCFC
7878
7878
7878
7878
7878
7878
7878
7878
7878
7878
7878
FFFC
000C
0004
0004
ENDCHAR
STARTCHAR 0447
ENCODING 1095
SWIDTH 576 0
DWIDTH 16 0
BBX 14 13 1 0
BITMAP
FDFC
78F0
78F0
78F0
78F0
78F0
7DF0
3EF0
00F0
00F0
00F0
00F0
01FC
ENDCHAR
STARTCHAR 0448
ENCODING 1096
SWIDTH 828 0
DWIDTH 23 0
BBX 21 13 1 0
BITMAP
FCFDF8
7878F0
7878F0
7878F0
7878F0
7878F0
7878F0
7878F0
7878F0
7878F0
7878F0
7878F0
FFFFF8
ENDCHAR
STARTCHAR 0449
ENCODING 1097
SWIDTH 828 0
DWIDTH 23 0
BBX 21 16 1 -3
BITMAP
FCFDF8
7878F0
7878F0
7878F0
7878F0
7878F0
7878F0
7878F0
7878F0
7878F0
7878F0
7878F0
FFFFF8
000018
000008
000008
ENDCHAR
STARTCHAR 044A
ENCODING 1098
SWIDTH 576 0
DWIDTH 16 0
BBX 15 13 0 0
BITMAP
FF80
CF00
8F00
8F00
0F00
0F00
0FF8
0F3C
0F1E
0F1E
0F1E
0F3E
1FF8
ENDCHAR
STARTCHAR 044B
ENCODING 1099
SWIDTH 792 0
DWIDTH 22 0
BBX 20 13 1 0
BITMAP
FE07F0
7803E0
7803C0
7803C0
7803C0
7803C0
7FC3C0
78F3C0
787BC0
787BC0
787BC0
78F3C0
FFC7F0
ENDCHAR
STARTCHAR 044C
ENCODING 1100
SWIDTH 540 0
DWIDTH 15 0
BBX 13 13 1 0
BITMAP
FE00
7800
7800
7800
7800
7800
7FC0
78F0
7878
7878
7878
78F0
FFC0
ENDCHAR
STARTCHAR 044D
ENCODING 1101
SWIDTH 432 0
DWIDTH 12 0
BBX 10 13 1 0
BITMAP
FE00
C700
8380
8380
03C0
03C0
1FC0
03C0
03C0
03C0
0380
8700
7E00
ENDCHAR
STARTCHAR 044E
ENCODING 1102
SWIDTH 756 0
DWIDTH 21 0
BBX 19 13 1 0
BITMAP
FE1F00
787180
7871C0
78E1E0
78E1E0
79E1E0
7FE1E0
79E1E0
78E1E0
78E1E0
78F1C0
7871C0
FE3F00
ENDCHAR
STARTCHAR 044F
ENCODING 1103
SWIDTH 540 0
DWIDTH 15 0
BBX 14 13 0 0
BITMAP
0FFC
3C78
7878
7878
7878
3C78
1FF8
0F78
1E78
1E78
1C78
3C78
FDFC
ENDCHAR
STARTCHAR 0451
ENCODING 1105
SWIDTH 432 0
DWIDTH 12 0
BBX 11 18 1 1
BITMAP
7BC0
7BC0
3180
0000
0000
0F00
3180
71C0
71C0
F1E0
FFE0
F000
F000
F000
F820
7840
7F80
3F00
ENDCHAR
STARTCHAR 0452
ENCODING 1106
SWIDTH 540 0
DWIDTH 15 0
BBX 13 24 1 -6
BITMAP
F800
7800
FFC0
7800
7800
7BC0
7EE0
78F0
7870
7870
7870
7878
7878
7878
7878
7870
78F0
FCF0
00F0
00E0
00E0
00C0
0180
0200
ENDCHAR
STARTCHAR 0453
ENCODING 1107
SWIDTH 468 0
DWIDTH 13 0
BBX 11 19 1 0
BITMAP
0780
0700
0E00
0C00
0800
0000
FFE0
7860
7820
7800
7800
7800
7800
7800
7800
7800
7800
7800
FE00
ENDCHAR
STARTCHAR 0454
ENCODING 1108
SWIDTH 432 0
DWIDTH 12 0
BBX 10 13 1 0
BITMAP
1FC0
38C0
7040
7040
F000
F000
FE00
F000
F000
F000
7000
3840
1F80
ENDCHAR
STARTCHAR 0455
ENCODING 1109
SWIDTH 396 0
DWIDTH 11 0
BBX 9 13 1 0
BITMAP
3D00
6300
E100
F100
F800
7E00
7F00
3F00
0F80
8780
C380
C300
FE00
ENDCHAR
STARTCHAR 0456
ENCODING 1110
SWIDTH 288 0
DWIDTH 8 0
BBX 6 19 1 0
BITMAP
30
78
78
78
00
00
F8
78
78
78
78
78
78
78
78
78
78
78
FC
ENDCHAR
STARTCHAR 0457
ENCODING 1111
SWIDTH 288 0
DWIDTH 8 0
BBX 8 19 0 0
BITMAP
42
E7
E7
E7
00
00
7C
3C
3C
3C
3C
3C
3C
3C
3C
3C
3C
3C
7E
ENDCHAR
STARTCHAR 0458
ENCODING 1112
SWIDTH 324 0
DWIDTH 9 0
BBX 8 25 -1 -6
BITMAP
06
0F
0F
0E
00
00
3F
0F
0F
0F
0F
0F
0F
0F
0F
0F
0F
0F
0F
0F
0F
4F
EE
EE
7C
ENDCHAR
STARTCHAR 0459
ENCODING 1113
SWIDTH 792 0
DWIDTH 22 0
BBX 21 13 0 0
BITMAP
1FFE00
047800
047800
047800
047800
047800
047FC0
0478F0
047878
647878
E47878
E878F0
78FFC0
ENDCHAR
STARTCHAR 045A
ENCODING 1114
SWIDTH 792 0
DWIDTH 22 0
BBX 20 13 1 0
BITMAP
FDFC00
787800
787800
787800
787800
787800
7FFFC0
7879E0
7878F0
7878F0
7878F0
7879E0
FDFFC0
ENDCHAR
STARTCHAR 045B
ENCODING 1115
SWIDTH 540 0
DWIDTH 15 0
BBX 14 18 1 0
BITMAP
7800
7800
FFC0
7800
7800
79E0
7BF0
7CF0
7870
7870
7870
7870
7870
7870
7870
7870
78F0
FDFC
ENDCHAR
STARTCHAR 045C
ENCODING 1116
SWIDTH 576 0
DWIDTH 16 0
BBX 15 19 1 0
BITMAP
01E0
01C0
0380
0300
0200
0000
FC38
787C
785C
789C
7880
7900
7F80
7BC0
79E0
78F0
78F0
7878
FC7E
ENDCHAR
STARTCHAR 045D
ENCODING 1117
SWIDTH 576 0
DWIDTH 16 0
BBX 14 19 1 0
BITMAP
1E00
0E00
0600
0300
0100
0000
FCFC
7878
7878
78F8
78F8
7978
7978
7A78
7C78
7C78
7878
7878
FCFC
ENDCHAR
STARTCHAR 045E
ENCODING 1118
SWIDTH 504 0
DWIDTH 14 0
BBX 14 24 0 -6
BITMAP
1830
1870
0EE0
0100
0000
FE7C
7C10
3C10
3C10
1E20
1E20
0F40
0F40
07C0
0780
0780
0300
0300
0100
0200
7200
7400
7400
3800
ENDCHAR
STARTCHAR 045F
ENCODING 1119
SWIDTH 576 0
DWIDTH 16 0
BBX 14 16 1 -3
BITMAP
FCFC
7878
7878
7878
7878
7878
7878
7878
7878
7878
7878
7878
FFFC
0700
0300
0200
ENDCHAR
STARTCHAR 0490
ENCODING 1168
SWIDTH 504 0
DWIDTH 14 0
BBX 13 22 1 0
BITMAP
0008
0008
0018
0078
FFF8
3E00
3E00
3E00
3E00
3E00
3E00
3E00
3E00
3E00
3E00
3E00
3E00
3E00
3E00
3E00
3E00
FF80
ENDCHAR
STARTCHAR 0491
ENCODING 1169
SWIDTH 396 0
DWIDTH 11 0
BBX 9 15 1 0
BITMAP
0080
0080
FF80
7800
7800
7800
7800
7800
7800
7800
7800
7800
7800
7800
FE00
ENDCHAR
STARTCHAR 0492
ENCODING 1170
SWIDTH 648 0
DWIDTH 18 0
BBX 17 18 0 0
BITMAP
7FFF80
1F0180
1F0080
1F0080
1F0080
1F0000
1F0000
1F0000
FFF000
1F0000
1F0000
1F0000
1F0000
1F0000
1F0000
1F0000
1F0000
7FC000
ENDCHAR
STARTCHAR 0493
ENCODING 1171
SWIDTH 468 0
DWIDTH 13 0
BBX 12 13 0 0
BITMAP
7FF0
3C30
3C10
3C00
3C00
FF80
FF80
3C00
3C00
3C00
3C00
3C00
7F00
ENDCHAR
STARTCHAR 0496
ENCODING 1174
SWIDTH 972 0
DWIDTH 27 0
BBX 27 24 0 -5
BITMAP
10000180
7C3FC7E0
760F05E0
720F09E0
630F08C0
010F0800
010F1000
018F1000
008F3000
00FFE000
01EF7800
03CF3C00
078F3C00
078F1E00
0F0F1E00
0F0F0F00
1E0F0F00
1E1F0780
FC7FC7E0
000000E0
00000060
00000020
00000020
00000020
ENDCHAR
STARTCHAR 0497
ENCODING 1175
SWIDTH 720 0
DWIDTH 20 0
BBX 20 16 0 -3
BITMAP
31F8E0
78F1F0
68F170
64F260
04F200
02F600
07FF00
0EF780
1EF780
1CF3C0
3CF3C0
38F1E0
F9F9F0
000030
000010
000010
ENDCHAR
STARTCHAR 049A
ENCODING 1178
SWIDTH 720 0
DWIDTH 20 0
BBX 19 24 1 -5
BITMAP
000100
FF87C0
3E0DC0
3E09C0
3E18C0
3E1000
3E1000
3E3000
3E2000
3FE000
3FF000
3EF800
3E7C00
3E3C00
3E3E00
3E1E00
3E1F00
3E0F80
FF8FE0
0001E0
0000E0
000060
000020
000020
ENDCHAR
STARTCHAR 049B
ENCODING 1179
SWIDTH 576 0
DWIDTH 16 0
BBX 15 16 1 -3
BITMAP
FC38
787C
785C
789C
7880
7900
7F80
7BE0
79E0
78F0
78F0
7878
FC7E
000E
0006
0002
ENDCHAR
STARTCHAR 049C
ENCODING 1180
SWIDTH 720 0
DWIDTH 20 0
BBX 19 19 1 0
BITMAP
000100
FF87C0
3E0DC0
3E09C0
3E98C0
3E9000
3E9000
3EB000
3EA000
3FE000
3EF000
3EF800
3EFC00
3EBC00
3EBE00
3E9E00
3E1F00
3E0F80
FF8FE0
ENDCHAR
STARTCHAR 049D
ENCODING 1181
SWIDTH 576 0
DWIDTH 16 0
BBX 15 13 1 0
BITMAP
FC38
787C
785C
7A9C
7A80
7B00
7F80
7BE0
7BE0
7AF0
7AF0
7878
FC7E
ENDCHAR
STARTCHAR 04A2
ENCODING 1186
SWIDTH 792 0
DWIDTH 22 0
BBX 20 23 1 -5
BITMAP
FF9FF0
3E07C0
3E07C0
3E07C0
3E07C0
3E07C0
3E07C0
3E07C0
3FFFC0
3E07C0
3E07C0
3E07C0
3E07C0
3E07C0
3E07C0
3E07C0
3E07C0
FFBFF0
0000F0
000030
000010
000010
000010
ENDCHAR
STARTCHAR 04A3
ENCODING 1187
SWIDTH 576 0
DWIDTH 16 0
BBX 14 16 1 -3
BITMAP
FCFC
7878
7878
7878
7878
7878
7FF8
7878
7878
7878
7878
7878
FCFC
000C
0004
0004
ENDCHAR
STARTCHAR 04AE
ENCODING 1198
SWIDTH 720 0
DWIDTH 20 0
BBX 18 18 1 0
BITMAP
FF03C0
7C0180
3E0100
1E0200
1F0200
0F8400
0F8C00
07C800
07D000
03F000
03E000
01E000
01E000
01E000
01E000
01E000
01E000
0FFC00
ENDCHAR
STARTCHAR 04AF
ENCODING 1199
SWIDTH 504 0
DWIDTH 14 0
BBX 14 19 0 -6
BITMAP
FE7C
7C10
3C10
3C10
1E20
1E20
1E20
0F40
0F40
0F40
0780
0780
0780
0780
0780
0780
0780
0780
0FC0
ENDCHAR
STARTCHAR 04B0
ENCODING 1200
SWIDTH 720 0
DWIDTH 20 0
BBX 18 18 1 0
BITMAP
FF03C0
7C0180
3E0100
1E0200
1F0200
0F8400
0F8C00
07C800
07D000
03F000
03E000
3FFF00
01E000
01E000
01E000
01E000
01E000
0FFC00
ENDCHAR
STARTCHAR 04B1
ENCODING 1201
SWIDTH 504 0
DWIDTH 14 0
BBX 14 19 0 -6
BITMAP
FE7C
7C10
3C10
3C10
1E20
1E20
1E20
0F40
0F40
0F40
0780
0780
FFFC
0780
0780
0780
0780
0780
0FC0
ENDCHAR
STARTCHAR 04B2
ENCODING 1202
SWIDTH 720 0
DWIDTH 20 0
BBX 20 23 0 -5
BITMAP
7F87E0
1F0180
1F8300
0F8200
07C400
07E800
03F000
01F000
01F800
00F800
00FC00
017E00
023E00
061F00
0C1F80
080F80
1807C0
FE1FF0
0000F0
000070
000030
000010
000010
ENDCHAR
STARTCHAR 04B3
ENCODING 1203
SWIDTH 504 0
DWIDTH 14 0
BBX 12 16 1 -3
BITMAP
FFF0
7CC0
3C80
3C80
1F00
1F00
0F00
0F80
0F80
13C0
13C0
23E0
F7F0
0030
0010
0010
ENDCHAR
STARTCHAR 04B8
ENCODING 1208
SWIDTH 720 0
DWIDTH 20 0
BBX 19 18 1 0
BITMAP
FF3FC0
3C0F00
3C0F00
3C8F00
3C8F00
3C8F00
3C8F00
3C8F00
3C8F00
3FFF00
1FCF00
008F00
008F00
008F00
000F00
000F00
000F00
007FE0
ENDCHAR
STARTCHAR 04B9
ENCODING 1209
SWIDTH 576 0
DWIDTH 16 0
BBX 14 13 1 0
BITMAP
FDFC
78F0
78F0
7AF0
7AF0
7AF0
7BF0
3EF0
02F0
02F0
00F0
00F0
01FC
ENDCHAR
STARTCHAR 04BA
ENCODING 1210
SWIDTH 720 0
DWIDTH 20 0
BBX 19 18 1 0
BITMAP
FF8000
3E0000
3E0000
3E0000
3E0000
3E0000
3E0800
3EFF00
3F9F00
3E0F80
3E0F80
3E0F80
3E0F80
3E0F80
3E0F80
3E0F80
3E0F80
FF3FE0
ENDCHAR
STARTCHAR 04BB
ENCODING 1211
SWIDTH 540 0
DWIDTH 15 0
BBX 14 18 1 0
BITMAP
F800
7800
7800
7800
7800
79E0
7BF0
7CF0
78F0
78F0
78F0
78F0
78F0
78F0
78F0
78F0
78F0
FDFC
ENDCHAR
STARTCHAR 04D8
ENCODING 1240
SWIDTH 756 0
DWIDTH 21 0
BBX 19 19 1 0
BITMAP
21F000
3E3C00
381F00
300F00
200780
2007C0
0007C0
0003C0
0003E0
FFFFE0
F803E0
F803C0
F803C0
7807C0
7807C0
780780
3C0F00
1E0E00
07F800
ENDCHAR
STARTCHAR 04D9
ENCODING 1241
SWIDTH 432 0
DWIDTH 12 0
BBX 10 13 1 0
BITMAP
1E00
7F80
4780
83C0
03C0
03C0
01C0
FFC0
E1C0
E1C0
E180
7380
3F00
ENDCHAR
STARTCHAR 04E8
ENCODING 1256
SWIDTH 792 0
DWIDTH 22 0
BBX 20 19 1 0
BITMAP
00F000
079E00
1E0700
3C0380
3C03C0
7803E0
7803E0
F801E0
F801F0
FFFFF0
F801F0
F801E0
F801E0
7803E0
7C03C0
3C03C0
1C0780
0E0F00
07FC00
ENDCHAR
STARTCHAR 04E9
ENCODING 1257
SWIDTH 504 0
DWIDTH 14 0
BBX 12 13 1 0
BITMAP
1F00
39C0
70E0
70E0
F0F0
F0F0
FFF0
F0F0
F0F0
F0E0
70E0
39C0
1F80
ENDCHAR
STARTCHAR 05B0
ENCODING 1456
SWIDTH 324 0
DWIDTH 9 0
BBX 2 5 4 -6
BITMAP
C0
C0
00
C0
C0
ENDCHAR
STARTCHAR 05B1
ENCODING 1457
SWIDTH 324 0
DWIDTH 9 0
BBX 9 5 0 -6
BITMAP
ED80
4980
0000
3180
3180
ENDCHAR
STARTCHAR 05B2
ENCODING 1458
SWIDTH 324 0
DWIDTH 9 0
BBX 8 5 1 -6
BITMAP
F7
02
00
07
02
ENDCHAR
STARTCHAR 05B3
ENCODING 1459
SWIDTH 324 0
DWIDTH 9 0
BBX 9 5 0 -6
BITMAP
FD80
2180
3000
3180
0180
ENDCHAR
STARTCHAR 05B4
ENCODING 1460
SWIDTH 324 0
DWIDTH 9 0
BBX 2 2 4 -4
BITMAP
C0
C0
ENDCHAR
STARTCHAR 05B5
ENCODING 1461
SWIDTH 324 0
DWIDTH 9 0
BBX 5 2 2 -4
BITMAP
D8
D8
ENDCHAR
STARTCHAR 05B6
ENCODING 1462
SWIDTH 324 0
DWIDTH 9 0
BBX 5 5 2 -6
BITMAP
D8
D8
00
30
30
ENDCHAR
STARTCHAR 05B7
ENCODING 1463
SWIDTH 324 0
DWIDTH 9 0
BBX 5 2 2 -4
BITMAP
F8
F8
ENDCHAR
STARTCHAR 05B8
ENCODING 1464
SWIDTH 324 0
DWIDTH 9 0
BBX 5 5 2 -6
BITMAP
F8
F8
20
30
30
ENDCHAR
STARTCHAR 05B9
ENCODING 1465
SWIDTH 324 0
DWIDTH 9 0
BBX 3 3 3 16
BITMAP
40
E0
40
ENDCHAR
STARTCHAR 05BA
ENCODING 1466
SWIDTH 324 0
DWIDTH 9 0
BBX 3 3 3 16
BITMAP
40
E0
40
ENDCHAR
STARTCHAR 05BB
ENCODING 1467
SWIDTH 324 0
DWIDTH 9 0
BBX 9 5 0 -6
BITMAP
E000
4800
1C00
0180
0180
ENDCHAR
STARTCHAR 05BC
ENCODING 1468
SWIDTH 324 0
DWIDTH 9 0
BBX 2 2 4 6
BITMAP
C0
80
ENDCHAR
STARTCHAR 05BD
ENCODING 1469
SWIDTH 324 0
DWIDTH 9 0
BBX 1 5 4 -6
BITMAP
80
80
80
80
80
ENDCHAR
STARTCHAR 05BE
ENCODING 1470
SWIDTH 360 0
DWIDTH 10 0
BBX 8 4 1 10
BITMAP
FF
FF
FF
FF
ENDCHAR
STARTCHAR 05BF
ENCODING 1471
SWIDTH 324 0
DWIDTH 9 0
BBX 5 1 2 17
BITMAP
F8
ENDCHAR
STARTCHAR 05C0
ENCODING 1472
SWIDTH 324 0
DWIDTH 9 0
BBX 3 17 3 -1
BITMAP
E0
E0
E0
E0
E0
E0
E0
E0
E0
E0
E0
E0
E0
E0
E0
E0
E0
ENDCHAR
STARTCHAR 05C1
ENCODING 1473
SWIDTH 360 0
DWIDTH 10 0
BBX 3 3 9 16
BITMAP
40
E0
40
ENDCHAR
STARTCHAR 05C2
ENCODING 1474
SWIDTH 360 0
DWIDTH 10 0
BBX 2 2 -2 17
BITMAP
C0
C0
ENDCHAR
STARTCHAR 05C3
ENCODING 1475
SWIDTH 324 0
DWIDTH 9 0
BBX 5 15 2 0
BITMAP
20
78
F8
78
70
00
00
00
00
00
00
70
F8
F8
70
ENDCHAR
STARTCHAR 05D0
ENCODING 1488
SWIDTH 540 0
DWIDTH 15 0
BBX 13 15 1 -1
BITMAP
4180
E1F0
F1F8
F9F8
7CF8
7E60
3F40
6FC0
67C0
E3E0
F1F0
F8F8
7878
7C38
F810
ENDCHAR
STARTCHAR 05D1
ENCODING 1489
SWIDTH 468 0
DWIDTH 13 0
BBX 11 15 1 0
BITMAP
4000
FF80
FF80
FFC0
7FC0
01C0
00C0
00C0
00C0
00C0
FFE0
FFE0
FFE0
FFE0
FFE0
ENDCHAR
STARTCHAR 05D2
ENCODING 1490
SWIDTH 360 0
DWIDTH 10 0
BBX 9 15 1 0
BITMAP
6000
7E00
7E00
7E00
7E00
0C00
0400
0400
0600
0700
FB80
FB80
F380
F180
F100
ENDCHAR
STARTCHAR 05D3
ENCODING 1491
SWIDTH 468 0
DWIDTH 13 0
BBX 11 15 1 0
BITMAP
C000
FFE0
FFE0
FFE0
FFE0
00C0
0100
0300
0300
0300
0300
0300
0300
0300
0200
ENDCHAR
STARTCHAR 05D4
ENCODING 1492
SWIDTH 504 0
DWIDTH 14 0
BBX 12 15 1 0
BITMAP
4000
FFF0
FFF0
FFF0
7FF0
0020
0060
0060
3060
6060
E060
E060
E060
E060
C040
ENDCHAR
STARTCHAR 05D5
ENCODING 1493
SWIDTH 288 0
DWIDTH 8 0
BBX 6 15 1 0
BITMAP
C0
F8
FC
FC
7C
1C
0C
0C
0C
0C
0C
0C
0C
0C
0C
ENDCHAR
STARTCHAR 05D6
ENCODING 1494
SWIDTH 324 0
DWIDTH 9 0
BBX 7 15 1 0
BITMAP
C0
FC
FE
FE
7E
18
10
30
30
30
38
38
38
38
30
ENDCHAR
STARTCHAR 05D7
ENCODING 1495
SWIDTH 504 0
DWIDTH 14 0
BBX 12 15 1 0
BITMAP
C000
FFF0
FFF0
FFF0
FFF0
3020
2060
6040
6060
6060
6060
E060
E060
6060
C0C0
ENDCHAR
STARTCHAR 05D8
ENCODING 1496
SWIDTH 540 0
DWIDTH 15 0
BBX 13 15 1 0
BITMAP
C000
F8E0
F9F0
F9F0
F9F0
2138
2218
6018
6010
6010
7FF0
7FF0
3FF0
3FF0
3FE0
ENDCHAR
STARTCHAR 05D9
ENCODING 1497
SWIDTH 324 0
DWIDTH 9 0
BBX 7 10 1 5
BITMAP
C0
FC
FC
FE
FE
0E
06
04
04
08
ENDCHAR
STARTCHAR 05DA
ENCODING 1498
SWIDTH 468 0
DWIDTH 13 0
BBX 11 20 1 -5
BITMAP
C000
FFE0
FFE0
FFE0
FFE0
00C0
0080
0080
00C0
00C0
00C0
00C0
00C0
00C0
00C0
00C0
00C0
00C0
0080
0080
ENDCHAR
STARTCHAR 05DB
ENCODING 1499
SWIDTH 432 0
DWIDTH 12 0
BBX 10 15 1 0
BITMAP
4000
FF00
FF80
FFC0
7FC0
01C0
0040
0040
0040
0040
FFC0
FFC0
FF80
FF80
FE00
ENDCHAR
STARTCHAR 05DC
ENCODING 1500
SWIDTH 432 0
DWIDTH 12 0
BBX 11 21 0 0
BITMAP
8000
E000
F000
F000
2000
2000
6000
7FC0
7FE0
7FE0
7FE0
00E0
0060
0060
0040
00C0
0180
0300
0600
0600
0600
ENDCHAR
STARTCHAR 05DD
ENCODING 1501
SWIDTH 504 0
DWIDTH 14 0
BBX 12 15 1 0
BITMAP
4000
FFE0
FFE0
FFF0
7FF0
3070
6030
6030
C030
C030
FFF0
FFF0
FFF0
FFF0
FFF0
ENDCHAR
STARTCHAR 05DE
ENCODING 1502
SWIDTH 540 0
DWIDTH 15 0
BBX 13 15 1 0
BITMAP
C100
F9C0
F9E0
FBF0
7FF0
1EF0
1838
3018
2018
6018
47F8
47F0
C7F0
C7F0
C7F0
ENDCHAR
STARTCHAR 05DF
ENCODING 1503
SWIDTH 324 0
DWIDTH 9 0
BBX 7 20 1 -5
BITMAP
C0
FC
FE
FE
7E
0E
04
04
0C
0C
0C
0C
0C
0E
0E
0E
0E
0E
0C
08
ENDCHAR
STARTCHAR 05E0
ENCODING 1504
SWIDTH 324 0
DWIDTH 9 0
BBX 7 15 1 0
BITMAP
60
FC
FE
FC
7C
0C
04
04
04
04
FC
FE
FE
FE
FE
ENDCHAR
STARTCHAR 05E1
ENCODING 1505
SWIDTH 468 0
DWIDTH 13 0
BBX 11 15 1 0
BITMAP
4000
FFC0
FFC0
FFE0
FFE0
20E0
4020
4020
C020
E060
FBE0
7FE0
7FC0
3FC0
1F80
ENDCHAR
STARTCHAR 05E2
ENCODING 1506
SWIDTH 504 0
DWIDTH 14 0
BBX 12 16 1 -1
BITMAP
C180
F9F0
FDF0
FDF0
7CF0
2020
3020
3860
3C60
0CC0
07C0
FFC0
FFC0
FFC0
FF80
E000
ENDCHAR
STARTCHAR 05E3
ENCODING 1507
SWIDTH 504 0
DWIDTH 14 0
BBX 12 20 1 -5
BITMAP
C000
FFC0
FFE0
FFE0
FFE0
20E0
6060
6060
7060
7860
7860
7860
0060
0060
0070
0070
0070
0070
0060
0040
ENDCHAR
STARTCHAR 05E4
ENCODING 1508
SWIDTH 468 0
DWIDTH 13 0
BBX 11 15 1 0
BITMAP
4000
FF80
FF80
FFC0
7FC0
40C0
4060
7860
7860
0040
7FC0
FFC0
FFC0
FF80
FF00
ENDCHAR
STARTCHAR 05E5
ENCODING 1509
SWIDTH 576 0
DWIDTH 16 0
BBX 14 19 1 -5
BITMAP
C0C0
FCF8
FDFC
FCFC
7CFC
0C60
08C0
0980
0B00
1E00
1C00
1C00
1C00
1C00
1C00
0C00
0C00
0C00
0800
ENDCHAR
STARTCHAR 05E6
ENCODING 1510
SWIDTH 504 0
DWIDTH 14 0
BBX 12 15 1 0
BITMAP
C180
F9F0
F9F0
F9F0
79F0
0840
04C0
0780
0780
01C0
7FE0
7FF0
7FF0
FFE0
FFE0
ENDCHAR
STARTCHAR 05E7
ENCODING 1511
SWIDTH 468 0
DWIDTH 13 0
BBX 11 19 1 -5
BITMAP
C000
FFE0
FFE0
FFE0
7FE0
00E0
0020
0020
4060
40C0
4300
4600
4600
4E00
4E00
4000
4000
4000
4000
ENDCHAR
STARTCHAR 05E8
ENCODING 1512
SWIDTH 468 0
DWIDTH 13 0
BBX 10 15 1 0
BITMAP
C000
FF80
FFC0
FFC0
FFC0
01C0
0040
0040
0040
0040
0040
0040
0040
0040
0040
ENDCHAR
STARTCHAR 05E9
ENCODING 1513
SWIDTH 684 0
DWIDTH 19 0
BBX 17 15 1 0
BITMAP
C30600
FBEF80
FBEF80
FBEF80
F9E780
208380
208300
618200
610600
630400
7FFC00
3FFC00
3FFC00
3FF800
3FF800
ENDCHAR
STARTCHAR 05EA
ENCODING 1514
SWIDTH 504 0
DWIDTH 14 0
BBX 13 15 0 0
BITMAP
3000
3FF0
3FF8
3FF8
3FF8
0438
0C18
0818
1818
1818
7C18
7C18
7C18
7C18
FC18
ENDCHAR
STARTCHAR 05F0
ENCODING 1520
SWIDTH 612 0
DWIDTH 17 0
BBX 14 15 1 0
BITMAP
C0C0
F8FC
FCFC
FCFC
7C7C
1C1C
0C0C
0C04
0C04
0C04
0C04
0C04
0C04
0C04
0C04
ENDCHAR
STARTCHAR 05F1
ENCODING 1521
SWIDTH 612 0
DWIDTH 17 0
BBX 14 15 1 0
BITMAP
C060
FCFC
FCFC
FE7C
FE7C
0E0C
0604
0404
0404
0804
0004
0004
0004
0004
0004
ENDCHAR
STARTCHAR 05F2
ENCODING 1522
SWIDTH 612 0
DWIDTH 17 0
BBX 15 10 1 5
BITMAP
C040
FCFE
FCFE
FEFE
FE7E
0E0E
0602
0402
0406
080C
ENDCHAR
STARTCHAR 05F3
ENCODING 1523
SWIDTH 252 0
DWIDTH 7 0
BBX 4 9 2 6
BITMAP
60
F0
F0
E0
E0
C0
C0
80
80
ENDCHAR
STARTCHAR 05F4
ENCODING 1524
SWIDTH 468 0
DWIDTH 13 0
BBX 10 9 2 6
BITMAP
6180
F3C0
F380
E380
E300
C300
C200
8200
8000
ENDCHAR
STARTCHAR 060C
ENCODING 1548
SWIDTH 324 0
DWIDTH 9 0
BBX 5 8 2 4
BITMAP
30
60
40
C0
E0
F8
78
70
ENDCHAR
STARTCHAR 061B
ENCODING 1563
SWIDTH 324 0
DWIDTH 9 0
BBX 5 12 2 5
BITMAP
20
40
C0
C0
F0
F8
70
20
00
30
70
70
ENDCHAR
STARTCHAR 061F
ENCODING 1567
SWIDTH 360 0
DWIDTH 10 0
BBX 8 16 1 4
BITMAP
1C
62
E3
E7
E7
F6
F0
70
38
18
08
08
00
18
3C
18
ENDCHAR
STARTCHAR 0621
ENCODING 1569
SWIDTH 468 0
DWIDTH 13 0
BBX 9 13 2 1
BITMAP
1C00
3E00
7E00
6E00
E000
F180
FF80
7F80
3E00
7000
6000
C000
8000
ENDCHAR
STARTCHAR 0622
ENCODING 1570
SWIDTH 252 0
DWIDTH 7 0
BBX 7 20 0 3
BITMAP
E2
1C
00
10
30
30
30
30
30
38
18
18
18
18
18
18
18
18
10
10
ENDCHAR
STARTCHAR 0623
ENCODING 1571
SWIDTH 216 0
DWIDTH 6 0
BBX 3 21 2 3
BITMAP
C0
80
E0
00
40
40
C0
C0
C0
C0
E0
60
60
60
60
60
60
60
60
40
40
ENDCHAR
STARTCHAR 0624
ENCODING 1572
SWIDTH 468 0
DWIDTH 13 0
BBX 13 20 0 -2
BITMAP
0600
0800
0600
0800
0000
00E0
00F0
01F0
01B0
0198
01F8
01F8
01F8
00F8
0030
0070
C1E0
7FE0
1FC0
0700
ENDCHAR
STARTCHAR 0625
ENCODING 1573
SWIDTH 216 0
DWIDTH 6 0
BBX 3 22 2 -2
BITMAP
40
C0
C0
C0
C0
C0
E0
60
60
60
60
60
60
60
60
40
40
00
00
C0
80
C0
ENDCHAR
STARTCHAR 0626
ENCODING 1574
SWIDTH 648 0
DWIDTH 18 0
BBX 14 17 2 -2
BITMAP
3000
4000
7018
003C
007C
00EC
2080
4180
41F8
41F8
80F8
8008
C078
E3F0
FFE0
7F80
1C00
ENDCHAR
STARTCHAR 0627
ENCODING 1575
SWIDTH 216 0
DWIDTH 6 0
BBX 3 17 2 3
BITMAP
40
C0
C0
C0
C0
C0
E0
60
60
60
60
60
60
60
60
40
40
ENDCHAR
STARTCHAR 0628
ENCODING 1576
SWIDTH 648 0
DWIDTH 18 0
BBX 17 16 1 -2
BITMAP
000100
400100
C00180
800380
800180
C00180
FFFF80
FFFF80
7FFF80
3FFF80
000000
008000
00E000
01E000
01E000
004000
ENDCHAR
STARTCHAR 0629
ENCODING 1577
SWIDTH 360 0
DWIDTH 10 0
BBX 7 18 1 3
BITMAP
0C
5E
FC
EC
60
00
00
30
38
7E
7E
4E
46
C6
FE
FE
7C
20
ENDCHAR
STARTCHAR 062A
ENCODING 1578
SWIDTH 648 0
DWIDTH 18 0
BBX 17 14 1 4
BITMAP
006000
037000
03F000
072000
010100
400100
C00180
800380
800180
C00180
FFFF80
FFFF80
7FFF80
3FFF80
ENDCHAR
STARTCHAR 062B
ENCODING 1579
SWIDTH 648 0
DWIDTH 18 0
BBX 17 17 1 4
BITMAP
018000
038000
038000
006000
037000
03F000
07A000
010100
400100
C00180
800380
800180
C00180
FFFF80
FFFF80
7FFF80
3FFF80
ENDCHAR
STARTCHAR 062C
ENCODING 1580
SWIDTH 576 0
DWIDTH 16 0
BBX 15 21 1 -6
BITMAP
0E00
7FF8
7FF8
FFF0
CFC0
1E00
3800
6000
6000
C180
C3C0
C3C0
C180
C000
E000
F000
7C00
7FFE
3FF8
1FE0
00C0
ENDCHAR
STARTCHAR 062D
ENCODING 1581
SWIDTH 576 0
DWIDTH 16 0
BBX 15 21 1 -6
BITMAP
0E00
7FF8
7FF8
FFF0
CFC0
1E00
3800
6000
6000
C000
C000
C000
C000
C000
E000
F000
7C00
7FFE
3FF8
1FE0
00C0
ENDCHAR
STARTCHAR 062E
ENCODING 1582
SWIDTH 576 0
DWIDTH 16 0
BBX 15 27 1 -6
BITMAP
0400
0700
0F00
0F00
0200
0000
0E00
7FF8
7FF8
FFF0
CFC0
1E00
3800
6000
6000
C000
C000
C000
C000
C000
E000
F000
7C00
7FFE
3FF8
1FE0
00C0
ENDCHAR
STARTCHAR 062F
ENCODING 1583
SWIDTH 360 0
DWIDTH 10 0
BBX 9 13 1 4
BITMAP
0400
0600
0600
0700
0F00
0300
0300
0180
0180
7F80
FF80
FF80
7F80
ENDCHAR
STARTCHAR 0630
ENCODING 1584
SWIDTH 360 0
DWIDTH 10 0
BBX 9 19 1 4
BITMAP
1800
3C00
7C00
1800
0000
0000
0400
0600
0600
0700
0F00
0300
0300
0180
0180
7F80
FF80
FF80
7F80
ENDCHAR
STARTCHAR 0631
ENCODING 1585
SWIDTH 432 0
DWIDTH 12 0
BBX 12 14 0 -1
BITMAP
0020
0030
0070
0030
0030
0010
0010
0030
0070
00F0
81E0
77C0
3F80
0F00
ENDCHAR
STARTCHAR 0632
ENCODING 1586
SWIDTH 432 0
DWIDTH 12 0
BBX 12 21 0 -2
BITMAP
00C0
01E0
01E0
00C0
0000
0000
0000
0020
0030
0070
0030
0030
0010
0010
0030
0070
00F0
81E0
77C0
3F80
0F00
ENDCHAR
STARTCHAR 0633
ENCODING 1587
SWIDTH 900 0
DWIDTH 25 0
BBX 24 15 1 -2
BITMAP
000800
000801
000C13
201C13
200C13
400FFF
400FFF
C007FF
C007EF
C00C00
E01C00
FFFC00
7FF800
3FF000
0F8000
ENDCHAR
STARTCHAR 0634
ENCODING 1588
SWIDTH 900 0
DWIDTH 25 0
BBX 24 23 1 -1
BITMAP
000070
000070
000060
00000C
00007E
0000FC
0000E4
000020
000800
000801
000C13
201C13
200C13
400FFF
400FFF
C007FF
C007EF
C00C00
E01C00
FFFC00
7FF800
3FF000
0F8000
ENDCHAR
STARTCHAR 0635
ENCODING 1589
SWIDTH 1080 0
DWIDTH 30 0
BBX 29 16 1 -2
BITMAP
000001E0
000803F0
00080FF0
000C1FF0
201C3818
200CF038
400FFFF8
400FFFF8
C007FFF8
C007FFF8
C00C0000
E01C0000
FFFC0000
7FF80000
3FF00000
0F800000
ENDCHAR
STARTCHAR 0636
ENCODING 1590
SWIDTH 1080 0
DWIDTH 30 0
BBX 29 22 1 -2
BITMAP
00003000
00007800
00007800
00003000
00000000
00000000
000001E0
000803F0
00080FF0
000C1FF0
201C3818
200CF038
400FFFF8
400FFFF8
C007FFF8
C007FFF8
C00C0000
E01C0000
FFFC0000
7FF80000
3FF00000
0F800000
ENDCHAR
STARTCHAR 0637
ENCODING 1591
SWIDTH 540 0
DWIDTH 15 0
BBX 16 19 -1 4
BITMAP
0800
0800
0E00
1F00
1E00
0E00
0C00
0600
0600
063C
067E
07FE
07FF
0707
1E07
FFFF
FFFF
FFFF
FFFF
ENDCHAR
STARTCHAR 0638
ENCODING 1592
SWIDTH 540 0
DWIDTH 15 0
BBX 16 19 -1 4
BITMAP
0800
0800
0E00
1F30
1E78
0E78
0C30
0600
0600
063C
067E
07FE
07FF
0707
1E07
FFFF
FFFF
FFFF
FFFF
ENDCHAR
STARTCHAR 0639
ENCODING 1593
SWIDTH 540 0
DWIDTH 15 0
BBX 14 23 1 -6
BITMAP
0400
3F80
3FC0
7800
6000
6000
F1E0
7FE0
7FC0
3E00
7800
6000
C000
C000
8000
8000
C000
E000
F800
FFFC
7FF0
3FE0
0380
ENDCHAR
STARTCHAR 063A
ENCODING 1594
SWIDTH 540 0
DWIDTH 15 0
BBX 14 29 1 -6
BITMAP
0800
1C00
1E00
1C00
0400
0000
0400
3F80
3FC0
7800
6000
6000
F1E0
7FE0
7FC0
3E00
7800
6000
C000
C000
8000
8000
C000
E000
F800
FFFC
7FF0
3FE0
0380
ENDCHAR
STARTCHAR 0640
ENCODING 1600
SWIDTH 216 0
DWIDTH 6 0
BBX 7 4 -1 4
BITMAP
FE
FE
FE
FE
ENDCHAR
STARTCHAR 0641
ENCODING 1601
SWIDTH 756 0
DWIDTH 21 0
BBX 20 17 1 5
BITMAP
0001C0
0001E0
0003C0
0000C0
000000
000000
0000E0
4001E0
4003F0
C003F0
800370
8007F0
C003F0
FCFFF0
FFFFF0
FFFFF0
7FFFF0
ENDCHAR
STARTCHAR 0642
ENCODING 1602
SWIDTH 612 0
DWIDTH 17 0
BBX 16 22 1 -4
BITMAP
0004
006E
007E
00F4
0020
000C
001E
003E
003F
2027
203F
407F
C03F
801F
8001
8001
C003
E00F
FFFE
FFFC
3FF8
0380
ENDCHAR
STARTCHAR 0643
ENCODING 1603
SWIDTH 540 0
DWIDTH 15 0
BBX 14 17 1 5
BITMAP
0010
0038
01BC
01BC
0218
0318
0398
0398
4188
C788
9E0C
800C
C00C
FFFC
FFFC
FFFC
3FFC
ENDCHAR
STARTCHAR 0644
ENCODING 1604
SWIDTH 468 0
DWIDTH 13 0
BBX 13 22 0 -1
BITMAP
0040
0070
0070
0070
0070
0060
0020
0030
0030
0030
1030
2010
2010
4018
4018
4018
4038
E070
7FF0
7FE0
7FC0
1F00
ENDCHAR
STARTCHAR 0645
ENCODING 1605
SWIDTH 360 0
DWIDTH 10 0
BBX 10 18 0 -6
BITMAP
0E00
1F00
1F80
3780
23C0
1FC0
7FC0
7FC0
7000
C000
4000
6000
6000
2000
2000
2000
2000
2000
ENDCHAR
STARTCHAR 0646
ENCODING 1606
SWIDTH 540 0
DWIDTH 15 0
BBX 14 19 1 -2
BITMAP
0200
0380
0780
0380
0108
0008
000C
201C
200C
400C
C00C
C004
C004
C00C
E01C
FFFC
7FF8
7FF0
0F80
ENDCHAR
STARTCHAR 0647
ENCODING 1607
SWIDTH 360 0
DWIDTH 10 0
BBX 7 11 1 3
BITMAP
30
38
7E
7E
4E
46
C6
FE
FE
7C
20
ENDCHAR
STARTCHAR 0648
ENCODING 1608
SWIDTH 468 0
DWIDTH 13 0
BBX 13 15 0 -2
BITMAP
00E0
00F0
01F0
01B0
0198
01F8
01F8
01F8
00F8
0030
0070
C1E0
7FE0
1FC0
0700
ENDCHAR
STARTCHAR 0649
ENCODING 1609
SWIDTH 648 0
DWIDTH 18 0
BBX 14 15 2 -2
BITMAP
0018
003C
007C
00EC
2080
4180
41F8
41F8
80F8
8008
C078
E3F0
FFE0
7F80
1C00
ENDCHAR
STARTCHAR 064A
ENCODING 1610
SWIDTH 648 0
DWIDTH 18 0
BBX 14 18 2 -5
BITMAP
0018
003C
007C
00EC
2080
4180
41F8
41F8
80F8
8008
C078
E3F0
FFE0
7F80
1C00
00C0
07C0
0600
ENDCHAR
STARTCHAR 064B
ENCODING 1611
SWIDTH 216 0
DWIDTH 6 0
BBX 5 5 1 19
BITMAP
08
70
88
70
80
ENDCHAR
STARTCHAR 064C
ENCODING 1612
SWIDTH 252 0
DWIDTH 7 0
BBX 6 5 1 19
BITMAP
1C
18
D8
58
60
ENDCHAR
STARTCHAR 064D
ENCODING 1613
SWIDTH 216 0
DWIDTH 6 0
BBX 4 5 1 -4
BITMAP
10
60
90
60
80
ENDCHAR
STARTCHAR 064E
ENCODING 1614
SWIDTH 216 0
DWIDTH 6 0
BBX 5 3 1 19
BITMAP
08
70
80
ENDCHAR
STARTCHAR 064F
ENCODING 1615
SWIDTH 216 0
DWIDTH 6 0
BBX 4 6 2 19
BITMAP
20
70
60
30
50
80
ENDCHAR
STARTCHAR 0650
ENCODING 1616
SWIDTH 216 0
DWIDTH 6 0
BBX 4 3 1 -2
BITMAP
10
60
80
ENDCHAR
STARTCHAR 0651
ENCODING 1617
SWIDTH 216 0
DWIDTH 6 0
BBX 5 4 1 19
BITMAP
28
A8
F8
C0
ENDCHAR
STARTCHAR 0652
ENCODING 1618
SWIDTH 180 0
DWIDTH 5 0
BBX 4 4 1 19
BITMAP
60
B0
A0
E0
ENDCHAR
STARTCHAR 0653
ENCODING 1619
SWIDTH 252 0
DWIDTH 7 0
BBX 7 2 0 21
BITMAP
E2
1C
ENDCHAR
STARTCHAR 0654
ENCODING 1620
SWIDTH 216 0
DWIDTH 6 0
BBX 3 4 2 21
BITMAP
40
C0
C0
E0
ENDCHAR
STARTCHAR 0655
ENCODING 1621
SWIDTH 216 0
DWIDTH 6 0
BBX 3 3 2 -2
BITMAP
C0
80
E0
ENDCHAR
STARTCHAR 0660
ENCODING 1632
SWIDTH 576 0
DWIDTH 16 0
BBX 5 6 5 7
BITMAP
60
70
78
F8
70
10
ENDCHAR
STARTCHAR 0661
ENCODING 1633
SWIDTH 576 0
DWIDTH 16 0
BBX 5 16 5 4
BITMAP
40
40
E0
F0
F0
70
78
38
38
18
18
18
18
08
08
08
ENDCHAR
STARTCHAR 0662
ENCODING 1634
SWIDTH 576 0
DWIDTH 16 0
BBX 8 16 4 4
BITMAP
01
C1
E3
FF
FE
7E
7C
38
38
18
18
18
08
08
08
08
ENDCHAR
STARTCHAR 0663
ENCODING 1635
SWIDTH 576 0
DWIDTH 16 0
BBX 11 16 2 4
BITMAP
4100
4120
63E0
FFE0
FFE0
7FE0
3DC0
3800
1800
1800
1800
1800
0800
0800
0800
0800
ENDCHAR
STARTCHAR 0664
ENCODING 1636
SWIDTH 576 0
DWIDTH 16 0
BBX 7 16 4 4
BITMAP
04
08
18
38
60
70
FC
FC
78
10
20
70
7E
7E
7E
1C
ENDCHAR
STARTCHAR 0665
ENCODING 1637
SWIDTH 576 0
DWIDTH 16 0
BBX 9 12 3 6
BITMAP
0800
1E00
3F00
3F80
6F80
4380
4080
FF80
FF80
FF00
7E00
1000
ENDCHAR
STARTCHAR 0666
ENCODING 1638
SWIDTH 576 0
DWIDTH 16 0
BBX 9 15 3 4
BITMAP
8000
C600
FE00
FC00
FC00
7C00
0400
0600
0600
0600
0700
0780
0780
0380
0100
ENDCHAR
STARTCHAR 0667
ENCODING 1639
SWIDTH 576 0
DWIDTH 16 0
BBX 11 16 2 4
BITMAP
0020
C060
E060
E0E0
F0E0
F1C0
7180
3980
1900
1B00
0F00
0E00
0600
0600
0600
0600
ENDCHAR
STARTCHAR 0668
ENCODING 1640
SWIDTH 576 0
DWIDTH 16 0
BBX 10 16 3 4
BITMAP
0800
0800
1800
1C00
1C00
1600
3600
3700
6300
6380
E3C0
C1C0
C1C0
C0C0
80C0
0040
ENDCHAR
STARTCHAR 0669
ENCODING 1641
SWIDTH 576 0
DWIDTH 16 0
BBX 9 16 3 4
BITMAP
1C00
3E00
7E00
7E00
C600
FE00
FE00
FE00
7E00
0600
0300
0380
0380
0300
0300
0100
ENDCHAR
STARTCHAR 066A
ENCODING 1642
SWIDTH 540 0
DWIDTH 15 0
BBX 11 20 2 2
BITMAP
2060
F040
F0C0
6080
0180
0100
0300
0200
0600
0400
0C00
0800
1800
1000
3000
2000
61C0
41C0
C1C0
0080
ENDCHAR
STARTCHAR 066B
ENCODING 1643
SWIDTH 324 0
DWIDTH 9 0
BBX 3 6 3 1
BITMAP
E0
E0
E0
60
40
80
ENDCHAR
STARTCHAR 066C
ENCODING 1644
SWIDTH 324 0
DWIDTH 9 0
BBX 5 8 2 4
BITMAP
30
60
40
C0
E0
F8
78
70
ENDCHAR
STARTCHAR 066D
ENCODING 1645
SWIDTH 540 0
DWIDTH 15 0
BBX 9 9 3 12
BITMAP
5800
7F00
7600
DB80
FF80
3600
7F00
5A00
1800
ENDCHAR
STARTCHAR 066E
ENCODING 1646
SWIDTH 648 0
DWIDTH 18 0
BBX 17 10 1 4
BITMAP
000100
400100
C00180
800380
800180
C00180
FFFF80
FFFF80
7FFF80
3FFF80
ENDCHAR
STARTCHAR 066F
ENCODING 1647
SWIDTH 612 0
DWIDTH 17 0
BBX 16 17 1 -4
BITMAP
000C
001E
003E
003F
2027
203F
407F
C03F
801F
8001
8001
C003
E00F
FFFE
FFFC
3FF8
0380
ENDCHAR
STARTCHAR 0670
ENCODING 1648
SWIDTH 0 0
DWIDTH 0 0
BBX 2 7 -1 15
BITMAP
80
80
40
40
40
40
40
ENDCHAR
STARTCHAR 0671
ENCODING 1649
SWIDTH 216 0
DWIDTH 6 0
BBX 6 22 0 3
BITMAP
08
34
7C
F0
00
10
30
30
30
30
30
38
18
18
18
18
18
18
18
18
10
10
ENDCHAR
STARTCHAR 0672
ENCODING 1650
SWIDTH 216 0
DWIDTH 6 0
BBX 5 22 0 3
BITMAP
10
30
20
F0
00
10
30
30
30
30
30
38
18
18
18
18
18
18
18
18
10
10
ENDCHAR
STARTCHAR 0673
ENCODING 1651
SWIDTH 216 0
DWIDTH 6 0
BBX 4 22 1 -2
BITMAP
20
60
60
60
60
60
70
30
30
30
30
30
30
30
30
20
20
00
10
30
60
F0
ENDCHAR
STARTCHAR 0674
ENCODING 1652
SWIDTH 216 0
DWIDTH 6 0
BBX 3 4 2 21
BITMAP
40
C0
C0
E0
ENDCHAR
STARTCHAR 0675
ENCODING 1653
SWIDTH 216 0
DWIDTH 6 0
BBX 6 18 2 3
BITMAP
04
5C
D8
DC
C0
C0
C0
E0
60
60
60
60
60
60
60
60
40
40
ENDCHAR
STARTCHAR 0676
ENCODING 1654
SWIDTH 468 0
DWIDTH 13 0
BBX 13 21 0 -2
BITMAP
0018
0010
0018
0000
0000
0000
00E0
00F0
01F0
01B0
0198
01F8
01F8
01F8
00F8
0030
0070
C1E0
7FE0
1FC0
0700
ENDCHAR
STARTCHAR 0677
ENCODING 1655
SWIDTH 468 0
DWIDTH 13 0
BBX 13 22 0 -2
BITMAP
0180
0298
0190
0198
0200
0400
0000
00E0
00F0
01F0
01B0
0198
01F8
01F8
01F8
00F8
0030
0070
C1E0
7FE0
1FC0
0700
ENDCHAR
STARTCHAR 0678
ENCODING 1656
SWIDTH 648 0
DWIDTH 18 0
BBX 16 21 2 -2
BITMAP
0006
0004
0007
0008
0000
0000
0018
003C
007C
00EC
2080
4180
41F8
41F8
80F8
8008
C078
E3F0
FFE0
7F80
1C00
ENDCHAR
STARTCHAR 0679
ENCODING 1657
SWIDTH 648 0
DWIDTH 18 0
BBX 17 19 1 4
BITMAP
010000
030000
010000
010000
017000
01F000
031000
07F000
07F000
000100
400100
C00180
800380
800180
C00180
FFFF80
FFFF80
7FFF80
3FFF80
ENDCHAR
STARTCHAR 067A
ENCODING 1658
SWIDTH 648 0
DWIDTH 18 0
BBX 17 17 1 4
BITMAP
030000
038000
078000
018000
00E000
01E000
00C000
000100
400100
C00180
800380
800180
C00180
FFFF80
FFFF80
7FFF80
3FFF80
ENDCHAR
STARTCHAR 067B
ENCODING 1659
SWIDTH 648 0
DWIDTH 18 0
BBX 17 18 1 -5
BITMAP
000100
400100
C00180
800380
800180
C00180
FFFF80
FFFF80
7FFF80
3FFF80
000000
008000
01E000
01C000
00C000
007000
007000
007000
ENDCHAR
STARTCHAR 067C
ENCODING 1660
SWIDTH 648 0
DWIDTH 18 0
BBX 17 17 1 1
BITMAP
006000
037000
03F000
072000
010100
400100
C00180
800380
800180
C00180
FFFF80
FFFF80
7FFF80
3FFF80
016000
012000
01C000
ENDCHAR
STARTCHAR 067D
ENCODING 1661
SWIDTH 648 0
DWIDTH 18 0
BBX 17 17 1 4
BITMAP
006000
02E000
07E000
070000
02C000
00E000
01E000
004100
400100
C00180
800380
800180
C00180
FFFF80
FFFF80
7FFF80
3FFF80
ENDCHAR
STARTCHAR 067E
ENCODING 1662
SWIDTH 648 0
DWIDTH 18 0
BBX 17 19 1 -5
BITMAP
000100
400100
C00180
800380
800180
C00180
FFFF80
FFFF80
7FFF80
3FFF80
000000
002000
017000
03F000
03A000
034000
007000
00E000
006000
ENDCHAR
STARTCHAR 067F
ENCODING 1663
SWIDTH 648 0
DWIDTH 18 0
BBX 17 18 1 4
BITMAP
008000
04E000
07C000
0EC000
062000
017000
03F000
03A000
010100
400100
C00180
800380
800180
C00180
FFFF80
FFFF80
7FFF80
3FFF80
ENDCHAR
STARTCHAR 0680
ENCODING 1664
SWIDTH 648 0
DWIDTH 18 0
BBX 17 20 1 -6
BITMAP
000100
400100
C00180
800380
800180
C00180
FFFF80
FFFF80
7FFF80
3FFF80
000000
004000
02F000
07E000
076000
023800
01B800
01F800
03C000
008000
ENDCHAR
STARTCHAR 0681
ENCODING 1665
SWIDTH 576 0
DWIDTH 16 0
BBX 15 26 1 -6
BITMAP
0180
0200
0180
0200
0000
0E00
7FF8
7FF8
FFF0
CFC0
1E00
3800
6000
6000
C000
C000
C000
C000
C000
E000
F000
7C00
7FFE
3FF8
1FE0
00C0
ENDCHAR
STARTCHAR 0682
ENCODING 1666
SWIDTH 576 0
DWIDTH 16 0
BBX 15 29 1 -5
BITMAP
0E00
0E00
0C00
0300
0380
0780
0100
0000
0E00
7FF8
7FF8
FFF0
CFC0
1E00
3800
6000
6000
C000
C000
C000
C000
C000
E000
F000
7C00
7FFE
3FF8
1FE0
00C0
ENDCHAR
STARTCHAR 0683
ENCODING 1667
SWIDTH 576 0
DWIDTH 16 0
BBX 15 21 1 -6
BITMAP
0E00
7FF8
7FF8
FFF0
CFC0
1E00
3800
6000
6040
C2E0
C7E0
C740
C200
C000
E000
F000
7C00
7FFE
3FF8
1FE0
00C0
ENDCHAR
STARTCHAR 0684
ENCODING 1668
SWIDTH 576 0
DWIDTH 16 0
BBX 15 21 1 -6
BITMAP
0E00
7FF8
7FF8
FFF0
CFC0
1E00
3800
6000
6300
C780
C700
C180
C0E0
C1C0
E0C0
F000
7C00
7FFE
3FF8
1FE0
00C0
ENDCHAR
STARTCHAR 0685
ENCODING 1669
SWIDTH 576 0
DWIDTH 16 0
BBX 15 30 1 -6
BITMAP
0600
0700
0F00
02C0
04E0
07C0
0E40
0600
0000
0E00
7FF8
7FF8
FFF0
CFC0
1E00
3800
6000
6000
C000
C000
C000
C000
C000
E000
F000
7C00
7FFE
3FF8
1FE0
00C0
ENDCHAR
STARTCHAR 0686
ENCODING 1670
SWIDTH 576 0
DWIDTH 16 0
BBX 15 21 1 -6
BITMAP
0E00
7FF8
7FF8
FFF0
CFC0
1E00
3800
6080
64E0
C7C0
CE40
C600
C1C0
C1C0
E1C0
F000
7C00
7FFE
3FF8
1FE0
00C0
ENDCHAR
STARTCHAR 0687
ENCODING 1671
SWIDTH 576 0
DWIDTH 16 0
BBX 15 21 1 -6
BITMAP
0E00
7FF8
7FF8
FFF0
CFC0
1E00
3800
60C0
66E0
C7C0
CE60
C338
C1F0
C3B0
E180
F000
7C00
7FFE
3FF8
1FE0
00C0
ENDCHAR
STARTCHAR 0688
ENCODING 1672
SWIDTH 360 0
DWIDTH 10 0
BBX 9 20 1 5
BITMAP
3000
2000
2000
2400
2E00
3200
FE00
FE00
0000
0600
0600
0700
0F00
0300
0380
0180
7F80
FF80
FF80
7F80
ENDCHAR
STARTCHAR 0689
ENCODING 1673
SWIDTH 360 0
DWIDTH 10 0
BBX 9 16 1 1
BITMAP
0400
0600
0600
0700
0F00
0300
0300
0180
0180
7F80
FF80
FF80
7F80
1600
1400
1C00
ENDCHAR
STARTCHAR 068A
ENCODING 1674
SWIDTH 360 0
DWIDTH 10 0
BBX 9 19 1 -2
BITMAP
0400
0600
0600
0700
0F00
0300
0300
0180
0180
7F80
FF80
FF80
7F80
0000
0800
1E00
1E00
1C00
0400
ENDCHAR
STARTCHAR 068B
ENCODING 1675
SWIDTH 360 0
DWIDTH 10 0
BBX 9 26 1 -1
BITMAP
3000
2000
2000
2400
2E00
3200
FE00
FE00
0000
0600
0600
0700
0F00
0300
0380
0180
7F80
FF80
FF80
7F80
0000
0800
1E00
1E00
1C00
0400
ENDCHAR
STARTCHAR 068C
ENCODING 1676
SWIDTH 360 0
DWIDTH 10 0
BBX 9 19 1 5
BITMAP
0E00
7E00
7C00
6000
0000
0000
0400
0600
0600
0700
0F00
0300
0300
0180
0180
7F80
FF80
FF80
7F80
ENDCHAR
STARTCHAR 068D
ENCODING 1677
SWIDTH 360 0
DWIDTH 10 0
BBX 9 19 1 -2
BITMAP
0400
0600
0600
0700
0F00
0300
0300
0180
0180
7F80
FF80
FF80
7F80
0000
0600
2700
3F00
7A00
3000
ENDCHAR
STARTCHAR 068E
ENCODING 1678
SWIDTH 360 0
DWIDTH 10 0
BBX 9 21 1 4
BITMAP
2000
3800
7800
3000
0600
3E00
7E00
7000
0000
0000
0600
0600
0700
0F00
0300
0380
0180
7F80
FF80
FF80
7F80
ENDCHAR
STARTCHAR 068F
ENCODING 1679
SWIDTH 360 0
DWIDTH 10 0
BBX 9 20 1 5
BITMAP
0C00
7C00
EC00
E000
1800
1C00
3800
0800
0000
0600
0600
0700
0F00
0300
0380
0180
7F80
FF80
FF80
7F80
ENDCHAR
STARTCHAR 0690
ENCODING 1680
SWIDTH 360 0
DWIDTH 10 0
BBX 9 20 1 5
BITMAP
1C00
FC00
FC00
C600
3700
3F00
7A00
1000
0000
0600
0600
0700
0F00
0300
0380
0180
7F80
FF80
FF80
7F80
ENDCHAR
STARTCHAR 0691
ENCODING 1681
SWIDTH 432 0
DWIDTH 12 0
BBX 12 25 0 -2
BITMAP
0200
0300
0200
0200
02E0
01F0
0210
0FF0
0FF0
0000
0000
0020
0030
0070
0030
0030
0010
0010
0030
0070
00F0
81E0
77C0
3F80
0F00
ENDCHAR
STARTCHAR 0692
ENCODING 1682
SWIDTH 432 0
DWIDTH 12 0
BBX 12 20 0 -2
BITMAP
0130
01A0
00E0
0040
0000
0000
0020
0030
0070
0030
0030
0010
0010
0030
0070
00F0
81E0
77C0
3F80
0F00
ENDCHAR
STARTCHAR 0693
ENCODING 1683
SWIDTH 432 0
DWIDTH 12 0
BBX 13 15 0 -2
BITMAP
0020
0030
0070
0030
0030
0010
0010
0030
0070
00F0
81E0
77F0
3FC8
0F70
0030
ENDCHAR
STARTCHAR 0694
ENCODING 1684
SWIDTH 432 0
DWIDTH 12 0
BBX 14 17 0 -4
BITMAP
0020
0030
0070
0030
0030
0010
0010
0030
0070
00F0
81E0
77C0
3F80
0F38
003C
0078
0018
ENDCHAR
STARTCHAR 0695
ENCODING 1685
SWIDTH 432 0
DWIDTH 12 0
BBX 14 17 0 -4
BITMAP
0020
0030
0070
0030
0030
0010
0010
0030
0070
00F0
81E0
77C0
3F80
0F00
004C
0078
0030
ENDCHAR
STARTCHAR 0696
ENCODING 1686
SWIDTH 432 0
DWIDTH 12 0
BBX 14 17 0 -4
BITMAP
0020
0030
0070
0030
0630
0790
0F10
0730
0070
00F0
81E0
77C0
3F80
0F38
003C
0078
0018
ENDCHAR
STARTCHAR 0697
ENCODING 1687
SWIDTH 432 0
DWIDTH 12 0
BBX 12 21 0 -2
BITMAP
0070
0370
03F0
0380
0100
0000
0000
0020
0030
0070
0030
0030
0010
0010
0030
0070
00F0
81E0
77C0
3F80
0F00
ENDCHAR
STARTCHAR 0698
ENCODING 1688
SWIDTH 432 0
DWIDTH 12 0
BBX 12 24 0 -1
BITMAP
0180
0380
0380
0070
0370
03F0
0380
0100
0000
0000
0020
0030
0070
0030
0030
0010
0010
0030
0070
00F0
81E0
77C0
3F80
0F00
ENDCHAR
STARTCHAR 0699
ENCODING 1689
SWIDTH 432 0
DWIDTH 12 0
BBX 12 25 0 -2
BITMAP
0080
05E0
0FC0
0E80
0470
0370
03F0
0380
0100
0000
0000
0020
0030
0070
0030
0030
0010
0010
0030
0070
00F0
81E0
77C0
3F80
0F00
ENDCHAR
STARTCHAR 069A
ENCODING 1690
SWIDTH 900 0
DWIDTH 25 0
BBX 24 19 1 -1
BITMAP
0000C0
0001E0
0001E0
000040
000800
000801
000C13
201C13
200C13
400FFF
400FFF
C007FF
C007EF
C00C00
E01C20
FFFC78
7FF878
3FF070
0F8010
ENDCHAR
STARTCHAR 069B
ENCODING 1691
SWIDTH 900 0
DWIDTH 25 0
BBX 24 18 1 -5
BITMAP
000800
000801
000C13
201C13
200C13
400FFF
400FFF
C007FF
C007EF
C00C00
E01C08
FFFC5C
7FF8FC
3FF0E8
0F8050
00001C
00003C
000018
ENDCHAR
STARTCHAR 069C
ENCODING 1692
SWIDTH 900 0
DWIDTH 25 0
BBX 24 26 1 -4
BITMAP
000070
000070
000060
00000C
00007E
0000FC
0000E4
000020
000800
000801
000C13
201C13
200C13
400FFF
400FFF
C007FF
C007EF
C00C00
E01C08
FFFC5C
7FF8FC
3FF0E8
0F8050
00001C
00003C
000018
ENDCHAR
STARTCHAR 069D
ENCODING 1693
SWIDTH 1080 0
DWIDTH 30 0
BBX 29 16 1 -2
BITMAP
000001E0
000803F0
00080FF0
000C1FF0
201C3818
200CF038
400FFFF8
400FFFF8
C007FFF8
C007FFF8
C00C0000
E01C0100
FFFC0B80
7FF81F80
3FF03D00
0F801800
ENDCHAR
STARTCHAR 069E
ENCODING 1694
SWIDTH 1080 0
DWIDTH 30 0
BBX 29 25 1 -2
BITMAP
00004000
00007000
0000E000
00006000
00000C00
0000FC00
0000FC00
0000E000
00000000
000001E0
000803F0
00080FF0
000C1FF0
201C3818
200CF038
400FFFF8
400FFFF8
C007FFF8
C007FFF8
C00C0000
E01C0000
FFFC0000
7FF80000
3FF00000
0F800000
ENDCHAR
STARTCHAR 069F
ENCODING 1695
SWIDTH 540 0
DWIDTH 15 0
BBX 16 20 -1 4
BITMAP
0020
0838
0870
0E30
1F0E
1E7E
0E7E
0C70
0600
0600
063C
067E
07FE
07FF
0707
1E07
FFFF
FFFF
FFFF
FFFF
ENDCHAR
STARTCHAR 06A0
ENCODING 1696
SWIDTH 540 0
DWIDTH 15 0
BBX 14 31 1 -6
BITMAP
2000
7800
7000
3000
0E00
7E00
7C00
6000
0400
3F80
3FC0
7800
6000
6000
F1E0
7FE0
7FC0
3E00
7800
6000
C000
C000
8000
8000
C000
E000
F800
FFFC
7FF0
3FE0
0380
ENDCHAR
STARTCHAR 06A1
ENCODING 1697
SWIDTH 756 0
DWIDTH 21 0
BBX 20 11 1 4
BITMAP
0000E0
4001E0
4003F0
C003F0
800370
8007F0
C003F0
FCFFF0
FFFFF0
FFFFF0
7FFFF0
ENDCHAR
STARTCHAR 06A2
ENCODING 1698
SWIDTH 756 0
DWIDTH 21 0
BBX 20 17 1 -2
BITMAP
0000E0
4001E0
4003F0
C003F0
800370
8007F0
C003F0
FCFFF0
FFFFF0
FFFFF0
7FFFF0
000000
000080
0001E0
0001E0
0001C0
000040
ENDCHAR
STARTCHAR 06A3
ENCODING 1699
SWIDTH 756 0
DWIDTH 21 0
BBX 20 23 1 -1
BITMAP
0001C0
0001E0
0003C0
0000C0
000000
000000
0000E0
4001E0
4003F0
C003F0
800370
8007F0
C003F0
FCFFF0
FFFFF0
FFFFF0
7FFFF0
000000
002000
007800
007800
007000
001000
ENDCHAR
STARTCHAR 06A4
ENCODING 1700
SWIDTH 756 0
DWIDTH 21 0
BBX 20 20 1 4
BITMAP
000300
000780
000700
000140
0000E0
0007E0
000F40
000200
000000
0000E0
4001E0
4003F0
C003F0
800370
8007F0
C003F0
FCFFF0
FFFFF0
FFFFF0
7FFFF0
ENDCHAR
STARTCHAR 06A5
ENCODING 1701
SWIDTH 756 0
DWIDTH 21 0
BBX 20 20 1 -5
BITMAP
0000E0
4001E0
4003F0
C003F0
800370
8007F0
C003F0
FCFFF0
FFFFF0
FFFFF0
7FFFF0
000000
000040
000270
0003E0
000720
000300
0000E0
0000E0
0000E0
ENDCHAR
STARTCHAR 06A6
ENCODING 1702
SWIDTH 756 0
DWIDTH 21 0
BBX 20 20 1 5
BITMAP
000180
000F80
001F80
001C40
0002E0
0007E0
000740
000600
000000
0000E0
4001E0
4003F0
C003F0
800370
8007F0
C003F0
FCFFF0
FFFFF0
FFFFF0
7FFFF0
ENDCHAR
STARTCHAR 06A7
ENCODING 1703
SWIDTH 612 0
DWIDTH 17 0
BBX 16 23 1 -4
BITMAP
0030
0038
0078
0038
0000
0000
000C
001E
003E
003F
2027
203F
407F
C03F
801F
8001
8001
C003
E00F
FFFE
FFFC
3FF8
0380
ENDCHAR
STARTCHAR 06A8
ENCODING 1704
SWIDTH 612 0
DWIDTH 17 0
BBX 16 25 1 -4
BITMAP
0070
0070
0070
000C
006E
007C
00E4
0020
000C
001E
003E
003F
2027
203F
407F
C03F
801F
8001
8001
C003
E00F
FFFE
FFFC
3FF8
0380
ENDCHAR
STARTCHAR 06A9
ENCODING 1705
SWIDTH 756 0
DWIDTH 21 0
BBX 20 16 1 4
BITMAP
000020
0000E0
0003E0
000FE0
000F00
000E00
000F00
400F80
C00780
8001C0
8000E0
C00070
FFFFF0
FFFFF0
FFFFF0
3FFFF0
ENDCHAR
STARTCHAR 06AA
ENCODING 1706
SWIDTH 756 0
DWIDTH 21 0
BBX 20 15 1 4
BITMAP
001000
007000
01F000
07F000
078000
070000
0FF000
07FF00
83FFC0
803FE0
C001F0
FFFFF0
FFFFF0
FFFFF0
3FFFF0
ENDCHAR
STARTCHAR 06AB
ENCODING 1707
SWIDTH 756 0
DWIDTH 21 0
BBX 20 16 1 4
BITMAP
000020
0000E0
0003E0
000FF0
000F90
000E90
000F60
400F80
C00780
8001C0
8000E0
C00070
FFFFF0
FFFFF0
FFFFF0
3FFFF0
ENDCHAR
STARTCHAR 06AC
ENCODING 1708
SWIDTH 540 0
DWIDTH 15 0
BBX 14 21 1 4
BITMAP
0400
0700
0F00
0F00
0210
0038
01BC
01BC
0218
0318
0398
0398
4188
C788
9E0C
800C
C00C
FFFC
FFFC
FFFC
3FFC
ENDCHAR
STARTCHAR 06AD
ENCODING 1709
SWIDTH 540 0
DWIDTH 15 0
BBX 14 20 1 4
BITMAP
0600
0580
0C80
0410
0038
01BC
01BC
0218
0318
0398
0398
4188
C788
9E0C
800C
C00C
FFFC
FFFC
FFFC
3FFC
ENDCHAR
STARTCHAR 06AE
ENCODING 1710
SWIDTH 540 0
DWIDTH 15 0
BBX 14 26 1 -4
BITMAP
0010
0038
01BC
01BC
0218
0318
0398
0398
4188
C788
9E0C
800C
C00C
FFFC
FFFC
FFFC
3FFC
0000
0080
04E0
07C0
0EC0
0600
01C0
01C0
01C0
ENDCHAR
STARTCHAR 06AF
ENCODING 1711
SWIDTH 756 0
DWIDTH 21 0
BBX 20 20 1 4
BITMAP
000020
0000E0
0003E0
000FC0
001E20
0018E0
0003E0
000FE0
000F00
000E00
000F00
400F80
C00780
8001C0
8000E0
C00070
FFFFF0
FFFFF0
FFFFF0
3FFFF0
ENDCHAR
STARTCHAR 06B0
ENCODING 1712
SWIDTH 756 0
DWIDTH 21 0
BBX 20 20 1 4
BITMAP
000020
0000E0
0003E0
000FC0
001E20
0018E0
0003E0
000FF0
000F90
000E90
000F60
400F80
C00780
8001C0
8000E0
C00070
FFFFF0
FFFFF0
FFFFF0
3FFFF0
ENDCHAR
STARTCHAR 06B1
ENCODING 1713
SWIDTH 756 0
DWIDTH 21 0
BBX 20 21 1 4
BITMAP
000200
001320
0018E0
0003E0
000FC0
001E20
0018E0
0003E0
000FE0
000F00
000E00
000F00
400F80
C00780
8001C0
8000E0
C00070
FFFFF0
FFFFF0
FFFFF0
3FFFF0
ENDCHAR
STARTCHAR 06B2
ENCODING 1714
SWIDTH 756 0
DWIDTH 21 0
BBX 20 26 1 -2
BITMAP
000020
0000E0
0003E0
000FC0
001E20
0018E0
0003E0
000FE0
000F00
000E00
000F00
400F80
C00780
8001C0
8000E0
C00070
FFFFF0
FFFFF0
FFFFF0
3FFFF0
000000
001000
009C00
01F800
01D800
00C000
ENDCHAR
STARTCHAR 06B3
ENCODING 1715
SWIDTH 756 0
DWIDTH 21 0
BBX 20 29 1 -5
BITMAP
000020
0000E0
0003E0
000FC0
001E20
0018E0
0003E0
000FE0
000F00
000E00
000F00
400F80
C00780
8001C0
8000E0
C00070
FFFFF0
FFFFF0
FFFFF0
3FFFF0
000000
004000
00E000
00E000
004000
003000
003800
007000
001000
ENDCHAR
STARTCHAR 06B4
ENCODING 1716
SWIDTH 756 0
DWIDTH 21 0
BBX 20 21 1 4
BITMAP
001000
001F20
0012E0
0033E0
000FC0
001E20
0018E0
0003E0
000FE0
000F00
000E00
000F00
400F80
C00780
8001C0
8000E0
C00070
FFFFF0
FFFFF0
FFFFF0
3FFFF0
ENDCHAR
STARTCHAR 06B5
ENCODING 1717
SWIDTH 468 0
DWIDTH 13 0
BBX 13 26 0 -1
BITMAP
0320
01E0
00C0
0000
0040
0070
0070
0070
0070
0060
0020
0030
0030
0030
1030
2010
2010
4018
4018
4018
4038
E070
7FF0
7FE0
7FC0
1F00
ENDCHAR
STARTCHAR 06B6
ENCODING 1718
SWIDTH 468 0
DWIDTH 13 0
BBX 13 26 0 -1
BITMAP
0200
0380
0780
0780
0140
0070
0070
0070
0070
0060
0020
0030
0030
0030
1030
2010
2010
4018
4018
4018
4038
E070
7FF0
7FE0
7FC0
1F00
ENDCHAR
STARTCHAR 06B7
ENCODING 1719
SWIDTH 468 0
DWIDTH 13 0
BBX 13 26 0 -1
BITMAP
0080
01B0
01A0
0100
0040
0070
0070
0070
0070
0060
0020
0030
0030
0030
1030
2010
2010
4018
4018
4018
4038
E070
7FF0
7FE0
7FC0
1F00
ENDCHAR
STARTCHAR 06B8
ENCODING 1720
SWIDTH 468 0
DWIDTH 13 0
BBX 13 26 0 -5
BITMAP
0040
0070
0070
0070
0070
0060
0020
0030
0030
0030
1030
2010
2010
4018
4018
4018
4038
E070
7FF0
7FE0
7FC0
1F00
0000
0100
0E00
0100
ENDCHAR
STARTCHAR 06B9
ENCODING 1721
SWIDTH 540 0
DWIDTH 15 0
BBX 14 23 1 -6
BITMAP
0200
0380
0780
0380
0108
0008
000C
201C
200C
400C
C00C
C004
C004
C00C
E01C
FFFC
7FF8
7FF0
0F80
0380
0780
0780
0100
ENDCHAR
STARTCHAR 06BA
ENCODING 1722
SWIDTH 540 0
DWIDTH 15 0
BBX 14 15 1 -2
BITMAP
0008
0008
000C
201C
200C
400C
C00C
C004
C004
C00C
E01C
FFFC
7FF8
7FF0
0F80
ENDCHAR
STARTCHAR 06BB
ENCODING 1723
SWIDTH 540 0
DWIDTH 15 0
BBX 14 24 1 -2
BITMAP
0400
0600
0600
0200
02E0
03E0
0620
1FE0
1FE0
0008
0008
000C
201C
200C
400C
C00C
C004
C004
C00C
E01C
FFFC
7FF8
7FF0
0F80
ENDCHAR
STARTCHAR 06BC
ENCODING 1724
SWIDTH 540 0
DWIDTH 15 0
BBX 14 22 1 -5
BITMAP
0200
0380
0780
0380
0108
0008
000C
201C
200C
400C
C00C
C004
C004
C00C
E01C
FFFC
7FF8
7FF0
0F80
0900
0500
0600
ENDCHAR
STARTCHAR 06BD
ENCODING 1725
SWIDTH 540 0
DWIDTH 15 0
BBX 14 23 1 -2
BITMAP
0400
0700
0E00
0600
02C0
0DC0
0FC0
0E00
0008
0008
000C
201C
200C
400C
C00C
C004
C004
C00C
E01C
FFFC
7FF8
7FF0
0F80
ENDCHAR
STARTCHAR 06BE
ENCODING 1726
SWIDTH 468 0
DWIDTH 13 0
BBX 12 14 -1 3
BITMAP
0400
0E00
0F00
0780
0FC0
1FE0
19E0
1B60
1F30
FFB0
FFF0
FFF0
F1F0
0060
ENDCHAR
STARTCHAR 06BF
ENCODING 1727
SWIDTH 576 0
DWIDTH 16 0
BBX 15 27 1 -6
BITMAP
0400
0700
0F00
0F00
0200
0000
0E00
7FF8
7FF8
FFF0
CFC0
1E00
3800
6080
64E0
C7C0
CE40
C600
C1C0
C1C0
E1C0
F000
7C00
7FFE
3FF8
1FE0
00C0
ENDCHAR
STARTCHAR 06C0
ENCODING 1728
SWIDTH 360 0
DWIDTH 10 0
BBX 7 16 1 3
BITMAP
30
20
30
00
00
30
38
7E
7E
4E
46
C6
FE
FE
7C
20
ENDCHAR
STARTCHAR 06C1
ENCODING 1729
SWIDTH 396 0
DWIDTH 11 0
BBX 11 8 0 2
BITMAP
0F00
1F00
1FE0
33E0
21E0
40E0
4000
8000
ENDCHAR
STARTCHAR 06C2
ENCODING 1730
SWIDTH 396 0
DWIDTH 11 0
BBX 11 14 0 3
BITMAP
0C00
0800
0C00
0000
0000
0000
0F00
1F00
1FE0
33E0
21E0
40E0
4000
8000
ENDCHAR
STARTCHAR 06C3
ENCODING 1731
SWIDTH 396 0
DWIDTH 11 0
BBX 11 15 0 3
BITMAP
0300
1F00
3F00
3800
0000
0000
0000
0F00
1F00
1FE0
33E0
21E0
40E0
4000
8000
ENDCHAR
STARTCHAR 06C4
ENCODING 1732
SWIDTH 468 0
DWIDTH 13 0
BBX 13 15 0 -2
BITMAP
00E0
00F0
01F0
01B0
0198
01F8
01F8
01F8
00F8
0730
0970
C5E0
7FE0
1FC0
0700
ENDCHAR
STARTCHAR 06C5
ENCODING 1733
SWIDTH 468 0
DWIDTH 13 0
BBX 13 15 0 -2
BITMAP
00F0
00F0
01F0
01B0
0198
01F8
01F8
01F8
00F8
0F70
01F0
C1E0
7FE0
1FC0
0700
ENDCHAR
STARTCHAR 06C6
ENCODING 1734
SWIDTH 468 0
DWIDTH 13 0
BBX 13 21 0 -2
BITMAP
0130
01A0
00C0
00C0
0000
0000
00E0
00F0
01F0
01B0
0198
01F8
01F8
01F8
00F8
0030
0070
C1E0
7FE0
1FC0
0700
ENDCHAR
STARTCHAR 06C7
ENCODING 1735
SWIDTH 468 0
DWIDTH 13 0
BBX 13 23 0 -1
BITMAP
0060
0060
0060
0060
0080
0100
0000
0000
00E0
00F0
01F0
01B0
0198
01F8
01F8
01F8
00F8
0030
0070
C1E0
7FE0
1FC0
0700
ENDCHAR
STARTCHAR 06C8
ENCODING 1736
SWIDTH 468 0
DWIDTH 13 0
BBX 13 24 0 -1
BITMAP
0080
0080
0080
0080
0080
0080
0080
0000
0000
00E0
00F0
01F0
01B0
0198
01F8
01F8
01F8
00F8
0030
0070
C1E0
7FE0
1FC0
0700
ENDCHAR
STARTCHAR 06C9
ENCODING 1737
SWIDTH 468 0
DWIDTH 13 0
BBX 13 21 0 -2
BITMAP
0040
00C0
01E0
0130
0000
0000
00E0
00F0
01F0
01B0
0198
01F8
01F8
01F8
00F8
0030
0070
C1E0
7FE0
1FC0
0700
ENDCHAR
STARTCHAR 06CA
ENCODING 1738
SWIDTH 468 0
DWIDTH 13 0
BBX 13 21 0 -2
BITMAP
0060
0370
03E0
0700
0100
0000
00E0
00F0
01F0
01B0
0198
01F8
01F8
01F8
00F8
0030
0070
C1E0
7FE0
1FC0
0700
ENDCHAR
STARTCHAR 06CB
ENCODING 1739
SWIDTH 468 0
DWIDTH 13 0
BBX 13 24 0 -1
BITMAP
0380
0380
0380
0070
0370
03E0
0300
0100
0000
00E0
00F0
01F0
01B0
0198
01F8
01F8
01F8
00F8
0030
0070
C1E0
7FE0
1FC0
0700
ENDCHAR
STARTCHAR 06CC
ENCODING 1740
SWIDTH 648 0
DWIDTH 18 0
BBX 14 15 2 -2
BITMAP
0018
003C
007C
00EC
2080
4180
41F8
41F8
80F8
8008
C078
E3F0
FFE0
7F80
1C00
ENDCHAR
STARTCHAR 06CD
ENCODING 1741
SWIDTH 648 0
DWIDTH 18 0
BBX 15 15 1 -2
BITMAP
000C
001E
003E
0076
3040
E0C0
20FC
20FC
407C
4004
603C
71F8
7FF0
3FC0
0E00
ENDCHAR
STARTCHAR 06CE
ENCODING 1742
SWIDTH 648 0
DWIDTH 18 0
BBX 14 17 2 -2
BITMAP
1300
1A00
0C18
0C3C
007C
00EC
2080
4180
41F8
41F8
80F8
8008
C078
E3F0
FFE0
7F80
1C00
ENDCHAR
STARTCHAR 06CF
ENCODING 1743
SWIDTH 468 0
DWIDTH 13 0
BBX 13 22 0 -2
BITMAP
0180
01E0
03C0
01C0
0000
0000
0000
00E0
00F0
01F0
01B0
0198
01F8
01F8
01F8
00F8
0030
0070
C1E0
7FE0
1FC0
0700
ENDCHAR
STARTCHAR 06D0
ENCODING 1744
SWIDTH 648 0
DWIDTH 18 0
BBX 14 18 2 -5
BITMAP
0018
003C
007C
00EC
2080
4180
41F8
41F8
80F8
8008
C078
E3F0
FFE0
7F80
1C00
0400
0400
0200
ENDCHAR
STARTCHAR 06D1
ENCODING 1745
SWIDTH 648 0
DWIDTH 18 0
BBX 14 18 2 -5
BITMAP
0018
003C
007C
00EC
2080
4180
41F8
41F8
80F8
8008
C078
E3F0
FFE0
7F80
1C00
0200
0C00
0200
ENDCHAR
STARTCHAR 06D2
ENCODING 1746
SWIDTH 828 0
DWIDTH 23 0
BBX 21 14 1 -1
BITMAP
006000
00E000
01E000
03E000
072000
1E0000
7E0000
780000
E00000
C00000
FFFFF8
FFFFF0
FFFFE0
FFFFC0
ENDCHAR
STARTCHAR 06D3
ENCODING 1747
SWIDTH 828 0
DWIDTH 23 0
BBX 21 18 1 -1
BITMAP
020000
060000
0C0000
0E0000
006000
00E000
01E000
03E000
072000
1E0000
7E0000
780000
E00000
C00000
FFFFF8
FFFFF0
FFFFE0
FFFFC0
ENDCHAR
STARTCHAR 06D4
ENCODING 1748
SWIDTH 216 0
DWIDTH 6 0
BBX 4 4 1 4
BITMAP
F0
F0
F0
F0
ENDCHAR
STARTCHAR 06D5
ENCODING 1749
SWIDTH 360 0
DWIDTH 10 0
BBX 7 11 1 3
BITMAP
30
38
7E
7E
4E
46
C6
FE
FE
7C
20
ENDCHAR
STARTCHAR 06D6
ENCODING 1750
SWIDTH 0 0
DWIDTH 0 0
BBX 12 10 -6 15
BITMAP
1000
1000
1030
14D0
0F10
3FF0
6000
8000
FFC0
FFC0
ENDCHAR
STARTCHAR 06D7
ENCODING 1751
SWIDTH 0 0
DWIDTH 0 0
BBX 10 11 -5 14
BITMAP
1100
1A00
1B00
0D80
0B80
0880
3F80
6000
8000
FFC0
7FC0
ENDCHAR
STARTCHAR 06D8
ENCODING 1752
SWIDTH 0 0
DWIDTH 0 0
BBX 6 5 -3 14
BITMAP
08
1C
14
FC
C4
ENDCHAR
STARTCHAR 06D9
ENCODING 1753
SWIDTH 0 0
DWIDTH 0 0
BBX 6 9 -3 14
BITMAP
88
CC
E8
68
18
18
28
38
20
ENDCHAR
STARTCHAR 06DA
ENCODING 1754
SWIDTH 0 0
DWIDTH 0 0
BBX 7 10 -4 14
BITMAP
7E
7E
20
40
88
88
40
60
7E
08
ENDCHAR
STARTCHAR 06DB
ENCODING 1755
SWIDTH 0 0
DWIDTH 0 0
BBX 4 3 -2 14
BITMAP
40
20
F0
ENDCHAR
STARTCHAR 06DC
ENCODING 1756
SWIDTH 0 0
DWIDTH 0 0
BBX 12 7 -6 14
BITMAP
0210
4250
83F0
83B0
C200
7E00
3000
ENDCHAR
STARTCHAR 06DD
ENCODING 1757
SWIDTH 1116 0
DWIDTH 31 0
BBX 30 30 1 -5
BITMAP
00020000
007FF000
07E01F00
04FFFD00
0DFFFD80
1A0002C0
10000060
30000020
60000030
60000010
C0000018
C0000018
80000008
80000008
8000000C
8000000C
8000000C
80000008
C0000008
C0000018
40000018
60000010
20000030
30000060
180000C0
0F000380
04FFFD00
04800D00
03F87F00
003FE000
ENDCHAR
STARTCHAR 06DE
ENCODING 1758
SWIDTH 1080 0
DWIDTH 30 0
BBX 28 28 1 -3
BITMAP
00060000
00090000
00108000
00204000
0FFFFF00
08801100
09000900
0A000500
0C000300
08000100
18000180
280F0140
48198120
88108110
C8108130
68090160
380601C0
18000180
0C000300
0E000700
0B000D00
09801900
08C03100
0FFFFF00
0030C000
00198000
000F0000
00060000
ENDCHAR
STARTCHAR 06DF
ENCODING 1759
SWIDTH 0 0
DWIDTH 0 0
BBX 2 1 -1 14
BITMAP
C0
ENDCHAR
STARTCHAR 06E0
ENCODING 1760
SWIDTH 0 0
DWIDTH 0 0
BBX 2 2 -1 14
BITMAP
C0
C0
ENDCHAR
STARTCHAR 06E1
ENCODING 1761
SWIDTH 0 0
DWIDTH 0 0
BBX 8 5 -4 14
BITMAP
38
1C
06
FF
FF
ENDCHAR
STARTCHAR 06E2
ENCODING 1762
SWIDTH 0 0
DWIDTH 0 0
BBX 4 8 -2 14
BITMAP
60
70
30
F0
80
80
80
80
ENDCHAR
STARTCHAR 06E3
ENCODING 1763
SWIDTH 0 0
DWIDTH 0 0
BBX 12 7 -6 -6
BITMAP
0210
4250
83F0
83F0
8200
FE00
3800
ENDCHAR
STARTCHAR 06E4
ENCODING 1764
SWIDTH 0 0
DWIDTH 0 0
BBX 2 1 -1 15
BITMAP
C0
ENDCHAR
STARTCHAR 06E5
ENCODING 1765
SWIDTH 216 0
DWIDTH 6 0
BBX 6 7 0 14
BITMAP
08
1C
14
1C
0C
0C
F8
ENDCHAR
STARTCHAR 06E6
ENCODING 1766
SWIDTH 360 0
DWIDTH 10 0
BBX 10 7 0 14
BITMAP
0800
1800
3000
E000
8000
FFC0
7F80
ENDCHAR
STARTCHAR 06E7
ENCODING 1767
SWIDTH 0 0
DWIDTH 0 0
BBX 10 7 -5 14
BITMAP
0800
1800
2000
E000
8000
FFC0
7F80
ENDCHAR
STARTCHAR 06E8
ENCODING 1768
SWIDTH 0 0
DWIDTH 0 0
BBX 6 9 -3 14
BITMAP
30
10
04
84
84
84
84
FC
70
ENDCHAR
STARTCHAR 06E9
ENCODING 1769
SWIDTH 612 0
DWIDTH 17 0
BBX 15 23 1 0
BITMAP
0100
0380
04C0
0960
12B0
2558
4AAC
9456
9456
54A4
2CC8
1CD0
1CD0
1CD0
1CD0
1CD0
1CD0
1CD0
1CD0
1B50
2FC8
4004
FFFE
ENDCHAR
STARTCHAR 06EA
ENCODING 1770
SWIDTH 0 0
DWIDTH 0 0
BBX 4 3 -2 -4
BITMAP
E0
90
60
ENDCHAR
STARTCHAR 06EB
ENCODING 1771
SWIDTH 0 0
DWIDTH 0 0
BBX 4 3 -2 15
BITMAP
E0
90
60
ENDCHAR
STARTCHAR 06EC
ENCODING 1772
SWIDTH 0 0
DWIDTH 0 0
BBX 2 1 -1 14
BITMAP
C0
ENDCHAR
STARTCHAR 06ED
ENCODING 1773
SWIDTH 0 0
DWIDTH 0 0
BBX 4 7 -2 -5
BITMAP
70
30
F0
80
80
80
80
ENDCHAR
STARTCHAR 06F0
ENCODING 1776
SWIDTH 576 0
DWIDTH 16 0
BBX 5 6 5 7
BITMAP
60
70
78
F8
70
10
ENDCHAR
STARTCHAR 06F1
ENCODING 1777
SWIDTH 576 0
DWIDTH 16 0
BBX 5 16 5 4
BITMAP
40
40
E0
F0
F0
70
78
38
38
18
18
18
18
08
08
08
ENDCHAR
STARTCHAR 06F2
ENCODING 1778
SWIDTH 576 0
DWIDTH 16 0
BBX 8 16 4 4
BITMAP
01
C1
E3
FF
FE
7E
7C
38
38
18
18
18
08
08
08
08
ENDCHAR
STARTCHAR 06F3
ENCODING 1779
SWIDTH 576 0
DWIDTH 16 0
BBX 11 16 2 4
BITMAP
4100
4120
63E0
FFE0
FFE0
7FE0
3DC0
3800
1800
1800
1800
1800
0800
0800
0800
0800
ENDCHAR
STARTCHAR 06F4
ENCODING 1780
SWIDTH 576 0
DWIDTH 16 0
BBX 11 16 2 4
BITMAP
03C0
67C0
7400
FC20
7FE0
7FC0
3FC0
1F80
1C00
1C00
0C00
0C00
0C00
0800
0800
0800
ENDCHAR
STARTCHAR 06F5
ENCODING 1781
SWIDTH 576 0
DWIDTH 16 0
BBX 10 15 3 5
BITMAP
1800
1C00
1E00
1F00
1F00
1780
2380
61C0
40C0
C0C0
C4C0
FFC0
FF80
FF80
7A00
ENDCHAR
STARTCHAR 06F6
ENCODING 1782
SWIDTH 576 0
DWIDTH 16 0
BBX 9 16 3 4
BITMAP
0E00
3F00
3100
4000
E080
FF80
FF80
7F00
1E00
1C00
1800
3000
3000
3000
2000
2000
ENDCHAR
STARTCHAR 06F7
ENCODING 1783
SWIDTH 576 0
DWIDTH 16 0
BBX 11 16 2 4
BITMAP
0020
C060
E060
E0E0
F0E0
F1C0
7180
3980
1900
1B00
0F00
0E00
0600
0600
0600
0600
ENDCHAR
STARTCHAR 06F8
ENCODING 1784
SWIDTH 576 0
DWIDTH 16 0
BBX 10 16 3 4
BITMAP
0800
0800
1800
1C00
1C00
1600
3600
3700
6300
6380
E3C0
C1C0
C1C0
C0C0
80C0
0040
ENDCHAR
STARTCHAR 06F9
ENCODING 1785
SWIDTH 576 0
DWIDTH 16 0
BBX 9 16 3 4
BITMAP
1C00
3E00
7E00
7E00
C600
FE00
FE00
FE00
7E00
0600
0300
0380
0380
0300
0300
0100
ENDCHAR
STARTCHAR 06FA
ENCODING 1786
SWIDTH 900 0
DWIDTH 25 0
BBX 24 23 1 -1
BITMAP
000070
000070
000060
00000C
00007E
0000FC
0000E4
000020
000800
000801
000C13
201C13
200C13
400FFF
400FFF
C007FF
C007EF
C00C00
E01C20
FFFC78
7FF878
3FF070
0F8010
ENDCHAR
STARTCHAR 06FB
ENCODING 1787
SWIDTH 1080 0
DWIDTH 30 0
BBX 29 22 1 -2
BITMAP
00003000
00007800
00007800
00003000
00000000
00000000
000001E0
000803F0
00080FF0
000C1FF0
201C3818
200CF038
400FFFF8
400FFFF8
C007FFF8
C007FFF8
C00C0000
E01C0800
FFFC0E00
7FF81E00
3FF00E00
0F800000
ENDCHAR
STARTCHAR 06FC
ENCODING 1788
SWIDTH 540 0
DWIDTH 15 0
BBX 14 29 1 -6
BITMAP
0800
1C00
1E00
1C00
0400
0000
0400
3F80
3FC0
7800
6000
6000
F1E0
7FE0
7FC0
3E00
7800
6000
C100
C1C0
83C0
81C0
C000
E000
F800
FFFC
7FF0
3FE0
0380
ENDCHAR
STARTCHAR 06FD
ENCODING 1789
SWIDTH 468 0
DWIDTH 13 0
BBX 9 18 2 -4
BITMAP
1C00
3E00
7E00
6E00
E000
F180
FF80
7F80
3E00
7000
6000
C000
9300
1300
1300
1300
1300
1300
ENDCHAR
STARTCHAR 06FE
ENCODING 1790
SWIDTH 360 0
DWIDTH 10 0
BBX 10 18 0 -6
BITMAP
0E00
1F00
1F80
3780
23C0
1FC0
7FC0
7FC0
7000
C000
44C0
64C0
64C0
24C0
24C0
24C0
2000
2000
ENDCHAR
STARTCHAR 1E80
ENCODING 7808
SWIDTH 1008 0
DWIDTH 28 0
BBX 26 25 1 0
BITMAP
00780000
00380000
001C0000
000C0000
00040000
00000000
00000000
FE7F83C0
7C1F0080
7C0F0180
3C0F8100
3E0F8100
1E07C200
1F0FC200
1F0BC200
0F1BE400
0F93E400
0791E800
07E1F800
07E0F800
03C0F000
03C0F000
01C07000
01806000
01802000
ENDCHAR
STARTCHAR 1E81
ENCODING 7809
SWIDTH 720 0
DWIDTH 20 0
BBX 20 19 0 0
BITMAP
03C000
01E000
00E000
006000
003000
000000
FEFCF0
7C7860
3C7840
3C7C40
1E7C80
1E5C80
1E9E80
0F9F00
0F0F00
0F0F00
070E00
060600
020600
ENDCHAR
STARTCHAR 1E82
ENCODING 7810
SWIDTH 1008 0
DWIDTH 28 0
BBX 26 25 1 0
BITMAP
00078000
000F0000
000E0000
000C0000
00180000
00000000
00000000
FE7F83C0
7C1F0080
7C0F0180
3C0F8100
3E0F8100
1E07C200
1F0FC200
1F0BC200
0F1BE400
0F93E400
0791E800
07E1F800
07E0F800
03C0F000
03C0F000
01C07000
01806000
01802000
ENDCHAR
STARTCHAR 1E83
ENCODING 7811
SWIDTH 720 0
DWIDTH 20 0
BBX 20 19 0 0
BITMAP
003C00
003800
007000
006000
004000
000000
FEFCF0
7C7860
3C7840
3C7C40
1E7C80
1E5C80
1E9E80
0F9F00
0F0F00
0F0F00
070E00
060600
020600
ENDCHAR
STARTCHAR 1E84
ENCODING 7812
SWIDTH 1008 0
DWIDTH 28 0
BBX 26 24 1 0
BITMAP
00318000
007BC000
0073C000
00318000
00000000
00000000
FE7F83C0
7C1F0080
7C0F0180
3C0F8100
3E0F8100
1E07C200
1F0FC200
1F0BC200
0F1BE400
0F93E400
0791E800
07E1F800
07E0F800
03C0F000
03C0F000
01C07000
01806000
01802000
ENDCHAR
STARTCHAR 1E85
ENCODING 7813
SWIDTH 720 0
DWIDTH 20 0
BBX 20 19 0 0
BITMAP
010800
039C00
039C00
039C00
000000
000000
FEFCF0
7C7860
3C7840
3C7C40
1E7C80
1E5C80
1E9E80
0F9F00
0F0F00
0F0F00
070E00
060600
020600
ENDCHAR
STARTCHAR 1EA0
ENCODING 7840
SWIDTH 720 0
DWIDTH 20 0
BBX 20 24 0 -5
BITMAP
006000
006000
007000
00F000
00F800
01F800
017800
027C00
023C00
063E00
041E00
0C1F00
0FFF00
080F80
100F80
1007C0
3007C0
FC1FF0
000000
004000
01E000
01E000
01E000
00C000
ENDCHAR
STARTCHAR 1EA1
ENCODING 7841
SWIDTH 504 0
DWIDTH 14 0
BBX 12 19 1 -6
BITMAP
1F80
33C0
71E0
71E0
71E0
03E0
0DE0
39E0
71E0
F1E0
F3E0
FDF0
79E0
0000
0400
0F00
1F00
0F00
0E00
ENDCHAR
STARTCHAR 1EA2
ENCODING 7842
SWIDTH 720 0
DWIDTH 20 0
BBX 20 25 0 0
BITMAP
007000
019800
001800
003000
002000
000000
000000
006000
006000
007000
00F000
00F800
01F800
017800
027C00
023C00
063E00
041E00
0C1F00
0FFF00
080F80
100F80
1007C0
3007C0
FC1FF0
ENDCHAR
STARTCHAR 1EA3
ENCODING 7843
SWIDTH 504 0
DWIDTH 14 0
BBX 12 19 1 0
BITMAP
0F80
1980
0180
0200
0000
0000
1F80
33C0
71E0
71E0
71E0
03E0
0DE0
39E0
71E0
F1E0
F3E0
FDF0
79E0
ENDCHAR
STARTCHAR 1EA4
ENCODING 7844
SWIDTH 720 0
DWIDTH 20 0
BBX 20 25 0 0
BITMAP
003C00
003000
000000
00F000
019800
000000
000000
006000
006000
007000
00F000
00F800
01F800
017800
027C00
023C00
063E00
041E00
0C1F00
0FFF00
080F80
100F80
1007C0
3007C0
FC1FF0
ENDCHAR
STARTCHAR 1EA5
ENCODING 7845
SWIDTH 504 0
DWIDTH 14 0
BBX 12 25 1 0
BITMAP
03C0
0380
0700
0600
0400
0000
0F00
1F80
1980
30C0
2040
0000
1F80
33C0
71E0
71E0
71E0
03E0
0DE0
39E0
71E0
F1E0
F3E0
FDF0
79E0
ENDCHAR
STARTCHAR 1EA6
ENCODING 7846
SWIDTH 720 0
DWIDTH 20 0
BBX 20 25 0 0
BITMAP
01C000
00E000
000000
00F000
019800
000000
000000
006000
006000
007000
00F000
00F800
01F800
017800
027C00
023C00
063E00
041E00
0C1F00
0FFF00
080F80
100F80
1007C0
3007C0
FC1FF0
ENDCHAR
STARTCHAR 1EA7
ENCODING 7847
SWIDTH 504 0
DWIDTH 14 0
BBX 12 25 1 0
BITMAP
3C00
1C00
0E00
0600
0200
0000
0F00
1F80
1980
30C0
2040
0000
1F80
33C0
71E0
71E0
71E0
03E0
0DE0
39E0
71E0
F1E0
F3E0
FDF0
79E0
ENDCHAR
STARTCHAR 1EA8
ENCODING 7848
SWIDTH 720 0
DWIDTH 20 0
BBX 20 25 0 0
BITMAP
00F000
001800
002000
00F000
019800
000000
000000
006000
006000
007000
00F000
00F800
01F800
017800
027C00
023C00
063E00
041E00
0C1F00
0FFF00
080F80
100F80
1007C0
3007C0
FC1FF0
ENDCHAR
STARTCHAR 1EA9
ENCODING 7849
SWIDTH 504 0
DWIDTH 14 0
BBX 12 25 1 0
BITMAP
0700
1980
0180
0300
0200
0000
0F00
1F80
1980
30C0
2040
0000
1F80
33C0
71E0
71E0
71E0
03E0
0DE0
39E0
71E0
F1E0
F3E0
FDF0
79E0
ENDCHAR
STARTCHAR 1EAA
ENCODING 7850
SWIDTH 720 0
DWIDTH 20 0
BBX 20 25 0 0
BITMAP
00C000
01FC00
000000
00F000
019800
000000
000000
006000
006000
007000
00F000
00F800
01F800
017800
027C00
023C00
063E00
041E00
0C1F00
0FFF00
080F80
100F80
1007C0
3007C0
FC1FF0
ENDCHAR
STARTCHAR 1EAB
ENCODING 7851
SWIDTH 504 0
DWIDTH 14 0
BBX 12 24 1 0
BITMAP
1C40
3FC0
3FC0
0380
0000
0F00
1F80
1980
30C0
2040
0000
1F80
33C0
71E0
71E0
71E0
03E0
0DE0
39E0
71E0
F1E0
F3E0
FDF0
79E0
ENDCHAR
STARTCHAR 1EAC
ENCODING 7852
SWIDTH 720 0
DWIDTH 20 0
BBX 20 28 0 -6
BITMAP
00F000
019800
000000
000000
006000
006000
007000
00F000
00F800
01F800
017800
027C00
023C00
063E00
041E00
0C1F00
0FFF00
080F80
100F80
1007C0
3007C0
FC1FF0
000000
004000
01E000
01E000
01E000
00C000
ENDCHAR
STARTCHAR 1EAD
ENCODING 7853
SWIDTH 504 0
DWIDTH 14 0
BBX 12 25 1 -6
BITMAP
0F00
1F80
1980
30C0
2040
0000
1F80
33C0
71E0
71E0
71E0
03E0
0DE0
39E0
71E0
F1E0
F3E0
FDF0
79E0
0000
0400
0F00
1F00
0F00
0E00
ENDCHAR
STARTCHAR 1EAE
ENCODING 7854
SWIDTH 720 0
DWIDTH 20 0
BBX 20 25 0 0
BITMAP
007800
007000
000000
010800
00F000
000000
000000
006000
006000
007000
00F000
00F800
01F800
017800
027C00
023C00
063E00
041E00
0C1F00
0FFF00
080F80
100F80
1007C0
3007C0
FC1FF0
ENDCHAR
STARTCHAR 1EAF
ENCODING 7855
SWIDTH 504 0
DWIDTH 14 0
BBX 12 25 1 0
BITMAP
03C0
0380
0700
0600
0400
0000
2040
30C0
1FC0
1F80
0000
0000
1F80
33C0
71E0
71E0
71E0
03E0
0DE0
39E0
71E0
F1E0
F3E0
FDF0
79E0
ENDCHAR
STARTCHAR 1EB0
ENCODING 7856
SWIDTH 720 0
DWIDTH 20 0
BBX 20 25 0 0
BITMAP
01E000
006000
000000
010800
00F000
000000
000000
006000
006000
007000
00F000
00F800
01F800
017800
027C00
023C00
063E00
041E00
0C1F00
0FFF00
080F80
100F80
1007C0
3007C0
FC1FF0
ENDCHAR
STARTCHAR 1EB1
ENCODING 7857
SWIDTH 504 0
DWIDTH 14 0
BBX 12 25 1 0
BITMAP
3C00
1C00
0E00
0600
0200
0000
2040
30C0
1FC0
1F80
0000
0000
1F80
33C0
71E0
71E0
71E0
03E0
0DE0
39E0
71E0
F1E0
F3E0
FDF0
79E0
ENDCHAR
STARTCHAR 1EB2
ENCODING 7858
SWIDTH 720 0
DWIDTH 20 0
BBX 20 25 0 0
BITMAP
00F000
001800
002000
010800
00F000
000000
000000
006000
006000
007000
00F000
00F800
01F800
017800
027C00
023C00
063E00
041E00
0C1F00
0FFF00
080F80
100F80
1007C0
3007C0
FC1FF0
ENDCHAR
STARTCHAR 1EB3
ENCODING 7859
SWIDTH 504 0
DWIDTH 14 0
BBX 12 25 1 0
BITMAP
0F00
1980
0180
0200
0400
0000
2040
30C0
1FC0
1F80
0000
0000
1F80
33C0
71E0
71E0
71E0
03E0
0DE0
39E0
71E0
F1E0
F3E0
FDF0
79E0
ENDCHAR
STARTCHAR 1EB4
ENCODING 7860
SWIDTH 720 0
DWIDTH 20 0
BBX 20 25 0 0
BITMAP
00C000
01FC00
000000
010800
00F000
000000
000000
006000
006000
007000
00F000
00F800
01F800
017800
027C00
023C00
063E00
041E00
0C1F00
0FFF00
080F80
100F80
1007C0
3007C0
FC1FF0
ENDCHAR
STARTCHAR 1EB5
ENCODING 7861
SWIDTH 504 0
DWIDTH 14 0
BBX 12 24 1 0
BITMAP
1C40
3FC0
3FC0
0380
0000
2040
30C0
1FC0
1F80
0000
0000
1F80
33C0
71E0
71E0
71E0
03E0
0DE0
39E0
71E0
F1E0
F3E0
FDF0
79E0
ENDCHAR
STARTCHAR 1EB6
ENCODING 7862
SWIDTH 720 0
DWIDTH 20 0
BBX 20 28 0 -6
BITMAP
010800
00F000
000000
000000
006000
006000
007000
00F000
00F800
01F800
017800
027C00
023C00
063E00
041E00
0C1F00
0FFF00
080F80
100F80
1007C0
3007C0
FC1FF0
000000
004000
01E000
01E000
01E000
00C000
ENDCHAR
STARTCHAR 1EB7
ENCODING 7863
SWIDTH 504 0
DWIDTH 14 0
BBX 12 25 1 -6
BITMAP
2040
30C0
1FC0
1F80
0000
0000
1F80
33C0
71E0
71E0
71E0
03E0
0DE0
39E0
71E0
F1E0
F3E0
FDF0
79E0
0000
0400
0F00
1F00
0F00
0E00
ENDCHAR
STARTCHAR 1EB8
ENCODING 7864
SWIDTH 684 0
DWIDTH 19 0
BBX 16 24 1 -6
BITMAP
FFFE
3E06
3E02
3E02
3E22
3E20
3E20
3E60
3FE0
3EE0
3E20
3E20
3E20
3E01
3E01
3E03
3E0F
FFFF
0000
0100
03C0
07C0
03C0
0380
ENDCHAR
STARTCHAR 1EB9
ENCODING 7865
SWIDTH 432 0
DWIDTH 12 0
BBX 11 19 1 -6
BITMAP
0F00
3180
71C0
71C0
F1E0
FFE0
F000
F000
F000
F820
7840
7F80
3F00
0000
0400
1E00
1E00
1E00
0C00
ENDCHAR
STARTCHAR 1EBA
ENCODING 7866
SWIDTH 684 0
DWIDTH 19 0
BBX 16 25 1 0
BITMAP
00E0
0330
0030
0040
0000
0000
0000
FFFE
3E06
3E02
3E02
3E22
3E20
3E20
3E60
3FE0
3EE0
3E20
3E20
3E20
3E01
3E01
3E03
3E0F
FFFF
ENDCHAR
STARTCHAR 1EBB
ENCODING 7867
SWIDTH 432 0
DWIDTH 12 0
BBX 11 19 1 0
BITMAP
0F00
1980
0180
0200
0000
0000
0F00
3180
71C0
71C0
F1E0
FFE0
F000
F000
F000
F820
7840
7F80
3F00
ENDCHAR
STARTCHAR 1EBC
ENCODING 7868
SWIDTH 684 0
DWIDTH 19 0
BBX 16 24 1 0
BITMAP
0380
07F8
07F8
0070
0000
0000
FFFE
3E06
3E02
3E02
3E22
3E20
3E20
3E60
3FE0
3EE0
3E20
3E20
3E20
3E01
3E01
3E03
3E0F
FFFF
ENDCHAR
STARTCHAR 1EBD
ENCODING 7869
SWIDTH 432 0
DWIDTH 12 0
BBX 11 19 1 0
BITMAP
0840
3F40
3FC0
4780
0000
0000
0F00
3180
71C0
71C0
F1E0
FFE0
F000
F000
F000
F820
7840
7F80
3F00
ENDCHAR
STARTCHAR 1EBE
ENCODING 7870
SWIDTH 684 0
DWIDTH 19 0
BBX 16 25 1 0
BITMAP
00F0
00C0
0000
01C0
0220
0400
0000
FFFE
3E06
3E02
3E02
3E22
3E20
3E20
3E60
3FE0
3EE0
3E20
3E20
3E20
3E01
3E01
3E03
3E0F
FFFF
ENDCHAR
STARTCHAR 1EBF
ENCODING 7871
SWIDTH 432 0
DWIDTH 12 0
BBX 11 25 1 0
BITMAP
03C0
0780
0700
0600
0C00
0000
0F00
1F00
1B80
3180
6040
0000
0F00
3180
71C0
71C0
F1E0
FFE0
F000
F000
F000
F820
7840
7F80
3F00
ENDCHAR
STARTCHAR 1EC0
ENCODING 7872
SWIDTH 684 0
DWIDTH 19 0
BBX 16 25 1 0
BITMAP
0780
0180
0000
01C0
0220
0400
0000
FFFE
3E06
3E02
3E02
3E22
3E20
3E20
3E60
3FE0
3EE0
3E20
3E20
3E20
3E01
3E01
3E03
3E0F
FFFF
ENDCHAR
STARTCHAR 1EC1
ENCODING 7873
SWIDTH 432 0
DWIDTH 12 0
BBX 11 25 1 0
BITMAP
3C00
1C00
0E00
0600
0200
0000
0F00
1F00
1B80
3180
6040
0000
0F00
3180
71C0
71C0
F1E0
FFE0
F000
F000
F000
F820
7840
7F80
3F00
ENDCHAR
STARTCHAR 1EC2
ENCODING 7874
SWIDTH 684 0
DWIDTH 19 0
BBX 16 25 1 0
BITMAP
01C0
0260
0080
01C0
0220
0400
0000
FFFE
3E06
3E02
3E02
3E22
3E20
3E20
3E60
3FE0
3EE0
3E20
3E20
3E20
3E01
3E01
3E03
3E0F
FFFF
ENDCHAR
STARTCHAR 1EC3
ENCODING 7875
SWIDTH 432 0
DWIDTH 12 0
BBX 11 25 1 0
BITMAP
0700
1980
0180
0200
0000
0000
0F00
1F00
1B80
3180
6040
0000
0F00
3180
71C0
71C0
F1E0
FFE0
F000
F000
F000
F820
7840
7F80
3F00
ENDCHAR
STARTCHAR 1EC4
ENCODING 7876
SWIDTH 684 0
DWIDTH 19 0
BBX 16 25 1 0
BITMAP
0300
07F0
0000
01C0
0220
0400
0000
FFFE
3E06
3E02
3E02
3E22
3E20
3E20
3E60
3FE0
3EE0
3E20
3E20
3E20
3E01
3E01
3E03
3E0F
FFFF
ENDCHAR
STARTCHAR 1EC5
ENCODING 7877
SWIDTH 432 0
DWIDTH 12 0
BBX 11 24 1 0
BITMAP
1C40
3FC0
7FC0
4380
0000
0F00
1F00
1B80
3180
6040
0000
0F00
3180
71C0
71C0
F1E0
FFE0
F000
F000
F000
F820
7840
7F80
3F00
ENDCHAR
STARTCHAR 1EC6
ENCODING 7878
SWIDTH 684 0
DWIDTH 19 0
BBX 16 28 1 -6
BITMAP
01C0
0220
0400
0000
FFFE
3E06
3E02
3E02
3E22
3E20
3E20
3E60
3FE0
3EE0
3E20
3E20
3E20
3E01
3E01
3E03
3E0F
FFFF
0000
0100
03C0
07C0
03C0
0380
ENDCHAR
STARTCHAR 1EC7
ENCODING 7879
SWIDTH 432 0
DWIDTH 12 0
BBX 11 25 1 -6
BITMAP
0F00
1F00
1B80
3180
6040
0000
0F00
3180
71C0
71C0
F1E0
FFE0
F000
F000
F000
F820
7840
7F80
3F00
0000
0400
1E00
1E00
1E00
0C00
ENDCHAR
STARTCHAR 1EC8
ENCODING 7880
SWIDTH 396 0
DWIDTH 11 0
BBX 9 25 1 0
BITMAP
1C00
2300
0600
0400
0800
0000
0000
FF80
3E00
3E00
3E00
3E00
3E00
3E00
3E00
3E00
3E00
3E00
3E00
3E00
3E00
3E00
3E00
3E00
FF80
ENDCHAR
STARTCHAR 1EC9
ENCODING 7881
SWIDTH 288 0
DWIDTH 8 0
BBX 6 19 1 0
BITMAP
7C
CC
0C
10
00
00
F8
78
78
78
78
78
78
78
78
78
78
78
FC
ENDCHAR
STARTCHAR 1ECA
ENCODING 7882
SWIDTH 396 0
DWIDTH 11 0
BBX 9 24 1 -6
BITMAP
FF80
3E00
3E00
3E00
3E00
3E00
3E00
3E00
3E00
3E00
3E00
3E00
3E00
3E00
3E00
3E00
3E00
FF80
0000
0800
3C00
3E00
3C00
1C00
ENDCHAR
STARTCHAR 1ECB
ENCODING 7883
SWIDTH 288 0
DWIDTH 8 0
BBX 6 25 1 -6
BITMAP
30
78
78
78
00
00
F8
78
78
78
78
78
78
78
78
78
78
78
FC
00
30
78
78
78
30
ENDCHAR
STARTCHAR 1ECC
ENCODING 7884
SWIDTH 792 0
DWIDTH 22 0
BBX 20 25 1 -6
BITMAP
00F000
071E00
1E0700
3C0380
3C03C0
7803E0
7801E0
F801E0
F801F0
F801F0
F801F0
F801E0
F801E0
7803E0
7C03C0
3C03C0
1C0780
0E0F00
07FC00
000000
004000
00F000
00F000
00F000
00E000
ENDCHAR
STARTCHAR 1ECD
ENCODING 7885
SWIDTH 504 0
DWIDTH 14 0
BBX 12 19 1 -6
BITMAP
1F00
39C0
70E0
70E0
F0F0
F0F0
F0F0
F0F0
F0F0
70E0
70E0
39C0
1F80
0000
0400
0F00
0F00
0F00
0600
ENDCHAR
STARTCHAR 1ECE
ENCODING 7886
SWIDTH 792 0
DWIDTH 22 0
BBX 20 25 1 0
BITMAP
00F000
019800
001800
002000
004000
000000
00F000
071E00
1E0700
3C0380
3C03C0
7803E0
7801E0
F801E0
F801F0
F801F0
F801F0
F801E0
F801E0
7803E0
7C03C0
3C03C0
1C0780
0E0F00
07FC00
ENDCHAR
STARTCHAR 1ECF
ENCODING 7887
SWIDTH 504 0
DWIDTH 14 0
BBX 12 19 1 0
BITMAP
0F80
1980
0180
0200
0000
0000
1F00
39C0
70E0
70E0
F0F0
F0F0
F0F0
F0F0
F0F0
70E0
70E0
39C0
1F80
ENDCHAR
STARTCHAR 1ED0
ENCODING 7888
SWIDTH 792 0
DWIDTH 22 0
BBX 20 25 1 0
BITMAP
007800
007000
000000
00F000
019800
000000
00F000
071E00
1E0700
3C0380
3C03C0
7803E0
7801E0
F801E0
F801F0
F801F0
F801F0
F801E0
F801E0
7803E0
7C03C0
3C03C0
1C0780
0E0F00
07FC00
ENDCHAR
STARTCHAR 1ED1
ENCODING 7889
SWIDTH 504 0
DWIDTH 14 0
BBX 12 25 1 0
BITMAP
03C0
0380
0700
0600
0400
0000
0F00
1F00
1980
30C0
2040
0000
1F00
39C0
70E0
70E0
F0F0
F0F0
F0F0
F0F0
F0F0
70E0
70E0
39C0
1F80
ENDCHAR
STARTCHAR 1ED2
ENCODING 7890
SWIDTH 792 0
DWIDTH 22 0
BBX 20 25 1 0
BITMAP
01E000
00E000
000000
00F000
019800
000000
00F000
071E00
1E0700
3C0380
3C03C0
7803E0
7801E0
F801E0
F801F0
F801F0
F801F0
F801E0
F801E0
7803E0
7C03C0
3C03C0
1C0780
0E0F00
07FC00
ENDCHAR
STARTCHAR 1ED3
ENCODING 7891
SWIDTH 504 0
DWIDTH 14 0
BBX 12 25 1 0
BITMAP
3C00
1C00
0E00
0600
0200
0000
0F00
1F00
1980
30C0
2040
0000
1F00
39C0
70E0
70E0
F0F0
F0F0
F0F0
F0F0
F0F0
70E0
70E0
39C0
1F80
ENDCHAR
STARTCHAR 1ED4
ENCODING 7892
SWIDTH 792 0
DWIDTH 22 0
BBX 20 25 1 0
BITMAP
00F000
001000
002000
00F000
019800
000000
00F000
071E00
1E0700
3C0380
3C03C0
7803E0
7801E0
F801E0
F801F0
F801F0
F801F0
F801E0
F801E0
7803E0
7C03C0
3C03C0
1C0780
0E0F00
07FC00
ENDCHAR
STARTCHAR 1ED5
ENCODING 7893
SWIDTH 504 0
DWIDTH 14 0
BBX 12 25 1 0
BITMAP
0700
1980
0180
0300
0200
0000
0F00
1F00
1980
30C0
2040
0000
1F00
39C0
70E0
70E0
F0F0
F0F0
F0F0
F0F0
F0F0
70E0
70E0
39C0
1F80
ENDCHAR
STARTCHAR 1ED6
ENCODING 7894
SWIDTH 792 0
DWIDTH 22 0
BBX 20 25 1 0
BITMAP
00C400
02FC00
000000
00F000
019800
000000
00F000
071E00
1E0700
3C0380
3C03C0
7803E0
7801E0
F801E0
F801F0
F801F0
F801F0
F801E0
F801E0
7803E0
7C03C0
3C03C0
1C0780
0E0F00
07FC00
ENDCHAR
STARTCHAR 1ED7
ENCODING 7895
SWIDTH 504 0
DWIDTH 14 0
BBX 12 24 1 0
BITMAP
1C40
3FC0
3FC0
0380
0000
0F00
1F00
1980
30C0
2040
0000
1F00
39C0
70E0
70E0
F0F0
F0F0
F0F0
F0F0
F0F0
70E0
70E0
39C0
1F80
ENDCHAR
STARTCHAR 1ED8
ENCODING 7896
SWIDTH 792 0
DWIDTH 22 0
BBX 20 28 1 -6
BITMAP
00F000
019800
000000
00F000
071E00
1E0700
3C0380
3C03C0
7803E0
7801E0
F801E0
F801F0
F801F0
F801F0
F801E0
F801E0
7803E0
7C03C0
3C03C0
1C0780
0E0F00
07FC00
000000
004000
00F000
00F000
00F000
00E000
ENDCHAR
STARTCHAR 1ED9
ENCODING 7897
SWIDTH 504 0
DWIDTH 14 0
BBX 12 25 1 -6
BITMAP
0F00
1F00
1980
30C0
2040
0000
1F00
39C0
70E0
70E0
F0F0
F0F0
F0F0
F0F0
F0F0
70E0
70E0
39C0
1F80
0000
0400
0F00
0F00
0F00
0600
ENDCHAR
STARTCHAR 1EDA
ENCODING 7898
SWIDTH 792 0
DWIDTH 22 0
BBX 21 25 1 0
BITMAP
003C00
007800
007000
006000
00C000
000038
00F038
071E18
1E07F0
3C0380
3C03C0
7803E0
7803E0
F801E0
F801F0
F801F0
F801F0
F801E0
F801E0
7803E0
7C03C0
3C03C0
1C0780
0E0F00
07FC00
ENDCHAR
STARTCHAR 1EDB
ENCODING 7899
SWIDTH 540 0
DWIDTH 15 0
BBX 15 19 1 0
BITMAP
03C0
0380
0300
0600
0400
000E
1F8E
39CE
70EC
70F0
F0F0
F0F0
F0F0
F0F0
F0F0
F0E0
70E0
39C0
1F80
ENDCHAR
STARTCHAR 1EDC
ENCODING 7900
SWIDTH 792 0
DWIDTH 22 0
BBX 21 25 1 0
BITMAP
03C000
01C000
00E000
006000
002000
000038
00F038
071E18
1E07F0
3C0380
3C03C0
7803E0
7803E0
F801E0
F801F0
F801F0
F801F0
F801E0
F801E0
7803E0
7C03C0
3C03C0
1C0780
0E0F00
07FC00
ENDCHAR
STARTCHAR 1EDD
ENCODING 7901
SWIDTH 540 0
DWIDTH 15 0
BBX 15 19 1 0
BITMAP
3C00
1C00
0E00
0600
0200
000E
1F8E
39CE
70EC
70F0
F0F0
F0F0
F0F0
F0F0
F0F0
F0E0
70E0
39C0
1F80
ENDCHAR
STARTCHAR 1EDE
ENCODING 7902
SWIDTH 792 0
DWIDTH 22 0
BBX 21 25 1 0
BITMAP
00F000
019800
001800
002000
000000
000038
00F038
071E18
1E07F0
3C0380
3C03C0
7803E0
7803E0
F801E0
F801F0
F801F0
F801F0
F801E0
F801E0
7803E0
7C03C0
3C03C0
1C0780
0E0F00
07FC00
ENDCHAR
STARTCHAR 1EDF
ENCODING 7903
SWIDTH 540 0
DWIDTH 15 0
BBX 15 19 1 0
BITMAP
0F80
1980
0180
0200
0000
000E
1F8E
39CE
70EC
70F0
F0F0
F0F0
F0F0
F0F0
F0F0
F0E0
70E0
39C0
1F80
ENDCHAR
STARTCHAR 1EE0
ENCODING 7904
SWIDTH 792 0
DWIDTH 22 0
BBX 21 24 1 0
BITMAP
01C400
03FC00
03FC00
003800
000038
00F038
071E18
1E07F0
3C0380
3C03C0
7803E0
7803E0
F801E0
F801F0
F801F0
F801F0
F801E0
F801E0
7803E0
7C03C0
3C03C0
1C0780
0E0F00
07FC00
ENDCHAR
STARTCHAR 1EE1
ENCODING 7905
SWIDTH 540 0
DWIDTH 15 0
BBX 15 19 1 0
BITMAP
0800
1F40
3FC0
2780
0000
000E
1F8E
39CE
70EC
70F0
F0F0
F0F0
F0F0
F0F0
F0F0
F0E0
70E0
39C0
1F80
ENDCHAR
STARTCHAR 1EE2
ENCODING 7906
SWIDTH 792 0
DWIDTH 22 0
BBX 21 26 1 -6
BITMAP
000038
00F038
071E18
1E07F0
3C0380
3C03C0
7803E0
7803E0
F801E0
F801F0
F801F0
F801F0
F801E0
F801E0
7803E0
7C03C0
3C03C0
1C0780
0E0F00
07FC00
000000
004000
00F000
00F000
00F000
00E000
ENDCHAR
STARTCHAR 1EE3
ENCODING 7907
SWIDTH 540 0
DWIDTH 15 0
BBX 15 20 1 -6
BITMAP
000E
1F8E
39CE
70EC
70F0
F0F0
F0F0
F0F0
F0F0
F0F0
F0E0
70E0
39C0
1F80
0000
0400
0F00
0F00
0F00
0600
ENDCHAR
STARTCHAR 1EE4
ENCODING 7908
SWIDTH 720 0
DWIDTH 20 0
BBX 18 24 1 -6
BITMAP
FF87C0
3E0100
3C0100
3C0100
3C0100
3C0100
3C0100
3C0100
3C0100
3C0100
3C0100
3C0100
3C0100
3E0100
3E0300
1E0200
1F0400
07F800
000000
00C000
01E000
01E000
01E000
00C000
ENDCHAR
STARTCHAR 1EE5
ENCODING 7909
SWIDTH 540 0
DWIDTH 15 0
BBX 14 19 1 -6
BITMAP
F9F0
78F0
78F0
78F0
78F0
78F0
78F0
78F0
78F0
78F0
78F0
3FF0
3EFC
0000
0200
0780
0F80
0F80
0700
ENDCHAR
STARTCHAR 1EE6
ENCODING 7910
SWIDTH 720 0
DWIDTH 20 0
BBX 18 25 1 0
BITMAP
01E000
033000
003000
004000
000000
000000
000000
FF87C0
3E0100
3C0100
3C0100
3C0100
3C0100
3C0100
3C0100
3C0100
3C0100
3C0100
3C0100
3C0100
3E0100
3E0300
1E0200
1F0400
07F800
ENDCHAR
STARTCHAR 1EE7
ENCODING 7911
SWIDTH 540 0
DWIDTH 15 0
BBX 14 19 1 0
BITMAP
0780
0CC0
0180
0100
0200
0000
F9F0
78F0
78F0
78F0
78F0
78F0
78F0
78F0
78F0
78F0
78F0
3FF0
3EFC
ENDCHAR
STARTCHAR 1EE8
ENCODING 7912
SWIDTH 792 0
DWIDTH 22 0
BBX 22 25 1 0
BITMAP
007800
007000
00E000
00C01C
00801C
00000C
000018
FF87E0
3E0100
3C0100
3C0100
3C0100
3C0100
3C0100
3C0100
3C0100
3C0100
3C0100
3C0100
3C0100
3E0100
3E0300
1E0200
1F0400
07F800
ENDCHAR
STARTCHAR 1EE9
ENCODING 7913
SWIDTH 612 0
DWIDTH 17 0
BBX 16 19 1 0
BITMAP
01E0
03C0
0380
0300
0600
0000
F9F7
78F7
78F3
78F2
78FC
78F0
78F0
78F0
78F0
78F0
78F0
3FF0
3EFC
ENDCHAR
STARTCHAR 1EEA
ENCODING 7914
SWIDTH 792 0
DWIDTH 22 0
BBX 22 25 1 0
BITMAP
078000
038000
01C000
00C01C
00401C
00000C
000018
FF87E0
3E0100
3C0100
3C0100
3C0100
3C0100
3C0100
3C0100
3C0100
3C0100
3C0100
3C0100
3C0100
3E0100
3E0300
1E0200
1F0400
07F800
ENDCHAR
STARTCHAR 1EEB
ENCODING 7915
SWIDTH 612 0
DWIDTH 17 0
BBX 16 19 1 0
BITMAP
1C00
0E00
0600
0200
0100
0000
F9F7
78F7
78F3
78F2
78FC
78F0
78F0
78F0
78F0
78F0
78F0
3FF0
3EFC
ENDCHAR
STARTCHAR 1EEC
ENCODING 7916
SWIDTH 792 0
DWIDTH 22 0
BBX 22 25 1 0
BITMAP
007800
00CC00
000C00
00101C
00201C
00000C
000018
FF87E0
3E0100
3C0100
3C0100
3C0100
3C0100
3C0100
3C0100
3C0100
3C0100
3C0100
3C0100
3C0100
3E0100
3E0300
1E0200
1F0400
07F800
ENDCHAR
STARTCHAR 1EED
ENCODING 7917
SWIDTH 612 0
DWIDTH 17 0
BBX 16 19 1 0
BITMAP
0780
0CC0
0180
0100
0200
0000
F9F7
78F7
78F3
78F2
78FC
78F0
78F0
78F0
78F0
78F0
78F0
3FF0
3EFC
ENDCHAR
STARTCHAR 1EEE
ENCODING 7918
SWIDTH 792 0
DWIDTH 22 0
BBX 22 24 1 0
BITMAP
038000
07F800
07F81C
04701C
00000C
000018
FF87E0
3E0100
3C0100
3C0100
3C0100
3C0100
3C0100
3C0100
3C0100
3C0100
3C0100
3C0100
3C0100
3E0100
3E0300
1E0200
1F0400
07F800
ENDCHAR
STARTCHAR 1EEF
ENCODING 7919
SWIDTH 612 0
DWIDTH 17 0
BBX 16 19 1 0
BITMAP
0420
1FA0
1FE0
23C0
0000
0000
F9F7
78F7
78F3
78F2
78FC
78F0
78F0
78F0
78F0
78F0
78F0
3FF0
3EFC
ENDCHAR
STARTCHAR 1EF0
ENCODING 7920
SWIDTH 792 0
DWIDTH 22 0
BBX 22 28 1 -6
BITMAP
00001C
00001C
00000C
000018
FF87E0
3E0100
3C0100
3C0100
3C0100
3C0100
3C0100
3C0100
3C0100
3C0100
3C0100
3C0100
3C0100
3E0100
3E0300
1E0200
1F0400
07F800
000000
00C000
01E000
01E000
01E000
00C000
ENDCHAR
STARTCHAR 1EF1
ENCODING 7921
SWIDTH 612 0
DWIDTH 17 0
BBX 16 19 1 -6
BITMAP
F9F7
78F7
78F3
78F2
78FC
78F0
78F0
78F0
78F0
78F0
78F0
3FF0
3EFC
0000
0200
0780
0F80
0F80
0700
ENDCHAR
STARTCHAR 1EF2
ENCODING 7922
SWIDTH 720 0
DWIDTH 20 0
BBX 18 25 1 0
BITMAP
038000
01C000
01C000
00C000
006000
000000
000000
FF03C0
7C0180
3E0100
1E0200
1F0200
0F8400
0F8C00
07C800
07D000
03F000
03E000
01E000
01E000
01E000
01E000
01E000
01E000
0FFC00
ENDCHAR
STARTCHAR 1EF3
ENCODING 7923
SWIDTH 504 0
DWIDTH 14 0
BBX 14 25 0 -6
BITMAP
1E00
0E00
0700
0300
0100
0000
FE7C
7C10
3C10
3C10
1E20
1E20
0F40
0F40
07C0
0780
0780
0300
0300
0100
0200
7200
7400
7400
3800
ENDCHAR
STARTCHAR 1EF4
ENCODING 7924
SWIDTH 720 0
DWIDTH 20 0
BBX 18 24 1 -6
BITMAP
FF03C0
7C0180
3E0100
1E0200
1F0200
0F8400
0F8C00
07C800
07D000
03F000
03E000
01E000
01E000
01E000
01E000
01E000
01E000
0FFC00
000000
008000
01E000
01E000
01E000
00C000
ENDCHAR
STARTCHAR 1EF5
ENCODING 7925
SWIDTH 504 0
DWIDTH 14 0
BBX 14 19 0 -6
BITMAP
FE7C
7C10
3C10
3C10
1E20
1E20
0F40
0F40
07C0
0780
0780
0300
0300
0100
0220
7278
7478
7478
3870
ENDCHAR
STARTCHAR 1EF6
ENCODING 7926
SWIDTH 720 0
DWIDTH 20 0
BBX 18 25 1 0
BITMAP
01E000
033000
003000
004000
008000
000000
000000
FF03C0
7C0180
3E0100
1E0200
1F0200
0F8400
0F8C00
07C800
07D000
03F000
03E000
01E000
01E000
01E000
01E000
01E000
01E000
0FFC00
ENDCHAR
STARTCHAR 1EF7
ENCODING 7927
SWIDTH 504 0
DWIDTH 14 0
BBX 14 25 0 -6
BITMAP
0780
0CC0
0180
0100
0200
0000
FE7C
7C10
3C10
3C10
1E20
1E20
0F40
0F40
07C0
0780
0780
0300
0300
0100
0200
7200
7400
7400
3800
ENDCHAR
STARTCHAR 1EF8
ENCODING 7928
SWIDTH 720 0
DWIDTH 20 0
BBX 18 24 1 0
BITMAP
038000
07F800
07F800
047000
000000
000000
FF03C0
7C0180
3E0100
1E0200
1F0200
0F8400
0F8C00
07C800
07D000
03F000
03E000
01E000
01E000
01E000
01E000
01E000
01E000
0FFC00
ENDCHAR
STARTCHAR 1EF9
ENCODING 7929
SWIDTH 504 0
DWIDTH 14 0
BBX 14 25 0 -6
BITMAP
0400
1FA0
1FE0
13C0
0000
0000
FE7C
7C10
3C10
3C10
1E20
1E20
0F40
0F40
07C0
0780
0780
0300
0300
0100
0200
7200
7400
7400
3800
ENDCHAR
STARTCHAR 200C
ENCODING 8204
SWIDTH 0 0
DWIDTH 0 0
BBX 1 21 -1 -4
BITMAP
80
80
80
80
80
80
80
80
80
80
80
80
80
80
80
80
80
80
80
80
80
ENDCHAR
STARTCHAR 200D
ENCODING 8205
SWIDTH 0 0
DWIDTH 0 0
BBX 6 23 -3 -4
BITMAP
84
48
30
30
68
A4
20
20
20
20
20
20
20
20
20
20
20
20
20
20
20
20
20
ENDCHAR
STARTCHAR 200E
ENCODING 8206
SWIDTH 0 0
DWIDTH 0 0
BBX 6 5 0 -4
BITMAP
30
18
FC
08
10
ENDCHAR
STARTCHAR 200F
ENCODING 8207
SWIDTH 0 0
DWIDTH 0 0
BBX 6 23 -6 -4
BITMAP
30
60
FC
44
24
04
04
04
04
04
04
04
04
04
04
04
04
04
04
04
04
04
04
ENDCHAR
STARTCHAR 2013
ENCODING 8211
SWIDTH 504 0
DWIDTH 14 0
BBX 14 1 0 6
BITMAP
FFFC
ENDCHAR
STARTCHAR 2014
ENCODING 8212
SWIDTH 1008 0
DWIDTH 28 0
BBX 28 1 0 6
BITMAP
FFFFFFF0
ENDCHAR
STARTCHAR 2015
ENCODING 8213
SWIDTH 1008 0
DWIDTH 28 0
BBX 26 2 1 6
BITMAP
FFFFFFC0
FFFFFFC0
ENDCHAR
STARTCHAR 2017
ENCODING 8215
SWIDTH 504 0
DWIDTH 14 0
BBX 14 5 0 -6
BITMAP
FFFC
FFFC
0000
FFFC
FFFC
ENDCHAR
STARTCHAR 2018
ENCODING 8216
SWIDTH 324 0
DWIDTH 9 0
BBX 5 9 2 10
BITMAP
08
30
40
40
C0
F8
F8
F8
78
ENDCHAR
STARTCHAR 2019
ENCODING 8217
SWIDTH 324 0
DWIDTH 9 0
BBX 5 9 2 10
BITMAP
70
F8
F8
F8
18
18
10
30
40
ENDCHAR
STARTCHAR 201A
ENCODING 8218
SWIDTH 324 0
DWIDTH 9 0
BBX 5 9 2 -5
BITMAP
70
F8
F8
78
08
18
10
20
40
ENDCHAR
STARTCHAR 201B
ENCODING 8219
SWIDTH 324 0
DWIDTH 9 0
BBX 5 9 2 10
BITMAP
30
78
F8
F8
C0
C0
40
20
10
ENDCHAR
STARTCHAR 201C
ENCODING 8220
SWIDTH 504 0
DWIDTH 14 0
BBX 12 9 1 10
BITMAP
0820
3040
6080
4180
C100
F9E0
F9F0
F9F0
78E0
ENDCHAR
STARTCHAR 201D
ENCODING 8221
SWIDTH 504 0
DWIDTH 14 0
BBX 12 9 1 10
BITMAP
70C0
F9E0
F9F0
F9F0
08B0
1820
1020
3040
4180
ENDCHAR
STARTCHAR 201E
ENCODING 8222
SWIDTH 504 0
DWIDTH 14 0
BBX 12 9 1 -5
BITMAP
71E0
F9E0
F9F0
79F0
0830
1820
1060
20C0
4100
ENDCHAR
STARTCHAR 2020
ENCODING 8224
SWIDTH 504 0
DWIDTH 14 0
BBX 12 23 1 -5
BITMAP
0E00
0F00
0E00
0600
0600
74E0
FFF0
64E0
0600
0600
0F00
0600
0600
0600
0600
0400
0400
0400
0400
0400
0400
0400
0400
ENDCHAR
STARTCHAR 2021
ENCODING 8225
SWIDTH 504 0
DWIDTH 14 0
BBX 11 23 1 -6
BITMAP
0600
0E00
0600
0600
74E0
FFE0
6640
0600
0600
0600
0400
0400
0400
0600
0600
0F00
0600
7DE0
76E0
0600
0600
0600
0600
ENDCHAR
STARTCHAR 2022
ENCODING 8226
SWIDTH 360 0
DWIDTH 10 0
BBX 8 8 1 5
BITMAP
3C
7E
FF
FF
FF
FE
7E
18
ENDCHAR
STARTCHAR 2026
ENCODING 8230
SWIDTH 1008 0
DWIDTH 28 0
BBX 23 4 2 0
BITMAP
70380E
F83C1E
F83C1E
703C1E
ENDCHAR
STARTCHAR 202A
ENCODING 8234
SWIDTH 756 0
DWIDTH 21 0
BBX 14 17 3 0
BITMAP
FFFC
8004
8004
8004
8004
8004
8004
8004
8004
8004
8004
8004
8004
8004
8004
8004
FFFC
ENDCHAR
STARTCHAR 202B
ENCODING 8235
SWIDTH 756 0
DWIDTH 21 0
BBX 14 17 3 0
BITMAP
FFFC
8004
8004
8004
8004
8004
8004
8004
8004
8004
8004
8004
8004
8004
8004
8004
FFFC
ENDCHAR
STARTCHAR 202C
ENCODING 8236
SWIDTH 756 0
DWIDTH 21 0
BBX 14 17 3 0
BITMAP
FFFC
8004
8004
8004
8004
8004
8004
8004
8004
8004
8004
8004
8004
8004
8004
8004
FFFC
ENDCHAR
STARTCHAR 202D
ENCODING 8237
SWIDTH 756 0
DWIDTH 21 0
BBX 14 17 3 0
BITMAP
FFFC
8004
8004
8004
8004
8004
8004
8004
8004
8004
8004
8004
8004
8004
8004
8004
FFFC
ENDCHAR
STARTCHAR 202E
ENCODING 8238
SWIDTH 756 0
DWIDTH 21 0
BBX 14 17 3 0
BITMAP
FFFC
8004
8004
8004
8004
8004
8004
8004
8004
8004
8004
8004
8004
8004
8004
8004
FFFC
ENDCHAR
STARTCHAR 2030
ENCODING 8240
SWIDTH 1008 0
DWIDTH 28 0
BBX 26 20 1 -1
BITMAP
18020000
66060000
E70C0000
E7080000
E7180000
E7300000
E7300000
E7600000
66C00000
3CC00000
019E0F00
03771980
037739C0
0673B9C0
0C73B9C0
0C73B9C0
1873B9C0
10773980
30361980
601C0600
ENDCHAR
STARTCHAR 2032
ENCODING 8242
SWIDTH 288 0
DWIDTH 8 0
BBX 4 9 3 10
BITMAP
60
F0
F0
E0
E0
C0
C0
80
80
ENDCHAR
STARTCHAR 2033
ENCODING 8243
SWIDTH 540 0
DWIDTH 15 0
BBX 11 9 3 10
BITMAP
60C0
F1E0
F3C0
E3C0
E380
C380
C300
8300
8200
ENDCHAR
STARTCHAR 2039
ENCODING 8249
SWIDTH 324 0
DWIDTH 9 0
BBX 7 13 1 0
BITMAP
02
04
0C
18
38
70
F0
70
38
18
0C
04
02
ENDCHAR
STARTCHAR 203A
ENCODING 8250
SWIDTH 324 0
DWIDTH 9 0
BBX 7 13 1 0
BITMAP
80
40
60
30
38
1C
1E
1C
18
30
20
60
C0
ENDCHAR
STARTCHAR 203C
ENCODING 8252
SWIDTH 612 0
DWIDTH 17 0
BBX 12 19 2 0
BITMAP
3060
78F0
F8F0
F8F0
78F0
70F0
7070
7060
3060
2060
2060
2020
2020
0000
0000
7070
78F0
F8F0
70F0
ENDCHAR
STARTCHAR 203E
ENCODING 8254
SWIDTH 324 0
DWIDTH 9 0
BBX 11 2 -1 15
BITMAP
FFE0
FFE0
ENDCHAR
STARTCHAR 2044
ENCODING 8260
SWIDTH 180 0
DWIDTH 5 0
BBX 15 20 -5 -1
BITMAP
0006
000C
0018
0018
0030
0060
0060
00C0
0180
0180
0300
0600
0600
0C00
1800
1800
3000
6000
6000
C000
ENDCHAR
STARTCHAR 206A
ENCODING 8298
SWIDTH 756 0
DWIDTH 21 0
BBX 14 17 3 0
BITMAP
FFFC
8004
8004
8004
8004
8004
8004
8004
8004
8004
8004
8004
8004
8004
8004
8004
FFFC
ENDCHAR
STARTCHAR 206B
ENCODING 8299
SWIDTH 756 0
DWIDTH 21 0
BBX 14 17 3 0
BITMAP
FFFC
8004
8004
8004
8004
8004
8004
8004
8004
8004
8004
8004
8004
8004
8004
8004
FFFC
ENDCHAR
STARTCHAR 206C
ENCODING 8300
SWIDTH 756 0
DWIDTH 21 0
BBX 14 17 3 0
BITMAP
FFFC
8004
8004
8004
8004
8004
8004
8004
8004
8004
8004
8004
8004
8004
8004
8004
FFFC
ENDCHAR
STARTCHAR 206D
ENCODING 8301
SWIDTH 756 0
DWIDTH 21 0
BBX 14 17 3 0
BITMAP
FFFC
8004
8004
8004
8004
8004
8004
8004
8004
8004
8004
8004
8004
8004
8004
8004
FFFC
ENDCHAR
STARTCHAR 206E
ENCODING 8302
SWIDTH 756 0
DWIDTH 21 0
BBX 14 17 3 0
BITMAP
FFFC
8004
8004
8004
8004
8004
8004
8004
8004
8004
8004
8004
8004
8004
8004
8004
FFFC
ENDCHAR
STARTCHAR 206F
ENCODING 8303
SWIDTH 756 0
DWIDTH 21 0
BBX 14 17 3 0
BITMAP
FFFC
8004
8004
8004
8004
8004
8004
8004
8004
8004
8004
8004
8004
8004
8004
8004
FFFC
ENDCHAR
STARTCHAR 207F
ENCODING 8319
SWIDTH 360 0
DWIDTH 10 0
BBX 8 7 1 8
BITMAP
FE
E6
E6
E6
E6
E6
E7
ENDCHAR
STARTCHAR 20A3
ENCODING 8355
SWIDTH 504 0
DWIDTH 14 0
BBX 13 18 0 0
BITMAP
7FF8
1E18
1E08
1E08
1E00
1E20
1E20
1E20
1FE0
1EE0
1E20
1E20
1E20
1E00
FFC0
1E00
1E00
FFC0
ENDCHAR
STARTCHAR 20A4
ENCODING 8356
SWIDTH 504 0
DWIDTH 14 0
BBX 13 19 0 0
BITMAP
03C0
06E0
0C70
1E70
1E70
1E00
1E00
7FC0
7FC0
1E00
7FC0
7FC0
0E00
0E00
0600
7E08
4FF8
CFF8
79F0
ENDCHAR
STARTCHAR 20A7
ENCODING 8359
SWIDTH 972 0
DWIDTH 27 0
BBX 25 18 1 0
BITMAP
FFE00000
78F10000
78790000
787B0000
787F0000
787F0C80
787FF380
78FF7180
7BEF7080
7F0F7C00
780F7E00
780F3F00
780F1F80
780F0780
780F4380
780F4180
780F6180
FE07FF00
ENDCHAR
STARTCHAR 20AA
ENCODING 8362
SWIDTH 756 0
DWIDTH 21 0
BBX 17 14 2 0
BITMAP
FFE180
FFF180
E07180
E03180
E03180
E73180
E73180
E73180
E73180
E70180
E70380
E70380
E7FF80
E7FF00
ENDCHAR
STARTCHAR 20AB
ENCODING 8363
SWIDTH 504 0
DWIDTH 14 0
BBX 9 14 3 4
BITMAP
0700
3F80
0300
1300
6F00
E300
E300
E300
E300
E300
E300
7F80
3200
FF80
ENDCHAR
STARTCHAR 20AC
ENCODING 8364
SWIDTH 504 0
DWIDTH 14 0
BBX 13 19 0 0
BITMAP
01E0
0738
0E08
1C08
3C08
3C00
7C00
7800
FFF0
7800
FFE0
7800
7800
7800
3C00
3C08
1C08
1E10
07E0
ENDCHAR
STARTCHAR 2105
ENCODING 8453
SWIDTH 828 0
DWIDTH 23 0
BBX 21 20 1 -1
BITMAP
1C0080
6E0180
E60300
C60200
E00600
E00C00
E00800
F01800
7E3000
3C20C0
006330
00C738
008738
018718
030718
020718
060738
0C0338
0801F0
180000
ENDCHAR
STARTCHAR 2113
ENCODING 8467
SWIDTH 360 0
DWIDTH 10 0
BBX 10 19 0 0
BITMAP
0700
1F80
1C80
3C80
3C80
3C80
3D00
3D00
3E00
3C00
3C00
3C00
3C00
7C00
BC00
3C40
3C40
1E80
1F00
ENDCHAR
STARTCHAR 2116
ENCODING 8470
SWIDTH 1008 0
DWIDTH 28 0
BBX 27 19 0 0
BITMAP
00002000
1FC0F800
07C0BC00
03E11C00
03E10000
03F10000
02F90780
02F90DC0
027D1CE0
027F1CE0
023F1CE0
021F1CE0
021F1CE0
020F0DC0
02070780
42070000
E2030000
F4031FE0
7C011FE0
ENDCHAR
STARTCHAR 2122
ENCODING 8482
SWIDTH 1008 0
DWIDTH 28 0
BBX 28 11 0 7
BITMAP
FFCF81E0
9E47C3E0
1E05C3E0
1E05E5E0
1E04E5E0
1E04F9E0
1E0479E0
1E0471E0
1E0431E0
1E0421E0
3F0F23F0
ENDCHAR
STARTCHAR 2126
ENCODING 8486
SWIDTH 756 0
DWIDTH 21 0
BBX 21 21 0 0
BITMAP
003000
03DF00
0F0380
1E03C0
1E01E0
3C01E0
3C01F0
7C00F0
7C00F0
7C00F0
7C00F0
7C00F0
7C01F0
3C01F0
3C01E0
1E01E0
CE03C8
C70718
7FCFF8
7FCFF8
7FCFF0
ENDCHAR
STARTCHAR 212E
ENCODING 8494
SWIDTH 612 0
DWIDTH 17 0
BBX 15 15 1 0
BITMAP
0780
1870
3018
601C
601C
601C
E01C
FFFE
E000
E000
6000
6000
2008
3010
0FE0
ENDCHAR
STARTCHAR 2153
ENCODING 8531
SWIDTH 756 0
DWIDTH 21 0
BBX 19 20 1 -1
BITMAP
180180
780300
B80600
380600
380C00
381800
381800
383000
386000
7C6000
00C7C0
018FC0
0180C0
030080
0603C0
0601E0
0C00E0
180060
180CC0
300F00
ENDCHAR
STARTCHAR 2154
ENCODING 8532
SWIDTH 756 0
DWIDTH 21 0
BBX 19 20 1 -1
BITMAP
300180
FC0300
9C0600
1C0600
1C0C00
181800
301800
623000
7C6000
FC6000
00C7C0
018FC0
0180C0
030080
0603C0
0601E0
0C00E0
180060
180CC0
300F00
ENDCHAR
STARTCHAR 215B
ENCODING 8539
SWIDTH 756 0
DWIDTH 21 0
BBX 19 20 1 -1
BITMAP
180180
780300
B80600
380600
380C00
381800
381800
383000
386000
7C6000
00C7C0
018E60
018E60
030F60
0607C0
0607E0
0C0CE0
180C60
180E60
300380
ENDCHAR
STARTCHAR 215C
ENCODING 8540
SWIDTH 756 0
DWIDTH 21 0
BBX 19 20 1 -1
BITMAP
380180
7C0300
8C0600
0C0600
1C0C00
3E1800
0E1800
063000
846000
F86000
00C7C0
018E60
018E60
030F60
0607C0
0607E0
0C0CE0
080C60
180E60
300380
ENDCHAR
STARTCHAR 215D
ENCODING 8541
SWIDTH 756 0
DWIDTH 21 0
BBX 19 20 1 -1
BITMAP
3E0180
7E0300
400600
F00600
FC0C00
3E1800
0E1800
063000
C46000
F86000
00C7C0
018E60
018E60
030F60
0607C0
0607E0
0C0CE0
080C60
180E60
300380
ENDCHAR
STARTCHAR 215E
ENCODING 8542
SWIDTH 756 0
DWIDTH 21 0
BBX 19 20 1 -1
BITMAP
FE0300
FE0200
C40600
0C0C00
0C0800
081800
183000
182000
106000
30C000
0087C0
018E60
030E60
020F60
0607C0
0C07E0
080CE0
180C60
300E60
300380
ENDCHAR
STARTCHAR 2190
ENCODING 8592
SWIDTH 1008 0
DWIDTH 28 0
BBX 26 10 1 2
BITMAP
06000000
0C000000
18000000
38000000
FFFFFFC0
7FFFFFC0
38000000
1C000000
0C000000
06000000
ENDCHAR
STARTCHAR 2191
ENCODING 8593
SWIDTH 504 0
DWIDTH 14 0
BBX 10 24 2 -6
BITMAP
0C00
0C00
1E00
3F00
6F80
CCC0
0C00
0C00
0C00
0C00
0C00
0C00
0C00
0C00
0C00
0C00
0C00
0C00
0C00
0C00
0C00
0C00
0C00
0C00
ENDCHAR
STARTCHAR 2192
ENCODING 8594
SWIDTH 1008 0
DWIDTH 28 0
BBX 25 10 1 2
BITMAP
00001000
00000800
00000E00
00000700
FFFFFF80
FFFFFF80
00000700
00000C00
00000800
00001000
ENDCHAR
STARTCHAR 2193
ENCODING 8595
SWIDTH 504 0
DWIDTH 14 0
BBX 10 24 2 -6
BITMAP
0C00
0C00
0C00
0C00
0C00
0C00
0C00
0C00
0C00
0C00
0C00
0C00
0C00
0C00
0C00
0C00
0C00
8C40
CDC0
7F00
3E00
1E00
0C00
0800
ENDCHAR
STARTCHAR 2194
ENCODING 8596
SWIDTH 1008 0
DWIDTH 28 0
BBX 25 10 1 2
BITMAP
06001800
0C000C00
18000E00
38000700
FFFFFF80
FFFFFF80
38000700
18000C00
0C000800
06001800
ENDCHAR
STARTCHAR 2195
ENCODING 8597
SWIDTH 504 0
DWIDTH 14 0
BBX 10 26 2 -6
BITMAP
0800
0C00
1E00
3F00
7F80
CDC0
8C40
0C00
0C00
0C00
0C00
0C00
0C00
0C00
0C00
0C00
0C00
0C00
0C00
8C40
EDC0
7F00
3E00
1E00
0C00
0800
ENDCHAR
STARTCHAR 21A8
ENCODING 8616
SWIDTH 504 0
DWIDTH 14 0
BBX 10 28 2 -8
BITMAP
0800
0C00
1E00
3F00
7F80
CDC0
8C40
0C00
0C00
0C00
0C00
0C00
0C00
0C00
0C00
0C00
0C00
0C00
0C00
8C40
EDC0
7F00
3E00
1E00
0C00
0800
0000
FFC0
ENDCHAR
STARTCHAR 2202
ENCODING 8706
SWIDTH 504 0
DWIDTH 14 0
BBX 12 19 1 0
BITMAP
07E0
0FF0
0C70
0030
0010
0010
0190
0670
1C30
3810
3810
7020
7020
F020
F040
F040
F080
7100
3E00
ENDCHAR
STARTCHAR 2206
ENCODING 8710
SWIDTH 612 0
DWIDTH 17 0
BBX 15 18 1 1
BITMAP
0100
0180
0380
03C0
07C0
04C0
04E0
0860
0870
1070
1038
2038
2018
601C
401C
C00E
800E
FFFE
ENDCHAR
STARTCHAR 220F
ENCODING 8719
SWIDTH 828 0
DWIDTH 23 0
BBX 21 25 1 -6
BITMAP
FFFFF8
3800E0
3800E0
3800E0
3800E0
3800E0
3800E0
3800E0
3800E0
3800E0
3800E0
3800E0
3800E0
3800E0
3800E0
3800E0
3800E0
3800E0
3800E0
3800E0
3800E0
3800E0
3800E0
3800E0
FF07F8
ENDCHAR
STARTCHAR 2211
ENCODING 8721
SWIDTH 720 0
DWIDTH 20 0
BBX 18 25 1 -6
BITMAP
FFFF80
700180
780080
380080
1C0000
0E0000
0F0000
070000
038000
01C000
01C000
00E000
00C000
008000
010000
030000
020000
040000
080000
180000
100040
200040
4003C0
FFFFC0
FFFF80
ENDCHAR
STARTCHAR 2212
ENCODING 8722
SWIDTH 576 0
DWIDTH 16 0
BBX 14 2 1 8
BITMAP
FFFC
FFFC
ENDCHAR
STARTCHAR 2215
ENCODING 8725
SWIDTH 180 0
DWIDTH 5 0
BBX 15 20 -5 -1
BITMAP
0006
000C
0018
0018
0030
0060
0060
00C0
0180
0180
0300
0600
0600
0C00
1800
1800
3000
6000
6000
C000
ENDCHAR
STARTCHAR 2219
ENCODING 8729
SWIDTH 252 0
DWIDTH 7 0
BBX 5 4 1 7
BITMAP
70
F8
F8
70
ENDCHAR
STARTCHAR 221A
ENCODING 8730
SWIDTH 540 0
DWIDTH 15 0
BBX 14 25 1 -1
BITMAP
0004
0004
0004
0004
0008
0008
0008
0008
0008
0008
0010
3810
F810
0C10
0C10
0610
0610
0320
0320
01A0
01A0
00E0
00E0
0040
0040
ENDCHAR
STARTCHAR 221E
ENCODING 8734
SWIDTH 720 0
DWIDTH 20 0
BBX 18 12 1 1
BITMAP
001E00
3C7B00
466080
81C040
81C040
81C040
818040
81C040
834040
472080
3C1F00
000400
ENDCHAR
STARTCHAR 221F
ENCODING 8735
SWIDTH 972 0
DWIDTH 27 0
BBX 17 17 5 0
BITMAP
800000
800000
800000
800000
800000
800000
800000
800000
800000
800000
800000
800000
800000
800000
800000
800000
FFFF80
ENDCHAR
STARTCHAR 2229
ENCODING 8745
SWIDTH 720 0
DWIDTH 20 0
BBX 15 19 2 0
BITMAP
0FF0
1E78
301C
600E
6006
6006
4002
4002
C002
C002
C002
C002
C002
C002
C002
C002
C002
C002
C002
ENDCHAR
STARTCHAR 222B
ENCODING 8747
SWIDTH 288 0
DWIDTH 8 0
BBX 8 28 0 -3
BITMAP
0E
0F
12
10
10
10
18
18
18
18
18
18
18
18
18
18
18
18
18
18
18
18
18
18
10
D0
F0
E0
ENDCHAR
STARTCHAR 2248
ENCODING 8776
SWIDTH 540 0
DWIDTH 15 0
BBX 15 12 0 3
BITMAP
3C02
7F82
6FEE
81FC
8078
0000
0000
3C02
7F82
47FE
81FC
8030
ENDCHAR
STARTCHAR 2260
ENCODING 8800
SWIDTH 540 0
DWIDTH 15 0
BBX 15 23 0 -4
BITMAP
0018
0010
0030
0030
0060
0060
0060
FFFE
FFFE
0180
0180
0180
0300
0300
FFFE
FFFE
0600
0C00
0C00
0800
1800
1800
3000
ENDCHAR
STARTCHAR 2261
ENCODING 8801
SWIDTH 576 0
DWIDTH 16 0
BBX 14 10 1 4
BITMAP
FFFC
0000
0000
0000
FFFC
FFFC
0000
0000
FFFC
FFFC
ENDCHAR
STARTCHAR 2264
ENCODING 8804
SWIDTH 540 0
DWIDTH 15 0
BBX 15 20 0 -3
BITMAP
0006
001E
00FC
03E0
1F80
7C00
F000
F800
3E00
0FC0
01F0
007E
001E
0002
0000
0000
0000
FFFE
FFFE
FFFE
ENDCHAR
STARTCHAR 2265
ENCODING 8805
SWIDTH 540 0
DWIDTH 15 0
BBX 15 20 0 -3
BITMAP
C000
F800
3E00
0F80
03F0
007C
001E
003E
00F8
03E0
1F80
7C00
F000
8000
0000
0000
0000
FFFE
FFFE
FFFE
ENDCHAR
STARTCHAR 2302
ENCODING 8962
SWIDTH 612 0
DWIDTH 17 0
BBX 13 15 2 1
BITMAP
0600
0D00
0880
10C0
2060
4030
C018
8018
8018
8018
8018
8018
8018
8018
FFF8
ENDCHAR
STARTCHAR 2310
ENCODING 8976
SWIDTH 576 0
DWIDTH 16 0
BBX 15 6 0 6
BITMAP
FFFE
C07E
C000
C000
C000
C000
ENDCHAR
STARTCHAR 2320
ENCODING 8992
SWIDTH 612 0
DWIDTH 17 0
BBX 6 31 7 -7
BITMAP
08
3C
4C
40
40
C0
C0
C0
C0
C0
C0
C0
C0
C0
C0
C0
C0
C0
C0
C0
C0
C0
C0
C0
C0
C0
C0
C0
C0
C0
C0
ENDCHAR
STARTCHAR 2321
ENCODING 8993
SWIDTH 612 0
DWIDTH 17 0
BBX 5 31 4 -7
BITMAP
18
18
18
18
18
18
18
18
18
18
18
18
18
18
18
18
18
18
18
18
18
18
18
18
18
18
18
18
D8
F0
E0
ENDCHAR
STARTCHAR 2500
ENCODING 9472
SWIDTH 720 0
DWIDTH 20 0
BBX 20 3 0 7
BITMAP
FFFFF0
FFFFF0
FFFFF0
ENDCHAR
STARTCHAR 2502
ENCODING 9474
SWIDTH 720 0
DWIDTH 20 0
BBX 2 33 9 -8
BITMAP
C0
C0
C0
C0
C0
C0
C0
C0
C0
C0
C0
C0
C0
C0
C0
C0
C0
C0
C0
C0
C0
C0
C0
C0
C0
C0
C0
C0
C0
C0
C0
C0
C0
ENDCHAR
STARTCHAR 250C
ENCODING 9484
SWIDTH 720 0
DWIDTH 20 0
BBX 11 18 9 -8
BITMAP
FFE0
FFE0
FFE0
C000
C000
C000
C000
C000
C000
C000
C000
C000
C000
C000
C000
C000
C000
C000
ENDCHAR
STARTCHAR 2510
ENCODING 9488
SWIDTH 720 0
DWIDTH 20 0
BBX 11 18 0 -8
BITMAP
FFE0
FFE0
FFE0
0060
0060
0060
0060
0060
0060
0060
0060
0060
0060
0060
0060
0060
0060
0060
ENDCHAR
STARTCHAR 2514
ENCODING 9492
SWIDTH 720 0
DWIDTH 20 0
BBX 11 18 9 7
BITMAP
C000
C000
C000
C000
C000
C000
C000
C000
C000
C000
C000
C000
C000
C000
C000
FFE0
FFE0
FFE0
ENDCHAR
STARTCHAR 2518
ENCODING 9496
SWIDTH 720 0
DWIDTH 20 0
BBX 11 18 0 7
BITMAP
0060
0060
0060
0060
0060
0060
0060
0060
0060
0060
0060
0060
0060
0060
0060
FFE0
FFE0
FFE0
ENDCHAR
STARTCHAR 251C
ENCODING 9500
SWIDTH 720 0
DWIDTH 20 0
BBX 11 33 9 -8
BITMAP
C000
C000
C000
C000
C000
C000
C000
C000
C000
C000
C000
C000
C000
C000
C000
FFE0
FFE0
FFE0
C000
C000
C000
C000
C000
C000
C000
C000
C000
C000
C000
C000
C000
C000
C000
ENDCHAR
STARTCHAR 2524
ENCODING 9508
SWIDTH 720 0
DWIDTH 20 0
BBX 11 33 0 -8
BITMAP
0060
0060
0060
0060
0060
0060
0060
0060
0060
0060
0060
0060
0060
0060
0060
FFE0
FFE0
FFE0
0060
0060
0060
0060
0060
0060
0060
0060
0060
0060
0060
0060
0060
0060
0060
ENDCHAR
STARTCHAR 252C
ENCODING 9516
SWIDTH 720 0
DWIDTH 20 0
BBX 20 18 0 -8
BITMAP
FFFFF0
FFFFF0
FFFFF0
006000
006000
006000
006000
006000
006000
006000
006000
006000
006000
006000
006000
006000
006000
006000
ENDCHAR
STARTCHAR 2534
ENCODING 9524
SWIDTH 720 0
DWIDTH 20 0
BBX 20 18 0 7
BITMAP
006000
006000
006000
006000
006000
006000
006000
006000
006000
006000
006000
006000
006000
006000
006000
FFFFF0
FFFFF0
FFFFF0
ENDCHAR
STARTCHAR 253C
ENCODING 9532
SWIDTH 720 0
DWIDTH 20 0
BBX 20 33 0 -8
BITMAP
006000
006000
006000
006000
006000
006000
006000
006000
006000
006000
006000
006000
006000
006000
006000
FFFFF0
FFFFF0
FFFFF0
006000
006000
006000
006000
006000
006000
006000
006000
006000
006000
006000
006000
006000
006000
006000
ENDCHAR
STARTCHAR 2550
ENCODING 9552
SWIDTH 720 0
DWIDTH 20 0
BBX 20 7 0 5
BITMAP
FFFFF0
FFFFF0
000000
000000
000000
FFFFF0
FFFFF0
ENDCHAR
STARTCHAR 2551
ENCODING 9553
SWIDTH 720 0
DWIDTH 20 0
BBX 8 33 6 -8
BITMAP
C7
C7
C7
C7
C7
C7
C7
C7
C7
C7
C7
C7
C7
C7
C7
C7
C7
C7
C7
C7
C7
C7
C7
C7
C7
C7
C7
C7
C7
C7
C7
C7
C7
ENDCHAR
STARTCHAR 2552
ENCODING 9554
SWIDTH 720 0
DWIDTH 20 0
BBX 11 20 9 -8
BITMAP
FFE0
FFE0
C000
C000
C000
FFE0
FFE0
C000
C000
C000
C000
C000
C000
C000
C000
C000
C000
C000
C000
C000
ENDCHAR
STARTCHAR 2553
ENCODING 9555
SWIDTH 720 0
DWIDTH 20 0
BBX 14 18 6 -8
BITMAP
FFFC
FFFC
FFFC
C700
C700
C700
C700
C700
C700
C700
C700
C700
C700
C700
C700
C700
C700
C700
ENDCHAR
STARTCHAR 2554
ENCODING 9556
SWIDTH 720 0
DWIDTH 20 0
BBX 14 20 6 -8
BITMAP
FFFC
FFFC
C000
C000
C000
C7FC
C7FC
C700
C700
C700
C700
C700
C700
C700
C700
C700
C700
C700
C700
C700
ENDCHAR
STARTCHAR 2555
ENCODING 9557
SWIDTH 720 0
DWIDTH 20 0
BBX 11 20 0 -8
BITMAP
FFE0
FFE0
0060
0060
0060
FFE0
FFE0
0060
0060
0060
0060
0060
0060
0060
0060
0060
0060
0060
0060
0060
ENDCHAR
STARTCHAR 2556
ENCODING 9558
SWIDTH 720 0
DWIDTH 20 0
BBX 14 18 0 -8
BITMAP
FFFC
FFFC
FFFC
031C
031C
031C
031C
031C
031C
031C
031C
031C
031C
031C
031C
031C
031C
031C
ENDCHAR
STARTCHAR 2557
ENCODING 9559
SWIDTH 720 0
DWIDTH 20 0
BBX 14 20 0 -8
BITMAP
FFFC
FFFC
001C
001C
001C
FF1C
FF1C
031C
031C
031C
031C
031C
031C
031C
031C
031C
031C
031C
031C
031C
ENDCHAR
STARTCHAR 2558
ENCODING 9560
SWIDTH 720 0
DWIDTH 20 0
BBX 11 20 9 5
BITMAP
C000
C000
C000
C000
C000
C000
C000
C000
C000
C000
C000
C000
C000
FFE0
FFE0
C000
C000
C000
FFE0
FFE0
ENDCHAR
STARTCHAR 2559
ENCODING 9561
SWIDTH 720 0
DWIDTH 20 0
BBX 14 18 6 7
BITMAP
C700
C700
C700
C700
C700
C700
C700
C700
C700
C700
C700
C700
C700
C700
C700
FFFC
FFFC
FFFC
ENDCHAR
STARTCHAR 255A
ENCODING 9562
SWIDTH 720 0
DWIDTH 20 0
BBX 14 20 6 5
BITMAP
C700
C700
C700
C700
C700
C700
C700
C700
C700
C700
C700
C700
C700
C7FC
C7FC
C000
C000
C000
FFFC
FFFC
ENDCHAR
STARTCHAR 255B
ENCODING 9563
SWIDTH 720 0
DWIDTH 20 0
BBX 11 20 0 5
BITMAP
0060
0060
0060
0060
0060
0060
0060
0060
0060
0060
0060
0060
0060
FFE0
FFE0
0060
0060
0060
FFE0
FFE0
ENDCHAR
STARTCHAR 255C
ENCODING 9564
SWIDTH 720 0
DWIDTH 20 0
BBX 14 18 0 7
BITMAP
031C
031C
031C
031C
031C
031C
031C
031C
031C
031C
031C
031C
031C
031C
031C
FFFC
FFFC
FFFC
ENDCHAR
STARTCHAR 255D
ENCODING 9565
SWIDTH 720 0
DWIDTH 20 0
BBX 14 20 0 5
BITMAP
031C
031C
031C
031C
031C
031C
031C
031C
031C
031C
031C
031C
031C
FF1C
FF1C
001C
001C
001C
FFFC
FFFC
ENDCHAR
STARTCHAR 255E
ENCODING 9566
SWIDTH 720 0
DWIDTH 20 0
BBX 11 33 9 -8
BITMAP
C000
C000
C000
C000
C000
C000
C000
C000
C000
C000
C000
C000
C000
FFE0
FFE0
C000
C000
C000
FFE0
FFE0
C000
C000
C000
C000
C000
C000
C000
C000
C000
C000
C000
C000
C000
ENDCHAR
STARTCHAR 255F
ENCODING 9567
SWIDTH 720 0
DWIDTH 20 0
BBX 14 33 6 -8
BITMAP
C700
C700
C700
C700
C700
C700
C700
C700
C700
C700
C700
C700
C700
C700
C700
C7FC
C7FC
C7FC
C700
C700
C700
C700
C700
C700
C700
C700
C700
C700
C700
C700
C700
C700
C700
ENDCHAR
STARTCHAR 2560
ENCODING 9568
SWIDTH 720 0
DWIDTH 20 0
BBX 14 33 6 -8
BITMAP
C700
C700
C700
C700
C700
C700
C700
C700
C700
C700
C700
C700
C700
C7FC
C7FC
C000
C000
C000
C7FC
C7FC
C700
C700
C700
C700
C700
C700
C700
C700
C700
C700
C700
C700
C700
ENDCHAR
STARTCHAR 2561
ENCODING 9569
SWIDTH 720 0
DWIDTH 20 0
BBX 11 33 0 -8
BITMAP
0060
0060
0060
0060
0060
0060
0060
0060
0060
0060
0060
0060
0060
FFE0
FFE0
0060
0060
0060
FFE0
FFE0
0060
0060
0060
0060
0060
0060
0060
0060
0060
0060
0060
0060
0060
ENDCHAR
STARTCHAR 2562
ENCODING 9570
SWIDTH 720 0
DWIDTH 20 0
BBX 14 33 0 -8
BITMAP
031C
031C
031C
031C
031C
031C
031C
031C
031C
031C
031C
031C
031C
031C
031C
FF1C
FF1C
FF1C
031C
031C
031C
031C
031C
031C
031C
031C
031C
031C
031C
031C
031C
031C
031C
ENDCHAR
STARTCHAR 2563
ENCODING 9571
SWIDTH 720 0
DWIDTH 20 0
BBX 14 33 0 -8
BITMAP
031C
031C
031C
031C
031C
031C
031C
031C
031C
031C
031C
031C
031C
FF1C
FF1C
001C
001C
001C
FF1C
FF1C
031C
031C
031C
031C
031C
031C
031C
031C
031C
031C
031C
031C
031C
ENDCHAR
STARTCHAR 2564
ENCODING 9572
SWIDTH 720 0
DWIDTH 20 0
BBX 20 20 0 -8
BITMAP
FFFFF0
FFFFF0
000000
000000
000000
FFFFF0
FFFFF0
006000
006000
006000
006000
006000
006000
006000
006000
006000
006000
006000
006000
006000
ENDCHAR
STARTCHAR 2565
ENCODING 9573
SWIDTH 720 0
DWIDTH 20 0
BBX 20 18 0 -8
BITMAP
FFFFF0
FFFFF0
FFFFF0
031C00
031C00
031C00
031C00
031C00
031C00
031C00
031C00
031C00
031C00
031C00
031C00
031C00
031C00
031C00
ENDCHAR
STARTCHAR 2566
ENCODING 9574
SWIDTH 720 0
DWIDTH 20 0
BBX 20 20 0 -8
BITMAP
FFFFF0
FFFFF0
000000
000000
000000
FF1FF0
FF1FF0
031C00
031C00
031C00
031C00
031C00
031C00
031C00
031C00
031C00
031C00
031C00
031C00
031C00
ENDCHAR
STARTCHAR 2567
ENCODING 9575
SWIDTH 720 0
DWIDTH 20 0
BBX 20 20 0 5
BITMAP
006000
006000
006000
006000
006000
006000
006000
006000
006000
006000
006000
006000
006000
FFFFF0
FFFFF0
000000
000000
000000
FFFFF0
FFFFF0
ENDCHAR
STARTCHAR 2568
ENCODING 9576
SWIDTH 720 0
DWIDTH 20 0
BBX 20 18 0 7
BITMAP
031C00
031C00
031C00
031C00
031C00
031C00
031C00
031C00
031C00
031C00
031C00
031C00
031C00
031C00
031C00
FFFFF0
FFFFF0
FFFFF0
ENDCHAR
STARTCHAR 2569
ENCODING 9577
SWIDTH 720 0
DWIDTH 20 0
BBX 20 20 0 5
BITMAP
031C00
031C00
031C00
031C00
031C00
031C00
031C00
031C00
031C00
031C00
031C00
031C00
031C00
FF1FF0
FF1FF0
000000
000000
000000
FFFFF0
FFFFF0
ENDCHAR
STARTCHAR 256A
ENCODING 9578
SWIDTH 720 0
DWIDTH 20 0
BBX 20 33 0 -8
BITMAP
006000
006000
006000
006000
006000
006000
006000
006000
006000
006000
006000
006000
006000
FFFFF0
FFFFF0
006000
006000
006000
FFFFF0
FFFFF0
006000
006000
006000
006000
006000
006000
006000
006000
006000
006000
006000
006000
006000
ENDCHAR
STARTCHAR 256B
ENCODING 9579
SWIDTH 720 0
DWIDTH 20 0
BBX 20 33 0 -8
BITMAP
031C00
031C00
031C00
031C00
031C00
031C00
031C00
031C00
031C00
031C00
031C00
031C00
031C00
031C00
031C00
FFFFF0
FFFFF0
FFFFF0
031C00
031C00
031C00
031C00
031C00
031C00
031C00
031C00
031C00
031C00
031C00
031C00
031C00
031C00
031C00
ENDCHAR
STARTCHAR 256C
ENCODING 9580
SWIDTH 720 0
DWIDTH 20 0
BBX 20 33 0 -8
BITMAP
031C00
031C00
031C00
031C00
031C00
031C00
031C00
031C00
031C00
031C00
031C00
031C00
031C00
FF1FF0
FF1FF0
000000
000000
000000
FF1FF0
FF1FF0
031C00
031C00
031C00
031C00
031C00
031C00
031C00
031C00
031C00
031C00
031C00
031C00
031C00
ENDCHAR
STARTCHAR 2580
ENCODING 9600
SWIDTH 720 0
DWIDTH 20 0
BBX 20 17 0 8
BITMAP
FFFFF0
FFFFF0
FFFFF0
FFFFF0
FFFFF0
FFFFF0
FFFFF0
FFFFF0
FFFFF0
FFFFF0
FFFFF0
FFFFF0
FFFFF0
FFFFF0
FFFFF0
FFFFF0
FFFFF0
ENDCHAR
STARTCHAR 2584
ENCODING 9604
SWIDTH 720 0
DWIDTH 20 0
BBX 20 16 0 -8
BITMAP
FFFFF0
FFFFF0
FFFFF0
FFFFF0
FFFFF0
FFFFF0
FFFFF0
FFFFF0
FFFFF0
FFFFF0
FFFFF0
FFFFF0
FFFFF0
FFFFF0
FFFFF0
FFFFF0
ENDCHAR
STARTCHAR 2588
ENCODING 9608
SWIDTH 720 0
DWIDTH 20 0
BBX 20 33 0 -8
BITMAP
FFFFF0
FFFFF0
FFFFF0
FFFFF0
FFFFF0
FFFFF0
FFFFF0
FFFFF0
FFFFF0
FFFFF0
FFFFF0
FFFFF0
FFFFF0
FFFFF0
FFFFF0
FFFFF0
FFFFF0
FFFFF0
FFFFF0
FFFFF0
FFFFF0
FFFFF0
FFFFF0
FFFFF0
FFFFF0
FFFFF0
FFFFF0
FFFFF0
FFFFF0
FFFFF0
FFFFF0
FFFFF0
FFFFF0
ENDCHAR
STARTCHAR 258C
ENCODING 9612
SWIDTH 720 0
DWIDTH 20 0
BBX 10 33 0 -8
BITMAP
FFC0
FFC0
FFC0
FFC0
FFC0
FFC0
FFC0
FFC0
FFC0
FFC0
FFC0
FFC0
FFC0
FFC0
FFC0
FFC0
FFC0
FFC0
FFC0
FFC0
FFC0
FFC0
FFC0
FFC0
FFC0
FFC0
FFC0
FFC0
FFC0
FFC0
FFC0
FFC0
FFC0
ENDCHAR
STARTCHAR 2590
ENCODING 9616
SWIDTH 720 0
DWIDTH 20 0
BBX 10 33 10 -8
BITMAP
FFC0
FFC0
FFC0
FFC0
FFC0
FFC0
FFC0
FFC0
FFC0
FFC0
FFC0
FFC0
FFC0
FFC0
FFC0
FFC0
FFC0
FFC0
FFC0
FFC0
FFC0
FFC0
FFC0
FFC0
FFC0
FFC0
FFC0
FFC0
FFC0
FFC0
FFC0
FFC0
FFC0
ENDCHAR
STARTCHAR 2591
ENCODING 9617
SWIDTH 720 0
DWIDTH 20 0
BBX 19 32 1 -7
BITMAP
C18300
000000
000000
081060
081060
000000
C18300
C18300
000000
000000
081060
081060
000000
C18300
C18300
000000
000000
081060
000000
000000
C18300
C18300
000000
081060
081060
000000
000000
C18300
000000
000000
081060
081060
ENDCHAR
STARTCHAR 2592
ENCODING 9618
SWIDTH 720 0
DWIDTH 20 0
BBX 20 32 0 -7
BITMAP
64C9B0
000000
000000
9B3640
9B3640
000000
64C9B0
64C9B0
000000
000000
9B3640
9B3640
000000
64C9B0
64C9B0
000000
000000
9B3640
000000
000000
64C9B0
64C9B0
000000
9B3640
9B3640
000000
000000
64C9B0
000000
000000
9B3640
9B3640
ENDCHAR
STARTCHAR 2593
ENCODING 9619
SWIDTH 720 0
DWIDTH 20 0
BBX 20 34 0 -9
BITMAP
26CD90
FFFFF0
FFFFF0
D93660
D93660
FFFFF0
26CD90
26CD90
FFFFF0
FFFFF0
D93660
D93660
FFFFF0
26CD90
26CD90
FFFFF0
FFFFF0
D93660
FFFFF0
FFFFF0
26CD90
26CD90
FFFFF0
D93660
D93660
FFFFF0
FFFFF0
26CD90
FFFFF0
FFFFF0
D93660
D93660
FFFFF0
FFFFF0
ENDCHAR
STARTCHAR 25A0
ENCODING 9632
SWIDTH 612 0
DWIDTH 17 0
BBX 13 13 2 0
BITMAP
FFF8
FFF8
FFF8
FFF8
FFF8
FFF8
FFF8
FFF8
FFF8
FFF8
FFF8
FFF8
FFF8
ENDCHAR
STARTCHAR 25A1
ENCODING 9633
SWIDTH 612 0
DWIDTH 17 0
BBX 13 13 2 0
BITMAP
FFF8
8008
8008
8008
8008
8008
8008
8008
8008
8008
8008
8008
FFF8
ENDCHAR
STARTCHAR 25AA
ENCODING 9642
SWIDTH 360 0
DWIDTH 10 0
BBX 8 8 1 5
BITMAP
FF
FF
FF
FF
FF
FF
FF
FF
ENDCHAR
STARTCHAR 25AB
ENCODING 9643
SWIDTH 360 0
DWIDTH 10 0
BBX 8 8 1 5
BITMAP
FF
81
81
81
81
81
FF
FF
ENDCHAR
STARTCHAR 25AC
ENCODING 9644
SWIDTH 1008 0
DWIDTH 28 0
BBX 28 6 0 4
BITMAP
FFFFFFF0
FFFFFFF0
FFFFFFF0
FFFFFFF0
FFFFFFF0
FFFFFFF0
ENDCHAR
STARTCHAR 25B2
ENCODING 9650
SWIDTH 1008 0
DWIDTH 28 0
BBX 19 19 4 0
BITMAP
004000
006000
00E000
00F000
01F000
01F800
03F800
03FC00
07FC00
07FE00
0FFE00
0FFF00
1FFF00
1FFF80
3FFF80
3FFFC0
7FFFC0
7FFFE0
FFFFE0
ENDCHAR
STARTCHAR 25BA
ENCODING 9658
SWIDTH 1008 0
DWIDTH 28 0
BBX 19 19 4 0
BITMAP
800000
E00000
F80000
FE0000
FF8000
FFE000
FFF800
FFFE00
FFFF80
FFFFE0
FFFFC0
FFFF00
FFFC00
FFF000
FFC000
FF0000
FC0000
F00000
C00000
ENDCHAR
STARTCHAR 25BC
ENCODING 9660
SWIDTH 1008 0
DWIDTH 28 0
BBX 19 19 4 0
BITMAP
FFFFE0
7FFFE0
7FFFC0
3FFFC0
3FFF80
1FFF80
1FFF00
0FFF00
0FFE00
07FE00
07FC00
03FC00
03F800
01F800
01F000
00F000
00E000
006000
004000
ENDCHAR
STARTCHAR 25C4
ENCODING 9668
SWIDTH 1008 0
DWIDTH 28 0
BBX 20 19 4 0
BITMAP
000030
0000F0
0003F0
000FF0
003FF0
00FFF0
03FFF0
0FFFF0
3FFFF0
FFFFF0
3FFFF0
0FFFF0
03FFF0
00FFF0
003FF0
000FF0
0003F0
0000F0
000030
ENDCHAR
STARTCHAR 25CA
ENCODING 9674
SWIDTH 504 0
DWIDTH 14 0
BBX 12 19 1 0
BITMAP
0600
0B00
1900
1180
3080
20C0
6040
4060
C030
8010
C020
4060
6040
20C0
3080
1180
0B00
0E00
0600
ENDCHAR
STARTCHAR 25CB
ENCODING 9675
SWIDTH 612 0
DWIDTH 17 0
BBX 12 12 2 2
BITMAP
0700
18C0
2020
4010
4010
8010
8010
4010
4010
6020
3060
0F80
ENDCHAR
STARTCHAR 25CF
ENCODING 9679
SWIDTH 612 0
DWIDTH 17 0
BBX 12 12 2 2
BITMAP
0700
1FC0
3FE0
7FF0
7FF0
FFF0
FFF0
7FF0
7FF0
7FE0
3FE0
0F80
ENDCHAR
STARTCHAR 25D8
ENCODING 9688
SWIDTH 612 0
DWIDTH 17 0
BBX 13 13 2 0
BITMAP
FFF8
FFF8
FFF8
FFF8
F0F8
F078
F078
F078
F8F8
FFF8
FFF8
FFF8
FFF8
ENDCHAR
STARTCHAR 25D9
ENCODING 9689
SWIDTH 612 0
DWIDTH 17 0
BBX 15 16 1 0
BITMAP
FFFE
FFFE
FC7E
F39E
EFEE
DFF6
DFF6
9FF6
BFF6
DFF6
DFF6
CFEE
E7CE
F83E
FFFE
FFFE
ENDCHAR
STARTCHAR 25E6
ENCODING 9702
SWIDTH 360 0
DWIDTH 10 0
BBX 8 8 1 5
BITMAP
3C
42
83
81
81
C2
66
18
ENDCHAR
STARTCHAR 263A
ENCODING 9786
SWIDTH 1008 0
DWIDTH 28 0
BBX 17 18 6 -2
BITMAP
01C000
0FF800
380C00
200600
400300
C00100
8C1180
8C3980
800080
800080
800180
801100
C43100
43E300
200600
380C00
0FF000
018000
ENDCHAR
STARTCHAR 263B
ENCODING 9787
SWIDTH 1044 0
DWIDTH 29 0
BBX 17 18 6 -2
BITMAP
01C000
0FF800
1FFC00
3FFE00
7FFF00
7FFF80
F3E780
F3E780
FFFF80
FFFF80
FFFF80
FBFF80
7BEF80
7C1F00
3FFE00
1FFC00
0FF800
008000
ENDCHAR
STARTCHAR 263C
ENCODING 9788
SWIDTH 900 0
DWIDTH 25 0
BBX 25 25 0 -3
BITMAP
00080000
00080000
00080000
10080600
08080C00
047F9800
0380F000
01002000
02003000
04001000
04001800
04000800
FC000F80
04000800
04001000
04001000
02003000
01002000
0380F000
067F9000
0C080800
10080400
00080000
00080000
00080000
ENDCHAR
STARTCHAR 2640
ENCODING 9792
SWIDTH 756 0
DWIDTH 21 0
BBX 15 26 3 -6
BITMAP
0FE0
1010
2008
4004
8004
8004
8002
8004
8004
4004
4008
2008
1830
07C0
0100
0100
0100
0100
0100
7FFC
0100
0100
0100
0100
0100
0100
ENDCHAR
STARTCHAR 2642
ENCODING 9794
SWIDTH 756 0
DWIDTH 21 0
BBX 17 26 2 -4
BITMAP
000200
001E00
006500
018500
020900
000900
001080
001080
002080
002000
004000
074000
18E000
201000
400800
800800
800800
800400
000400
800400
800800
800800
401000
203000
18C000
070000
ENDCHAR
STARTCHAR 2660
ENCODING 9824
SWIDTH 540 0
DWIDTH 15 0
BBX 13 16 1 1
BITMAP
0200
0200
0700
0F80
1FC0
3FE0
7FF0
FFF8
FFF8
FFF8
FFF8
7AF0
0200
0600
0700
7FF0
ENDCHAR
STARTCHAR 2663
ENCODING 9827
SWIDTH 648 0
DWIDTH 18 0
BBX 16 17 1 0
BITMAP
0180
07E0
07F0
0FF0
0FF0
07E0
7FFE
FFFF
FFFF
FFFF
FFFF
FF7F
7CBE
0180
01C0
03E0
1FFC
ENDCHAR
STARTCHAR 2665
ENCODING 9829
SWIDTH 612 0
DWIDTH 17 0
BBX 15 17 1 0
BITMAP
3030
7CFC
FEFC
FFFE
FFFE
FFFC
7FFC
7FF8
3FF8
1FF0
1FE0
0FC0
07C0
0380
0300
0100
0100
ENDCHAR
STARTCHAR 2666
ENCODING 9830
SWIDTH 504 0
DWIDTH 14 0
BBX 12 16 1 1
BITMAP
0600
0700
0F00
1F80
1FC0
3FC0
7FE0
FFF0
FFF0
7FE0
3FC0
1F80
0F80
0F00
0600
0200
ENDCHAR
STARTCHAR 266A
ENCODING 9834
SWIDTH 504 0
DWIDTH 14 0
BBX 12 18 1 -1
BITMAP
03E0
03F0
03F0
0230
0210
0210
0200
0200
0200
0200
0200
0200
7A00
FE00
FE00
FE00
FE00
FC00
ENDCHAR
STARTCHAR 266B
ENCODING 9835
SWIDTH 756 0
DWIDTH 21 0
BBX 17 22 1 -1
BITMAP
000380
003F80
01FF80
03FE80
03F080
038080
030080
030080
030080
030080
030080
030080
030080
031F80
033F80
1B3F80
7F3F80
FF3F00
FF1E00
FE0000
7E0000
380000
ENDCHAR
STARTCHAR E801
ENCODING 59393
SWIDTH 288 0
DWIDTH 8 0
BBX 8 19 -1 0
BITMAP
80
C0
80
00
30
3E
3F
3F
1F
07
03
03
03
03
03
03
03
03
03
ENDCHAR
STARTCHAR E802
ENCODING 59394
SWIDTH 468 0
DWIDTH 13 0
BBX 11 20 1 -5
BITMAP
C000
FFE0
FFE0
FFE0
FFE0
00C0
0080
0080
18C0
18C0
00C0
18C0
18C0
00C0
00C0
00C0
00C0
00C0
0080
0080
ENDCHAR
STARTCHAR E803
ENCODING 59395
SWIDTH 468 0
DWIDTH 13 0
BBX 11 20 1 -5
BITMAP
C000
FFE0
FFE0
FFE0
FFE0
00C0
0080
0080
7CC0
7CC0
10C0
18C0
10C0
00C0
00C0
00C0
00C0
00C0
0080
0080
ENDCHAR
STARTCHAR E804
ENCODING 59396
SWIDTH 432 0
DWIDTH 12 0
BBX 15 21 -4 0
BITMAP
0800
0E00
4F00
EF00
4200
0200
0600
07FC
07FE
07FE
07FE
000E
0006
0006
0004
000C
0018
0030
0060
0060
0060
ENDCHAR
STARTCHAR E805
ENCODING 59397
SWIDTH 432 0
DWIDTH 12 0
BBX 15 21 -4 0
BITMAP
0800
0E00
4F00
EF00
4200
0200
0600
07FC
07FE
07FE
07FE
000E
0006
0086
0184
000C
0018
0030
0060
0060
0060
ENDCHAR
STARTCHAR E818
ENCODING 59416
SWIDTH 216 0
DWIDTH 6 0
BBX 5 9 1 19
BITMAP
08
30
C8
30
C0
28
A8
F8
C0
ENDCHAR
STARTCHAR E83A
ENCODING 59450
SWIDTH 612 0
DWIDTH 17 0
BBX 18 4 -1 4
BITMAP
FFFFC0
FFFFC0
FFFFC0
FFFFC0
ENDCHAR
STARTCHAR F001
ENCODING 61441
SWIDTH 540 0
DWIDTH 15 0
BBX 14 19 1 0
BITMAP
07C0
1C60
38F0
38F0
7800
7800
FFF0
FFF0
7870
7870
7870
7870
7870
7870
7870
7870
7870
7878
FDFC
ENDCHAR
STARTCHAR F002
ENCODING 61442
SWIDTH 540 0
DWIDTH 15 0
BBX 14 19 1 0
BITMAP
0780
1C70
38F0
38F0
7870
7870
FFF0
FFF0
7870
7870
7870
7870
7870
7870
7870
7870
7870
7870
FDFC
ENDCHAR
STARTCHAR F004
ENCODING 61444
SWIDTH 324 0
DWIDTH 9 0
BBX 3 6 2 -7
BITMAP
40
E0
E0
20
40
80
ENDCHAR
STARTCHAR F005
ENCODING 61445
SWIDTH 324 0
DWIDTH 9 0
BBX 5 4 2 -5
BITMAP
70
38
30
F0
ENDCHAR
ENDFONT
